<?xml version="1.0" encoding="UTF-8"?>
<svg width="583px" height="971px" viewBox="0 0 583 971" version="1.1" xmlns="http://www.w3.org/2000/svg" xmlns:xlink="http://www.w3.org/1999/xlink">
    <!-- Generator: Sketch 51.3 (57544) - http://www.bohemiancoding.com/sketch -->
    <title>mirrorGirl</title>
    <desc>Created with Sketch.</desc>
    <defs></defs>
    <g id="mirrorGirl" stroke="none" stroke-width="1" fill="none" fill-rule="evenodd">
        <g id="Mirror-girl" transform="translate(385.000000, 209.000000)" fill-rule="nonzero">
            <path d="M123.871849,236.572731 L135.629685,241.884158 L135.629685,551.514358 L12.0905153,509.632096 C4.5201393,350.597689 0.734951274,271.080486 0.734951274,271.080486 C0.734951274,271.080486 14.1502438,260.408305 40.9808289,239.063944 L82.6849425,274.578815 L123.871849,236.572731 Z" id="Path-10" fill="#EA9A8E"></path>
            <path d="M122.121164,221.845569 C122.121164,217.100137 125.673146,209.262554 127.56327,200.000616 C128.823353,193.825991 131.699552,184.197243 136.191868,171.114374 L136.191868,91.2257877 L123.566631,99.6155637 L118.608766,100.665853 L114.16549,92.1988882 L106.457874,94.6900256 C63.3823963,103.080022 41.3923032,107.27502 40.4875946,107.27502 C39.5828859,107.27502 39.0876492,105.433715 39.0018844,101.751107 L31.2091633,101.751107 L26.8305407,107.27502 C26.8305407,110.226648 26.8305407,112.503593 26.8305407,114.105856 C26.8305407,116.509249 32.1472982,199.943879 36.3174464,207.167914 C40.4875946,214.391948 43.6166901,215.012094 44.6234368,223.153152 C45.2946013,228.580524 45.2946013,232.044762 44.6234368,233.545866 L35.1457674,242.004913 C45.1648546,247.03205 52.7636153,252.125599 57.9420496,257.285561 C65.709701,265.025503 65.3791766,270.228788 72.7331778,275.699262 C80.0871791,281.169736 88.5515045,287.555255 99.1606095,280.616224 C109.769714,273.677192 109.778951,268.231128 115.950057,259.96802 C120.064129,254.459281 125.148881,246.749466 131.204316,236.838574 C128.690747,235.523074 126.144853,233.062284 123.566631,229.456205 C119.699298,224.047085 122.121164,226.591001 122.121164,221.845569 Z" id="Path" fill="#D97F71"></path>
            <path d="M102.688842,57.3027173 C101.942136,52.5079011 102.309064,46.3405538 99.6615643,43.420832 C97.8965643,41.4743508 98.1256367,40.3143939 100.348782,39.9409614 L96.7466015,36.6043404 C98.4275237,35.8000486 98.8477543,34.8212557 98.0072932,33.6679616 C97.1668321,32.5146675 96.7466015,31.5799758 96.7466015,30.8638865 C98.1305545,30.8638865 98.8225309,30.8638865 98.8225309,30.8638865 C98.8225309,30.8638865 96.9152331,29.1582168 93.1006376,25.7468776 C93.288147,25.2265469 93.942685,25.2265469 95.0642516,25.7468776 C96.1858182,26.2672084 98.1917885,27.406701 101.082162,29.1653555 C99.3133551,26.3622322 97.8681682,24.6513275 96.7466015,24.0326416 C95.6250349,23.4139556 94.4097136,22.701039 93.1006376,21.8938918 C93.8202169,20.189174 93.1889986,18.1249838 91.2069826,15.7013212 C88.2339586,12.0658273 86.9737429,9.58489654 85.4636732,8.94051131 C84.4569601,8.51092116 83.5925447,8.95320231 82.8704272,10.2673548 C82.8288642,7.14251472 81.0730651,5.5800947 77.60303,5.5800947 C72.3979774,5.5800947 71.8040389,3.78400175 66.9254621,4.68204822 C62.0468853,5.5800947 56.3525949,-1.13169621 53.8564349,0.167544322 C52.1923283,1.03370467 48.8036743,1.95903679 43.6904727,2.94354066 C39.733738,3.04951046 36.4299549,3.62901298 33.7791235,4.68204822 C29.8028764,6.26160108 30.7194835,6.50574408 27.635096,11.1035326 C24.5507085,15.7013212 24.6173362,16.5674815 25.6053301,20.3000616 C26.2639927,22.7884482 27.9704555,25.956279 30.7247185,29.8035539 L30.0370253,42.6060702 C37.2769202,58.1474616 40.8968676,68.0940283 40.8968676,72.4457702 C40.8968676,76.7975121 40.8968676,82.8552409 40.8968676,90.6189566 L42.6696409,87.3256436 L43.6904727,100.871059 L106.770742,98.0998217 C110.780779,94.1161187 112.257693,90.269161 111.201485,86.5589489 C110.145277,82.8487368 108.95978,79.9042675 107.644993,77.7255411 C106.618926,79.5968281 105.536384,80.0646499 104.397367,79.1290064 C103.258351,78.1933628 102.153282,75.7140185 101.082162,71.6909733 L104.397367,65.7958479 L102.688842,63.8065346 C103.186647,62.6672006 103.186647,60.4992615 102.688842,57.3027173 Z" id="Path-8" fill="#4079BB"></path>
            <path d="M106.168824,98.4503265 C96.1864622,96.8123882 90.4493802,93.6923182 88.9575776,89.0901163 C87.4657751,84.4879145 86.0565321,78.9755878 84.7298487,72.5531362 C85.4644674,65.5980771 85.8317768,61.6017297 85.8317768,60.5640942 C85.8317768,59.5264587 86.5049683,58.8140469 87.8513515,58.4268588 C92.0194441,54.9539855 93.5461688,51.509229 92.4315255,48.0925894 C91.3168821,44.6759497 89.7901575,43.0183118 87.8513515,43.1196755 L84.0077661,45.1908275 L82.8354565,47.3425691 L78.5174672,44.4757294 C78.7047932,39.7499569 77.4644302,36.5433874 74.7963781,34.8560208 C72.128326,33.1686543 71.0396504,31.5495202 71.5303514,29.9986187 L69.6015743,22.7374983 C69.3923017,21.1268106 68.3451314,19.7940382 66.4600636,18.739181 C63.6324619,17.1568952 61.9384009,17.877615 60.4272286,17.6036646 C59.4197804,17.421031 57.9874447,16.5987519 56.1302215,15.1368271 C56.3594691,16.9812266 56.4740929,18.3355218 56.4740929,19.1997129 C56.4740929,20.063904 56.3594691,20.9181212 56.1302215,21.7623645 C54.8595432,19.9167031 53.714343,18.6217866 52.6946211,17.877615 C51.6748991,17.1334434 50.1631506,16.4893748 48.1593755,15.9454092 L49.1962947,18.739181 L46.924712,17.3625503 L43.621186,17.3625503 C41.8281486,18.0372726 40.8182506,18.6496601 40.5914917,19.1997129 C40.3647329,19.7497657 40.8168913,20.490297 41.9479669,21.4213069 C40.6682479,21.3874657 39.7231923,21.3014438 39.1127999,21.1632412 C38.5024075,21.0250385 37.8453764,20.7483222 37.1417066,20.3330921 C36.0642549,23.9960264 35.5838368,26.1234586 35.7004524,26.7153887 C35.8753757,27.6032839 37.8055345,27.6032839 38.4343633,28.2436311 C38.8535825,28.6705292 38.8535825,29.8037133 38.4343633,31.6431832 C36.5554091,34.2513376 35.2190932,36.0911452 34.4254156,37.1626061 C33.631738,38.2340669 32.910687,40.0773146 32.2622628,42.6923492 C32.3007487,43.5259876 32.6769217,44.172041 33.3907818,44.6305095 C34.1046418,45.088978 35.7858356,45.9929979 38.4343633,47.3425691 L35.0839862,51.0319597 C35.7319878,52.1988446 36.7247029,52.782287 38.0621316,52.782287 C39.3995603,52.782287 41.3478498,53.0282786 43.907,53.5202617 L44.9255847,54.0658884 C44.6204188,54.7954927 43.4622571,55.7047221 41.4510996,56.7935768 C39.4399421,57.8824315 38.0034777,58.4268588 37.1417066,58.4268588 C33.4926107,68.7999903 33.0705005,74.7374718 35.8753757,76.2393032 C38.680251,77.7411347 42.280814,78.9587535 46.6770647,79.8921599 L46.6770647,98.4503265 C36.6957776,104.380644 32.0933967,107.345803 32.869922,107.345803 C34.0347099,107.345803 36.7860379,112.797419 38.4343633,115.477828 C39.5332469,117.264768 40.5388256,118.64858 41.4510996,119.629266 L40.0826887,124.062767 L40.0826887,128.638106 C42.4434258,129.03783 44.3797246,130.117909 45.891585,131.878344 C47.4034454,133.638778 48.1593755,135.958504 48.1593755,138.837522 C49.9359279,139.287032 51.1873944,139.833788 51.9137751,140.477788 C53.0033461,141.443789 54.5737682,140.49713 56.1302215,143.018509 C57.167857,144.699428 57.4076557,146.161323 56.8496177,147.404193 L60.8565312,148.290679 L62.3635562,152.99711 L61.6489953,157.22054 L65.6999645,159.639302 L69.6015743,164.162526 L71.5303514,163.084775 L75.5340413,166.315879 L80.152361,164.162526 L87.8513515,166.315879 L92.4315255,161.629864 L98.8426945,163.084775 L97.7085306,158.225761 L106.168824,158.225761 L104.586045,152.99711 L111.219104,150.009385 L111.219104,143.018509 L109.737867,133.910813 C108.463836,121.654392 107.82682,114.162786 107.82682,111.435993 C107.82682,108.7092 108.698978,106.77111 110.443295,105.621724 L107.82682,103.393154 L109.737867,98.4503265 L106.168824,98.4503265 Z" id="mirror-face" fill="#A8C2DF"></path>
            <path d="M41.4328809,53.1366176 C41.6246778,53.1366176 42.9548656,53.1366176 45.4234443,53.1366176 C45.4234443,53.6281978 45.4234443,54.0566684 45.4234443,54.4220293 C45.4234443,54.9700707 41.5513437,58.1380431 39.9805032,58.4178812 C38.4096627,58.6977193 37.3363961,59.2951705 36.4689283,58.9964449 C35.6014605,58.6977193 34.090758,57.5532843 34.5954336,56.3695632 C34.9318839,55.5804159 35.5563822,54.8454128 36.4689283,54.1645541 C39.5864332,53.4792631 41.241084,53.1366176 41.4328809,53.1366176 Z" id="Path-4" fill="#D97F71"></path>
            <path d="M42.5023045,51.5780677 C41.7092703,51.326956 40.3954232,51.0668218 38.5607632,50.7976651 C37.5861652,51.3179335 36.9262593,51.5780677 36.5810457,51.5780677 C36.2358321,51.5780677 35.7791013,51.3179335 35.2108535,50.7976651 C34.5821246,51.9071532 34.5821246,52.8994431 35.2108535,53.774535 C36.1539469,55.0871728 35.794597,54.6049781 36.5810457,54.8324522 C37.3674943,55.0599262 38.6273985,54.8324522 39.6133291,54.3461769 C40.2390667,54.0375539 40.571584,53.8409275 42.0921323,53.774535 C43.1058311,53.7302734 44.7622448,53.5813986 47.0613734,53.3279108 C44.8150283,52.4124604 43.2953387,51.8291794 42.5023045,51.5780677 Z" id="Path-2" fill="#BB5445"></path>
            <path d="M60.883615,25.1801524 C60.883615,25.1801524 55.7739843,22.9919873 54.3741229,22.6211881 C52.9742614,22.250389 49.9778775,22.9868899 48.3901271,22.9868899 C46.8023767,22.9868899 43.6154959,23.8093337 42.784043,24.651337 C41.95259,25.4933402 41.995028,25.8007193 41.995028,26.3434042 C41.995028,26.7051941 41.8994042,27.0173545 41.7081566,27.2798853 C44.2284367,26.6621239 45.7630803,26.1577281 46.3120874,25.7666978 C47.1355981,25.1801524 50.9905811,25.160593 52.5681368,24.651337 C54.1456926,24.1420809 55.5672472,24.434247 56.5763946,24.8983585 C57.5855419,25.3624699 58.1899871,25.2389492 59.6245813,25.5028235 C61.0591755,25.7666978 60.883615,25.1801524 60.883615,25.1801524 Z" id="Path-5" fill="#7EA1CB"></path>
            <path d="M59.0247592,31.230176 L55.8735596,30.6739774 C54.3514814,31.1736711 52.920562,31.4235179 51.5808013,31.4235179 C50.2410405,31.4235179 49.1454367,31.2985945 48.2939896,31.0487476 C49.4224296,30.2975475 49.6767415,29.5606713 49.0569254,28.8381188 C48.4371092,28.1155663 47.8994426,27.5572339 47.4439256,27.1631215 C46.4222523,26.8060338 45.5440938,27.3643662 44.8094501,28.8381188 C43.7074845,31.0487476 44.065481,31.8602263 44.2442423,33.0545361 C44.4230035,34.2488459 45.192459,34.9487173 47.1246922,35.72979 C49.0569254,36.5108626 51.3174011,36.3866307 52.7685912,34.8937139 C53.7360513,33.898436 54.483221,33.1473544 55.0101003,32.6404692 C56.310426,33.0600285 57.3337588,33.0600285 58.0800987,32.6404692 C58.8264386,32.2209098 59.1413254,31.7508121 59.0247592,31.230176 Z" id="Path-6" fill="#4079BB"></path>
            <path d="M41.8387007,45.4868786 C41.314474,45.61054 40.6996045,45.4526387 39.9940921,45.0131748 C38.9358236,44.353979 38.261023,43.9584343 37.4323468,43.9584343 C36.879896,43.9584343 36.3237814,43.9584343 35.7640032,43.9584343 C37.28512,44.0641843 38.2214912,44.4157644 38.5731166,45.0131748 C39.1005547,45.9092904 39.4107485,46.478929 40.4127045,46.478929 C41.0806752,46.478929 41.5560073,46.1482455 41.8387007,45.4868786 Z" id="Path-7" fill="#4079BB"></path>
            <path d="M51.3025105,240.602559 C51.3025105,240.602559 47.5525914,238.198611 45.8857702,236.431506 C44.218949,234.664401 37.2745273,233.73385 37.2745273,233.73385 C37.2745273,233.73385 35.4927563,233.73385 31.9292141,233.73385 L25.4382112,239.030307 L19.1312044,240.602559 L9.99911566,258.469888 C12.9466711,259.930809 16.1723158,261.102593 19.6760498,261.98524 C24.9316507,263.309212 25.7036341,263.631776 28.8164241,267.051988 C31.9292141,270.4722 33.9557418,271.691317 35.813416,272.656725 C37.6710902,273.622132 40.2101783,274.712109 40.2101783,273.329853 C40.2101783,272.408349 39.8664714,271.071997 39.1790577,269.320796 C36.7044444,267.156843 35.0372423,265.393262 34.1774513,264.030053 C33.3176603,262.666845 31.2051344,260.813456 27.8398737,258.469888 L24.462518,256.666498 C26.1154347,255.566141 26.9418931,255.015962 26.9418931,255.015962 C26.9418931,255.015962 31.0803752,255.202244 34.1774513,257.625049 C37.2745273,260.047854 39.0990594,261.933527 42.1178514,262.98179 C45.1366435,264.030053 46.0380526,264.625469 47.5825907,264.030053 C49.1271288,263.434638 49.5391199,260.937834 49.1311287,260.937834 C48.7231375,260.937834 50.3151032,262.390089 51.8222136,260.937834 C53.3293239,259.48558 53.6001752,258.317034 51.8222136,256.666498 C50.0442519,255.015962 47.5825907,252.882008 47.5825907,252.355162 C47.5825907,251.828317 44.0255246,249.247229 42.1178514,247.113275 C40.8460694,245.690639 38.7445909,244.306955 35.813416,242.962222 C35.2256192,240.708937 35.0786699,239.582295 35.3725684,239.582295 C35.6664668,239.582295 37.2790034,239.922383 40.2101783,240.602559 C44.2921855,241.141404 46.3331891,241.669393 46.3331891,242.186525 C46.3331891,242.962222 49.0519876,243.73792 50.4371006,242.962222 C51.8222136,242.186525 51.3025105,240.602559 51.3025105,240.602559 Z" id="Path-9" fill="#4079BB"></path>
            <path d="M39.5462284,102.912361 L36.7317788,99.2515967 L33.7838197,102.912361 L29.8186988,99.2515967 L28.5413064,107.802432 L25.3370768,107.802432 L27.5377218,112.125087 L32.4416526,115.496203 L37.6539,119.323289 L33.7838197,122.285957 L35.2399792,130.409109 L38.5794155,133.686316 L44.7248155,141.626741 L48.5298382,149.553589 L56.4668687,152.004847 L57.8619305,160.804598 C62.0278816,165.082561 64.3833448,167.221543 64.9283203,167.221543 C65.4732958,167.221543 68.2487108,169.866088 73.2545652,175.155179 L81.0230116,177.575323 C79.3779023,183.318497 79.1076774,187.613432 80.212337,190.460128 C81.8693265,194.730171 85.043573,198.924408 85.043573,198.924408 C85.043573,198.924408 85.5091594,197.894046 86.440332,195.833322 L92.3713248,202.180683 C95.225186,206.500887 96.6521166,208.660989 96.6521166,208.660989 C96.6521166,208.660989 94.6998221,198.924408 94.6998221,198.924408 C94.6998221,198.924408 91.9466587,195.283821 86.440332,188.002646 C85.3420838,184.40694 85.3420838,180.931165 86.440332,177.575323 C87.5385802,174.219481 88.9838024,171.83724 90.7759986,170.428601 C83.7335576,165.655446 80.212337,163.268868 80.212337,163.268868 C80.212337,163.268868 78.3916663,163.595287 74.7503249,164.248127 L73.2545652,157.538705 L67.2868008,162.248877 L69.472737,155.233968 L60.9945967,157.538705 C63.7081598,150.655042 64.3865506,147.213211 63.029769,147.213211 C61.6729875,147.213211 59.9503747,147.213211 57.8619305,147.213211 L55.6205538,140.299 L48.5298382,138.896583 C48.3404041,136.741168 47.9104581,135.004412 47.24,133.686316 C46.5695419,132.36822 44.6304474,130.76026 41.4227166,128.862434 L39.5462284,125.655376 L41.4227166,119.323289 L33.7838197,107.802432 L39.5462284,102.912361 Z" id="Path-33" fill="#F3DFDC"></path>
            <path d="M112.940284,92.6779477 L105.037196,99.3341916 L111.405489,98.1410913 C108.050024,101.624786 106.372292,103.366633 106.372292,103.366633 C106.372292,103.366633 108.050024,104.536162 111.405489,106.875219 L107.710782,110.165438 L108.98874,136.203198 L111.405489,150.956005 L104.271779,152.305243 L107.710782,158.086886 L96.3850975,157.322601 L98.8867047,162.294135 L93.7437578,160.169296 C88.5018102,164.217578 86.1593585,166.241719 86.7164026,166.241719 C87.5519689,166.241719 90.944017,167.656581 91.7795832,167.656581 C92.3366274,167.656581 93.8717988,166.542115 96.3850975,164.313184 L107.710782,166.241719 L104.271779,160.169296 C110.050782,160.169296 112.940284,160.169296 112.940284,160.169296 C112.940284,160.169296 112.428686,158.17891 111.405489,154.198137 L118.359867,152.305243 L111.405489,133.912038 L112.940284,111.528254 L118.359867,107.679105 L118.359867,102.339288 L112.940284,102.339288 L118.359867,99.3341916 L112.940284,92.6779477 Z" id="trim" fill="#F3DFDC"></path>
        </g>
        <g id="mirror" transform="translate(277.000000, 4.000000)" fill-rule="nonzero">
            <path d="M295.569731,846.514984 L274.140577,852.748731 C258.752481,847.16551 251.058432,844.027802 251.058432,843.335605 C251.058432,842.643409 251.815124,828.875392 253.328507,802.031553 L261.225596,799.897635 L274.140577,798.524125 L289.109056,802.031553 L298.229963,807.253282 L295.569731,808.337758 L295.569731,846.514984 Z" id="Path-14" fill="#F5A623"></path>
            <path d="M276.096764,50.6690345 C277.063551,50.3261005 277.546944,49.6005476 277.546944,48.4923757 C277.546944,47.3842038 277.063551,46.820052 276.096764,46.7999203 L273.649021,47.4649622 L259.466203,43.952666 C260.496161,42.1632542 260.04123,40.7794856 258.101409,39.8013602 C256.161587,38.8232348 255.101199,38.6656518 254.920245,39.3286112 C254.273021,37.7530125 253.352977,37.1531094 252.160113,37.5289021 C250.967249,37.9046948 249.8224,38.0848392 248.725567,38.0693355 C249.045129,36.9928653 248.499952,35.9778317 247.090035,35.0242347 C245.680119,34.0706376 244.517568,33.4503715 243.602383,33.1634362 C243.280275,29.2544056 241.661752,27.7511192 238.746813,28.653577 C235.831875,29.5560347 234.929417,31.3394301 236.03944,34.0037632 C233.404495,34.5139989 231.359039,35.8691897 229.903074,38.0693355 C227.719126,41.3695542 232.087022,42.0849255 229.903074,42.0849255 C228.447109,42.0849255 227.692515,42.7075057 227.639294,43.952666 L212.472102,47.4649622 C213.370858,46.4257474 212.126044,45.580561 208.737663,44.929403 C203.65509,43.952666 196.284786,44.6895575 196.284786,43.952666 C196.284786,43.2157745 196.706859,41.1390803 193.386509,40.4702203 C190.066158,39.8013602 187.273746,39.9891409 187.273746,39.3286112 C187.273746,38.6680815 191.722862,34.0051516 186.760386,32.7115131 C183.452068,31.8490874 181.426745,31.2901421 180.684415,31.0346771 L181.534114,25.1194135 L177.173508,26.3311366 C176.813913,21.3336031 174.30589,18.8348363 169.649439,18.8348363 C162.664763,18.8348363 157.431202,23.192319 157.431202,22.6779181 C157.431202,22.3349841 156.416053,21.7084702 154.385754,20.7983762 L154.939378,16.1076784 L158.307975,13.2187722 L154.385754,11.7390885 L153.295169,7.88767639 C154.749283,5.92656622 155.112811,5.12800679 154.385754,5.49199809 C153.295169,6.03798505 146.818993,9.73493804 146.818993,8.81130722 C146.818993,7.88767639 148.982809,0.172703689 147.900901,0.707583472 C147.179629,1.06416999 144.602187,2.65897487 140.168573,5.49199809 L140.840905,10.1646468 C135.541395,6.15426326 132.468873,4.1490715 131.62334,4.1490715 C130.777806,4.1490715 128.57685,4.75429671 125.020473,5.96474713 L123.978134,10.6571805 L119.500902,11.7390885 C116.879378,16.4695871 115.859138,18.8348363 116.440182,18.8348363 C117.021226,18.8348363 119.054185,18.8348363 122.539061,18.8348363 L120.017385,23.9962006 L113.327049,23.9962006 L116.440182,28.0367818 L113.327049,30.5452673 L110.080284,26.3311366 C106.767338,32.1265353 104.897515,35.0242347 104.470815,35.0242347 C104.044114,35.0242347 102.543489,34.8695442 99.9689388,34.5601631 L96.3834047,38.8714816 L91.8395298,42.6093923 L94.6722059,45.6197832 L84.8079953,46.7999203 C88.5608312,49.3793297 90.2638153,50.6690345 89.9169476,50.6690345 C89.5700798,50.6690345 85.8750937,51.2584088 78.8319893,52.4371575 C80.1056118,54.5364131 80.742423,55.5860409 80.742423,55.5860409 C80.742423,55.5860409 77.4844347,56.2011006 70.9684582,57.43122 L77.7577174,59.3395711 C71.195461,62.3778456 66.1193674,65.7507237 62.5294366,69.4582054 C58.9395059,73.1656871 54.557842,78.1076847 49.3844449,84.2841983 C47.8470271,82.7301197 46.5056046,82.1372744 45.3601774,82.5056623 C43.6420366,83.0582441 40.992976,83.1408537 40.992976,82.5056623 C40.992976,81.8704708 40.1231455,77.484526 37.030145,77.484526 C34.9681447,77.484526 33.5551041,77.9276559 32.7910232,78.8139158 C35.8582226,74.3391136 35.8582226,72.5092069 32.7910232,73.3241957 C28.190224,74.5466789 28.151696,74.1541097 29.1981999,76.1193851 C29.8958692,77.4295687 30.3833121,78.3277455 30.6605286,78.8139158 L25.8007935,79.3005488 L25.8007935,82.5056623 L21.2406049,89.5538575 C20.7697071,89.5538575 20.1932911,89.5538575 19.511357,89.5538575 C18.8294228,89.5538575 18.3285588,89.7683648 18.0087648,90.1973793 C15.4652222,91.055177 14.1934509,92.0859458 14.1934509,93.2896856 C14.1934509,95.0952954 12.5738863,94.2421257 10.1865384,94.2421257 C7.79919049,94.2421257 3.14667355,94.5486142 4.12167505,96.6017057 C5.09667655,98.6547971 6.13554429,100.47915 7.57079925,100.47915 C8.5276359,100.47915 25.5234612,96.837386 58.5582753,89.5538575 L146.818993,55.5860409 L203.782475,64.1961823 L276.096764,50.6690345 Z" id="Path-20" fill="#F5A623"></path>
            <path d="M270.040629,90.3073428 L270.098868,89.8518645 L270.652601,85.5211688 C272.124281,85.2282753 273.152544,83.893164 273.73739,81.5158349 C274.322236,79.1385058 275.006491,73.4281807 275.790153,64.3848596 L276.434581,58.2938358 L249.107056,52.204223 L205.957169,60.3752923 C204.74765,51.8490819 195.26154,47.5859766 177.498837,47.5859766 C150.854782,47.5859766 87.6344789,58.364864 77.7140454,71.3235185 C71.1004231,79.9626215 64.7740496,86.2905629 58.7349249,90.3073428 L6.58608937,104.707729 C11.5740589,108.163496 14.4694394,109.891379 15.2722309,109.891379 C16.4764182,109.891379 19.4567817,113.833211 19.4567817,116.341778 C19.4567817,118.014156 20.1585971,121.05614 21.5622279,125.46773 L50.7101456,141.499414 C49.9496888,136.389771 49.9496888,133.604775 50.7101456,133.144424 C51.8508308,132.453898 73.7091819,125.46773 73.7091819,125.46773 C73.7091819,125.46773 69.8774204,116.290506 85.5191546,104.707729 C101.160889,93.1249529 115.536345,85.5823189 153.354881,80.1150264 C191.173418,74.6477339 178.486176,74.8438847 193.502768,79.4437861 C203.513829,82.510387 210.092956,89.5192901 213.24015,100.470495 L247.608878,106.138172 L270.040629,90.3073428 Z" id="Path-19" fill="#F5A623"></path>
            <polyline id="Path-16" fill="#9E6200" points="252.668976 791.764507 268.148285 786.18391 268.148285 93.101442 270.125374 89.6574485 262.428515 89.6574485 261.18595 92.3693433 252.668976 93.101442 252.668976 789.637547"></polyline>
            <path d="M234.441752,750.131254 L129.85532,712.14023 C131.778745,722.421673 132.740458,729.62811 132.740458,733.759543 C132.740458,737.890977 133.481674,740.636431 134.964107,741.995907 L133.778639,747.598041 L252.773168,792.660815 L257.823105,93.1469082 C256.050183,91.5901804 253.730819,91.5901804 250.865015,93.1469082 C247.999211,94.703636 246.070958,99.1163973 245.080258,106.385192 L240.669533,119.84157 L234.441752,750.131254 Z" id="Path-12" fill="#F5A623"></path>
            <polygon id="Path-13" fill="#9E6200" points="132.677242 728.098103 234.976158 764.869118 240.681925 105.078011 245.236747 101.650574 243.732457 183.829153 239.134905 769.774331 132.677242 730.48977"></polygon>
            <path d="M273.633799,78.1623028 C273.633799,78.1623028 268.63513,77.3557898 258.637792,75.7427637 L248.785972,78.1623028 C248.785972,76.4091272 248.785972,74.6460859 248.785972,72.873179 C248.785972,70.2138187 246.630193,69.6201415 243.673558,70.2551672 C240.716924,70.8901928 238.716963,72.718231 238.716963,75.1242775 C238.716963,76.7283084 238.716963,78.6473133 238.716963,80.881292 L209.686846,87.6946515 C207.240177,78.9885471 201.827298,73.5582581 193.448209,71.4037845 C180.879576,68.1720741 175.04117,68.7156979 163.238572,69.5091535 C151.435974,70.3026091 128.400366,75.2072517 121.376062,77.0889833 C104.34265,81.6520416 91.3116504,87.5011029 84.5515387,91.4786906 C75.0036662,97.0965711 68.6557311,103.998286 65.5077332,112.183835 L19.8585728,122.081791 L19.8585728,120.255058 L63.461201,110.595182 C66.3686522,102.060565 72.7271783,94.974596 82.5367795,89.3372744 C97.2511812,80.881292 118.862075,73.3088614 142.939949,69.5091535 C167.017824,65.7094455 181.518519,65.4025963 194.291718,69.5091535 C202.807184,72.2468583 208.233556,77.4897009 210.570833,85.2376811 L236.846706,78.9387838 C236.846706,77.8965119 236.846706,76.6250098 236.846706,75.1242775 C236.846706,73.7107425 237.255099,71.8386303 238.716963,70.2551672 C239.583164,69.316916 241.434712,67.9342543 243.673558,67.5805732 C249.690851,66.6299933 251.206382,68.965965 251.206382,72.873179 C251.206382,75.4779883 251.206382,76.2283545 251.206382,75.1242775 L258.637792,73.4925358 L273.633799,75.7427637 C273.633799,77.3557898 273.633799,78.1623028 273.633799,78.1623028 Z" id="Path-18" fill="#9E6200"></path>
            <path d="M296.045626,808.753974 C296.045626,808.753974 289.30482,810.015568 275.823209,812.538757 L273.991737,852.587167 L295.625195,846.237484 C294.001087,844.523948 293.189034,843.667181 293.189034,843.667181 C293.189034,843.667181 288.331616,844.94428 278.616782,847.498477 L278.616782,815.531291 L293.189034,812.538757 L293.189034,844.839947 L295.625195,846.237484 C295.905482,821.248477 296.045626,808.753974 296.045626,808.753974 Z" id="Path-15" fill="#9E6200"></path>
            <g id="upper-crest" transform="translate(137.500000, 31.000000) scale(-1, -1) translate(-137.500000, -31.000000) translate(95.000000, 1.000000)" fill="#F5C623">
                <path d="M70.597876,23.3905311 C68.0285092,26.2107899 67.5871399,25.4177756 66.9752415,23.3905311 C66.5673092,22.0390347 66.4443697,21.5495065 66.6064228,21.9219465 C67.086828,23.5462334 66.6703421,24.3583768 65.356965,24.3583768 C64.043588,24.3583768 63.3965418,24.0357616 63.4158264,23.3905311 C65.0657515,25.2473928 65.2570426,26.2991399 63.9896999,26.5457724 C62.7223571,26.7924049 61.5099911,26.586166 60.3526019,25.9270557 C61.684175,27.6654057 61.684175,28.5345807 60.3526019,28.5345807 C58.3552424,28.5345807 58.2166729,28.2310946 58.2166729,27.8662173 C58.2166729,27.5013399 58.5068756,30.5215206 57.1104502,30.1307522 C56.1795,29.8702399 55.4028268,29.8702399 54.7804307,30.1307522 L54.7804307,31.8910784 C52.4135527,32.4357697 51.2301136,32.7081154 51.2301136,32.7081154 C51.2301136,32.7081154 51.2301136,32.4357697 51.2301136,31.8910784 C48.6084917,32.6349062 46.832439,32.0481307 45.9019553,30.1307522 C44.9714716,28.2133736 44.8492319,27.8513434 45.5352361,29.0446616 L46.2570103,33.3999676 L43.2175806,34 C43.6507073,31.6822593 43.2092602,29.8604529 41.8932393,28.5345807 C40.5772184,27.2087085 39.1808707,26.1573173 37.7041964,25.380407 C39.442302,24.919706 39.8768284,26.1411242 39.0077756,29.0446616 C37.7041964,33.3999676 36.0548934,34 36.0548934,34 C36.0548934,34 36.9255014,31.5435508 36.4901974,29.0446616 C36.1999947,27.3787355 35.7066035,26.1573173 35.0100238,25.380407 L33.1789943,23.3905311 L32.1810143,27.0708007 L29.9464071,27.8662173 C30.6064393,29.6010083 30.6064393,30.7727797 29.9464071,31.3815314 C29.2863749,31.9902831 28.3792971,32.2889647 27.2251739,32.2775762 C26.0298375,32.3331105 25.4321693,31.6175025 25.4321693,30.1307522 C25.4321693,28.6440018 25.889324,27.624018 26.8036335,27.0708007 L27.723464,28.5345807 L28.9243992,26.5457724 C28.4248649,24.7850013 27.717943,23.9046157 26.8036335,23.9046157 C25.889324,23.9046157 25.3082966,23.5123348 25.0605512,22.7277729 C24.9123395,22.1905553 25.0362121,21.9219465 25.4321693,21.9219465 C26.026105,21.9219465 25.8236163,21.1161201 27.723464,21.9219465 C28.9900291,22.4591641 29.8542608,23.1200538 30.3161589,23.9046157 C30.1152254,22.0746238 29.2509938,20.8328308 27.723464,20.1792369 C26.1959342,19.5256429 25.3082966,19.3630007 25.0605512,19.6913102 C24.9435992,18.463308 25.0674719,17.1982932 25.4321693,15.8962657 C25.9792153,13.9432244 29.1219889,8.61019661 29.534198,8.61019661 C29.9464071,8.61019661 31.9682613,7.65676441 34.0115773,8.13348051 C35.373788,8.45129124 36.7555944,8.91270402 38.1569965,9.51771886 C37.2797011,10.1125908 36.2307102,10.4100268 35.0100238,10.4100268 C33.7893375,10.4100268 33.1789943,10.745899 33.1789943,11.4176434 C34.0415152,11.0133511 35.1452496,11.0133511 36.4901974,11.4176434 C37.8351453,11.8219356 39.1319593,12.0161632 40.3806395,12.0003261 C39.6958794,12.7927175 38.8037317,13.1889133 37.7041964,13.1889133 C36.6046611,13.1889133 35.556681,13.4496035 34.5602563,13.9709839 C35.2807863,13.9709839 36.611193,13.9709839 38.5514762,13.9709839 C40.4917594,13.9709839 41.3976708,13.5902694 41.2692102,12.8288405 C41.2325072,14.1851414 40.6291625,15.2076165 39.459176,15.8962657 C38.2891896,16.5849149 37.1544287,16.9159826 36.0548934,16.8894687 L41.2692102,15.8962657 C41.2692102,16.9860042 41.2692102,17.5308734 41.2692102,17.5308734 C41.2692102,17.5308734 44.3636945,17.5308734 44.3636945,17.5308734 C44.3636945,17.5308734 43.8565396,16.3956698 45.056775,16.3956698 C45.8569319,16.3956698 46.4847712,16.774071 46.940293,17.5308734 C47.555224,15.9624614 48.6378075,15.2979238 50.1880434,15.5372606 C51.7382793,15.7765973 52.5959791,16.7014693 52.7611427,18.3118764 L55.291318,18.8337017 C54.3149556,17.8667456 54.5584241,17.218668 56.0217236,16.8894687 C58.2166729,16.3956698 56.4852548,14.7020732 58.2166729,14.7020732 C59.9480911,14.7020732 57.4995644,13.1889133 59.9301284,13.1889133 C62.3606924,13.1889133 62.841953,12.0216795 63.4158264,13.1889133 C63.7984087,13.9670691 63.9896999,14.6160365 63.9896999,15.1358154 C64.3290473,13.5827068 65.0124854,13.1944296 66.0400144,13.9709839 C67.0675434,14.7475383 67.2563462,15.5557669 66.6064228,16.3956698 L68.2886185,16.8894687 C69.0780445,15.1231813 69.8477969,13.7696385 70.597876,12.8288405 C71.7229945,11.4176434 72.3659194,11.6757534 72.3659194,13.1889133 C72.3659194,14.7020732 71.7969449,16.248064 72.3659194,16.8894687 C72.9348939,17.5308734 75.2828762,18.3118764 75.6083044,18.3118764 C75.8252566,18.3118764 77.0815573,16.604222 79.3772066,13.1889133 L79.3772066,16.8894687 C80.4852956,16.7964032 81.5734001,17.0102048 82.6415201,17.5308734 C83.7096401,18.0515421 84.4958001,19.5152331 85,21.9219465 L82.6415201,20.1792369 C82.7682699,20.5520328 82.9560618,21.7938257 83.2048959,23.9046157 C83.4537299,26.0154057 83.265938,27.3359396 82.6415201,27.8662173 L79.8449368,22.7277729 C80.9247209,22.4096063 80.9247209,23.8572822 79.8449368,27.0708007 C78.7651527,30.2843192 77.5606405,32.3940415 76.2314003,33.3999676 C75.7791445,30.2887678 75.7791445,28.0040361 76.2314003,26.5457724 C76.6836561,25.0875087 76.4759575,23.5462334 75.6083044,21.9219465 L73.4119554,21 C74.4471049,22.6098804 74.8453949,23.9366459 74.6068252,24.9802965 C74.3682556,26.0239471 73.0319392,25.8166405 70.597876,24.3583768 C72.3107871,21.8329737 72.3107871,21.5103585 70.597876,23.3905311 Z" id="Path-23"></path>
                <path d="M50.9077491,12.9831483 C50.3530663,17.8528792 51.7266242,21.1573533 55.0284228,22.8965705 C58.3302214,24.6357877 59.9288705,25.8161411 59.8243701,26.4376307 L57.2748362,27.5142521 C58.9745255,28.4752866 59.8243701,28.9558038 59.8243701,28.9558038 C59.8243701,28.9558038 58.225721,29.0815707 55.0284228,29.3331045 C59.0094743,30.3272559 61,31.3423469 61,32.3783776 C61,33.4144083 60.2281847,34.0785504 58.684554,34.3708038 L57.2748362,35.8044307 C60.0749915,35.4892402 60.5448974,35.7871635 58.684554,36.6982004 C56.8242107,37.6092374 54.7689777,37.7985965 52.5188552,37.2662777 L50.0373158,39.567387 C56.0331149,40.6000673 58.4456217,41.2353449 57.2748362,41.4732196 C56.1040507,41.7110943 55.5186579,42.081501 55.5186579,42.5844398 C59.0227098,42.599903 60.0780086,42.887002 58.684554,43.445737 C56.5943723,44.2838394 53.5273536,45.4244397 53.5273536,45.4244397 C53.5273536,45.4244397 59.0310145,45.0881163 57.2748362,46.2267836 C56.1040507,46.9858951 53.9816883,47.582837 50.9077491,48.0176091 C56.6500828,48.8861224 58.7724451,49.7172664 57.2748362,50.5110412 C55.7772273,51.3048159 54.1919003,51.39418 52.5188552,50.7791334 C53.1911875,52.0527811 53.5273536,53.1246348 53.5273536,53.9946944 C53.5273536,54.864754 52.3640077,56.8665226 50.0373158,60 C45.9510719,58.2670969 44.4371996,56.9177442 45.4956991,55.951942 C47.0834483,54.5032386 47.9595911,51.0472257 47.9595911,50.7791334 C47.9595911,50.6004053 47.6812116,50.1874749 47.1244526,49.5403422 C47.4244588,51.0412982 46.881541,51.7917761 45.4956991,51.7917761 C44.1098572,51.7917761 43.8157335,51.2206706 44.6133279,50.0784597 C43.8423776,52.0113528 42.608788,52.669374 40.912559,52.0525234 C38.3682156,51.1272475 42.85689,48.7242748 41.8847245,48.7242748 C40.912559,48.7242748 36.9356599,51.4817401 36.9356599,50.5110412 C36.9356599,50.0887055 35.8064306,49.4439717 36.9356599,48.7242748 C37.3363639,48.4688923 38.661997,48.0682679 40.912559,47.5224018 C37.4225212,48.5347224 35.6775023,48.4381422 35.6775023,47.2326612 C35.6775023,45.4244397 39.3554333,45.6074846 40.1339962,45.9171341 C40.912559,46.2267836 35.0235095,45.4750815 33.802723,44.5896231 C32.5819364,43.7041648 28.9434526,41.5915126 32.9395563,40.9279504 C35.6036254,40.4855756 36.9356599,39.883866 36.9356599,39.1228216 C32.9290024,40.5065153 30.6526576,41.1082249 30.1066255,40.9279504 C29.2875774,40.6575387 28.0309769,39.379703 30.1066255,37.720121 C31.4903912,36.613733 32.4347015,36.2730928 32.9395563,36.6982004 C30.0841337,36.6112202 28.8981229,36.2015758 29.381524,35.469267 C29.864925,34.7369582 31.0509358,33.963801 32.9395563,33.1497953 C29.8993548,32.5597474 28.9550445,31.9859359 30.1066255,31.4283607 C31.2582065,30.8707854 32.490239,30.3780266 33.802723,29.950084 C27.0005057,31.0819862 24.5630849,30.9589898 26.4904605,29.5810947 C29.381524,27.5142521 26.4105281,25.0507799 30.1066255,23.3424889 C33.802723,21.634198 36.5816733,20.6615662 35.6775023,20.6615662 C34.7733313,20.6615662 28.1887657,23.7884074 26.4904605,23.3424889 C24.7921554,22.8965705 22.8369245,22.506706 24.2118665,21.8804486 C25.1284946,21.4629437 27.0934142,20.6942965 30.1066255,19.5745071 C25.3037577,21.2535469 22.2185726,21.8544834 20.8510702,21.3773165 C18.7998165,20.6615662 16.8295335,20.0936822 18.8403018,19.5745071 C20.1808141,19.2283904 21.9713356,18.8018653 24.2118665,18.2949319 C27.9487863,18.472758 31.4310384,18.1084721 34.6586231,17.2020741 C37.8862077,16.2956761 40.8447466,14.2283181 43.5342397,11 L43.5342397,17.2020741 L50.9077491,12.9831483 Z" id="Path-22"></path>
                <path d="M34.2517083,6.09687134 C33.4384475,6.66813278 31.6687301,7.77352466 28.942556,9.41304698 L26.9791942,10.8507315 L26.9791942,11.9628745 C28.8785627,11.3098057 29.8282469,11.3098057 29.8282469,11.9628745 C29.8282469,12.6159433 29.5330166,13.3815964 28.942556,14.259834 C27.7360375,13.3537978 26.8238309,12.9007798 26.2059364,12.9007798 C25.5880419,12.9007798 25.0829823,13.3537978 24.6907576,14.259834 L27.2822299,14.259834 C26.7142674,13.9421356 25.9704524,14.1562841 25.0507847,14.9022797 C24.1311171,15.6482753 23.6753008,16.4008233 23.6833358,17.159924 L23.6833358,18.708108 C23.8248673,18.4289305 24.2806836,17.9128692 25.0507847,17.159924 C25.8208859,16.4069788 26.3329474,16.4069788 26.5869695,17.159924 C25.5616984,17.431159 24.8214417,18.0838306 24.3661994,19.1179389 C23.6833358,20.6691014 23.670078,21.2516808 22.2831728,20.1848099 C21.3585694,19.4735626 20.6182553,19.2762917 20.0622306,19.5929973 C20.1918243,19.8944137 20.4030884,20.3986606 20.696023,21.1057381 C21.1354248,22.1663544 21.9956332,22.2980007 22.2831728,22.2980007 C22.5707124,22.2980007 21.0598381,21.5944973 19.5882206,22.2980007 C18.6071423,22.7670029 17.4591648,23.7697385 16.144288,25.3062074 C15.4594731,26.1737226 14.6886832,26.6074802 13.8319185,26.6074802 C12.9751537,26.6074802 13.3996333,27.0695328 15.1053574,27.9936381 C14.7001618,27.4825408 14.0127642,27.7337211 13.0431646,28.747179 C12.0735649,29.7606369 10.6044153,30.0471611 8.63571591,29.6067517 C7.85448052,30.8489525 7.46386282,31.9937588 7.46386282,33.0411707 C7.46386282,34.6122886 8.43047805,34.8761768 7.80804947,35.2720092 C7.39309708,35.5358974 6.84114727,35.5358974 6.15220004,35.2720092 C7.44389001,32.6464304 7.44389001,31.0458262 6.15220004,30.4701964 C4.86051008,29.8945666 3.31560159,29.6067517 1.51747457,29.6067517 C2.12102081,31.301077 2.55720866,32.6688679 2.82603812,33.7101244 C3.09486758,34.7513809 2.44586597,34.9756561 0.879033303,34.3829501 C-1.4321877e-14,36.9032912 -0.219758326,38.1634618 0.219758326,38.1634618 C0.659274977,38.1634618 1.64075503,38.5173976 3.16419849,39.2252694 L2.58085463,37.2741048 C3.32248876,38.3022563 4.17799088,39.4609619 5.14736098,40.7502217 C6.11673108,42.0394816 7.00362725,42.333154 7.80804947,41.6312391 L5.67405781,38.5449977 C7.09086482,37.9818773 7.93867625,38.2086345 8.21749212,39.2252694 C8.49630798,40.2419043 8.78229799,40.6034848 9.07546214,40.3100109 C8.22466626,41.1243116 7.93867625,41.9639289 8.21749212,42.8288628 C8.49630798,43.6937967 9.19001884,45.4175091 10.2986247,48 C9.49098846,45.9383359 9.19242935,44.2146235 9.40294738,42.8288628 C9.61346541,41.4431021 9.83718387,40.6034848 10.0741027,40.3100109 C11.3640709,40.0498953 11.8959331,40.4903047 11.6696894,41.6312391 C11.4434456,42.7721735 11.4434456,43.708391 11.6696894,44.4398916 L13.0431646,46.6388609 L13.0431646,43.5853821 C13.1243185,43.7360903 13.6614608,44.0209268 14.6545917,44.4398916 C16.144288,45.0683387 18.7318002,44.8270865 18.2979081,44.8270865 C18.0086467,44.8270865 17.2907733,44.413185 16.144288,43.5853821 C14.6027083,42.2826201 13.8319185,41.6312391 13.8319185,41.6312391 C13.8319185,41.6312391 16.9881393,44.0264865 18.0236263,42.8288628 C18.713951,42.030447 19.3934857,41.1908297 20.0622306,40.3100109 L18.0236263,40.7502217 C18.7506826,39.5344297 19.272214,38.799355 19.5882206,38.5449977 C20.0622306,38.1634618 20.2121988,36.1568985 21.2476858,37.691084 C21.9380105,38.7138743 22.4873202,39.7335868 22.895615,40.7502217 L23.2193123,38.1634618 L24.6907576,33.0411707 C24.4743854,34.1797224 24.3661994,35.3180755 24.3661994,36.45623 C24.3661994,37.5943845 24.4743854,39.3193876 24.6907576,41.6312391 C26.216382,39.5634196 26.9791942,37.8384166 26.9791942,36.45623 C26.9791942,34.3829501 26.1947448,33.7101244 26.5869695,33.7101244 C26.9791942,33.7101244 27.9618221,35.0557757 28.3049757,34.3829501 C28.5337447,33.9343996 28.4209098,32.4866877 27.9664709,30.0398143 C28.3460691,31.6777482 28.6714308,32.3634803 28.942556,32.0970108 C29.2136812,31.8305412 29.5921316,30.0006977 30.0779071,26.6074802 C30.7201363,29.5988092 31.1750343,29.9329882 31.4426011,27.6100172 C31.8439513,24.1255607 32.5896604,23.3589148 32.5896604,22.8284577 C32.5896604,22.4748197 32.1138139,22.0693571 31.1621209,21.61207 L29.6093623,20.758359 L28.5661718,20.1848099 C28.4347415,17.4001834 28.7005292,16.0078701 29.3635347,16.0078701 C30.0265402,16.0078701 31.0042897,16.0078701 32.2967832,16.0078701 C31.7520075,16.1403107 31.1269389,16.5243286 30.4215772,17.159924 C29.7162155,17.7955193 29.4454772,18.3115807 29.6093623,18.708108 C30.1344245,19.6925759 30.5244831,20.1848099 30.7795382,20.1848099 C31.1621209,20.1848099 32.5896604,17.159924 31.8415408,17.6722126 C31.3427945,18.0137384 32.3956142,17.8429755 35,17.159924 L34.0259811,14.259834 C34.6812959,12.7285277 34.6812959,11.9628745 34.0259811,11.9628745 C33.3706662,11.9628745 32.6425195,11.9628745 31.8415408,11.9628745 C34.2615799,7.48094429 35.064969,5.5256099 34.2517083,6.09687134 Z" id="Path-24"></path>
                <path d="M41.4346101,0.853820928 C42.4727815,1.55467053 51.4803723,4.89926334 48.3379157,11.7262782 C48.1429438,12.1498563 47.5597723,10.7879906 47.406921,11.2552332 C46.8738571,12.884726 47.4581885,15.2822371 46.7174699,16.6797272 C45.8109905,18.3899529 44.9427534,12.7134362 44.942793,12.2997152 C44.9429658,10.4953399 46.5569756,6.77851979 45.4546872,6.95123635 C44.3253771,7.1281869 45.6067805,13.3636288 44.660461,12.3439535 L43.4139936,14.0347724 C43.2816567,13.8921771 40.0647232,0.287031122 41.2695446,0 L41.4346101,0.853820928 Z" id="Path-21"></path>
            </g>
            <path d="M276.881021,58.2483108 L276.881021,49.9445215 L253.050986,45.2452681 L205.408001,55.874335 C200.956037,50.8795687 197.007764,47.6136432 193.563183,46.0765584 C191.003536,44.93436 183.155904,43.8521199 174.273684,43.9476836 C165.226367,44.0450236 155.135099,45.3376317 151.724137,46.0765584 C144.964457,47.5409279 118.526921,51.6956704 100.435607,58.2483108 C92.2463066,61.2144604 79.9568645,65.0068346 68.8729789,72.8965345 C65.3796324,75.3831585 60.7004226,80.2084901 54.8353495,87.3725293 L6.43345356,98.5164777 L6.43345356,105.088199 L65.6950919,91.7300271 C69.8604547,84.8514268 74.0582299,79.7723874 78.2884174,76.4929087 C84.1022506,71.9856992 95.9261849,65.1573955 105.603599,62.0090673 C115.281013,58.8607392 122.953349,56.3738496 143.42405,52.4890841 C152.289767,50.8066193 162.095283,49.368902 170.644877,49.1374478 C181.836063,48.8344806 190.935308,50.187958 193.563183,51.6236196 C196.290999,53.1138807 200.239272,57.3287131 205.408001,64.2681167 L253.050986,53.6749329 L276.881021,58.2483108 Z" id="Path-17" fill="#9E6200"></path>
            <g id="leaf-top-copy" transform="translate(139.500000, 108.000000) scale(-1, 1) translate(-139.500000, -108.000000) translate(33.000000, 48.000000)" fill="#9E6200">
                <path d="M123.212975,41.8994164 C122.285471,39.433661 121.646597,36.0149525 121.646647,35.6315961 C121.647034,32.7163458 125.257853,28.086329 122.791843,27.4258757 C120.265381,26.7501149 123.132102,37.9066445 121.015022,35.4659964 L118.226459,37.1570228 C117.930398,36.8154721 110.733562,11.9945841 113.428956,12.5726415 L113.798236,14.1020521 C115.721388,15.7870682 129.868626,25.0981363 130.686399,32.9341767 C131.996106,33.0469757 134.085138,33.3131534 136.189278,34.6125478 C138.24136,35.8785278 140.32296,37.3743636 142.434081,39.0991568 C141.112493,39.5100394 139.532257,39.3691858 137.693373,38.6754657 C135.854488,37.9817456 134.935046,38.1510006 134.935046,39.1832305 C136.234378,39.0514006 137.897081,39.6776951 139.923157,41.0601811 C141.949233,42.441097 143.902799,43.4722259 145.783854,44.154788 C144.752307,44.9773745 143.408345,45.0790262 141.751967,44.4585681 C140.095589,43.83811 138.516876,43.6464364 137.015827,43.8846724 C138.101259,44.2904476 140.105429,45.0396822 143.028339,46.1323762 C145.951248,47.2250702 147.315945,47.1547412 147.122427,45.9211773 C147.067136,47.9688243 146.158237,49.189409 144.395729,49.5845684 C142.633221,49.9820543 140.923778,49.8541144 139.2674,49.1989406 L147.122427,50.5988798 C147.122427,52.260688 147.122427,53.0915922 147.122427,53.0915922 C147.122427,53.0915922 151.784065,54.818384 151.784065,54.818384 C151.784065,54.818384 151.02007,52.80848 152.828146,53.4802055 C154.03353,53.9280224 154.979328,54.8535974 155.665542,56.2561839 C156.591896,54.2217969 158.222737,53.8220302 160.558066,55.0539917 C162.893395,56.2848818 164.185463,58.1609386 164.434271,60.6823896 L168.245815,62.8766303 C166.774989,60.8772772 167.141758,60.0371615 169.346123,60.3593709 C172.652671,60.845293 170.044402,57.3308223 172.652671,58.3040639 C175.260939,59.2773055 171.572394,55.6289207 175.233879,57.0004667 C178.895365,58.3720126 179.620352,56.8999527 180.484855,58.9674155 C181.06119,60.3446494 181.349358,61.4207401 181.349358,62.1963322 C181.860563,60.070147 182.890117,59.8766192 184.438023,61.6128794 C185.985928,63.3468356 186.270347,64.6551432 185.29128,65.5407126 L187.825398,67.2159337 C189.014616,65.0345785 190.174198,63.4585421 191.304143,62.486333 C192.99906,61.0318399 193.967584,61.7783003 193.967584,64.0178745 C193.967584,66.2574486 193.110462,68.2270603 193.967584,69.494935 C194.824707,70.7617558 198.361789,73.2246284 198.852025,73.4058577 C199.178849,73.5266772 201.071384,71.7104923 204.52963,67.9742824 L204.52963,73.4138836 C206.198893,73.8965963 207.838051,74.8185348 209.447104,76.1782715 C211.056157,77.5364024 212.240456,80.1152303 213,83.9133319 L209.447104,80.0587304 C209.638045,80.6751381 209.920941,82.5980582 210.295793,85.8264554 C210.670645,89.053336 210.387749,90.8845382 209.447104,91.3219166 L205.234235,82.2533457 C206.860859,82.3808123 206.860859,84.5055772 205.234235,88.6344112 C203.607611,92.7732645 201.793092,95.2300004 199.790678,96 C199.109385,91.1685482 199.109385,87.7982568 199.790678,85.8936014 C200.471972,83.9908503 200.159088,81.6051748 198.852025,78.7320946 L195.543369,76.1572586 C197.102754,79.1076002 197.702752,81.2858832 197.343362,82.696256 C196.983973,84.1073477 194.9709,83.0714112 191.304143,79.5802203 C193.884531,76.7812183 193.884531,76.3037013 191.304143,78.1452757 C187.43356,80.9250737 186.768666,79.5051272 185.846881,76.1544114 C185.232358,73.9186109 185.047157,73.1220897 185.29128,73.765911 C186.014979,76.4473714 185.38757,77.4272828 183.409053,76.7073352 C181.430537,75.9873876 180.455804,75.1510302 180.484855,74.1982901 C182.970359,77.8728729 183.258527,79.5449346 181.349358,79.221787 C179.440189,78.8995421 177.613839,77.9307463 175.870308,76.3130709 C177.876235,79.6396558 177.876235,80.9394951 175.870308,80.2176017 C172.861416,79.1347615 172.652671,78.6042594 172.652671,78.0567637 C172.652671,77.509268 173.089842,82.1975233 170.986219,80.8575078 C169.583803,79.9632888 168.413796,79.5437242 167.476197,79.5996903 L167.476197,82.2497799 C163.91065,81.7999492 162.127876,81.5764298 162.127876,81.5764298 C162.127876,81.5764298 162.127876,81.1650301 162.127876,80.3422306 C158.178574,80.0600861 155.503067,78.2176419 154.101354,74.8068113 C152.699642,71.3908291 152.515495,70.7742913 153.548916,72.9592888 L154.636222,79.9603636 L150.05752,79.247268 C150.709997,75.9521698 150.044985,72.9417715 148.062486,70.2101204 C146.079987,67.4734309 143.97648,65.1072477 141.751967,63.1128652 C144.370309,63.3593036 145.024895,65.4622136 143.715724,69.4253259 C141.751967,75.3836557 139.2674,75.4206379 139.2674,75.4206379 C139.2674,75.4206379 140.578914,72.1243627 139.923157,68.0623106 C139.485986,65.352531 138.742724,63.2117987 137.693373,61.6399889 L134.935046,57.5812592 L133.431655,62.6933623 L130.065365,62.7031611 C131.059661,65.7338193 131.059661,67.5387632 130.065365,68.1213428 C129.07107,68.7050825 127.704617,68.6788849 125.966006,68.0418512 C124.165309,67.4861857 123.264961,66.0578099 123.264961,63.7565799 C123.264961,61.4553499 123.953635,60.1250339 125.330983,59.7667274 L126.716647,62.528178 L128.525777,60.1109473 C127.773262,57.120939 126.70833,55.3740867 125.330983,54.872295 C123.953635,54.3705034 123.078355,53.4443711 122.705143,52.0934773 C122.481872,51.1799617 122.668478,50.832339 123.264961,51.0507817 C124.159687,51.3784459 123.854651,50.0199132 126.716647,52.3148497 C128.624644,53.8423515 129.926553,55.3371855 130.622372,56.8000404 C130.319679,53.869629 129.017771,51.4778056 126.716647,49.6232044 C124.415523,47.7657205 123.078355,47.0211842 122.705143,47.391934 C122.534641,45.4888203 122.703918,43.6575772 123.212975,41.8994164 Z M88.4188122,35.2493566 C90.4962192,35.0490212 86.5321727,39.1071909 85.4698025,38.7428718 C84.7615557,38.4999923 83.678426,37.2439003 82.2204133,34.9726297 C81.7653309,34.102614 82.5171273,33.4336896 84.4758027,32.9678087 C86.434478,32.5042013 88.1701927,32.4166414 89.6829466,32.7036984 C86.0939012,31.4592172 83.3788489,30.5177881 81.5377897,29.8794112 C79.6967305,29.2410343 78.9586812,31.4934166 79.3236419,36.635166 L82.2204133,38.6601159 L86.5321727,41.6685755 C89.1748704,43.3909448 90.4962192,44.5679842 90.4962192,45.2013489 C90.4962192,46.1513959 88.4255058,46.8217968 87.3110211,52.6944018 C86.5680313,56.6134116 85.304853,55.591375 83.5214863,49.6186217 C82.1725662,55.2669783 81.1216708,58.2089206 80.3687999,58.4384541 C79.6159291,58.6683541 78.7124523,57.1330486 77.6583694,53.8298984 C78.9202727,58.6594944 79.233597,61.3711591 78.5983423,61.9695117 C77.6454603,62.8680163 74.9168614,59.5401468 73.8277168,59.1800965 C72.7385722,58.8200463 74.9168614,60.7547467 74.9168614,64.4974779 C74.9168614,66.9926321 72.7986552,69.4177288 68.5622429,71.7847661 C67.9614124,67.4024002 67.6609972,64.1791849 67.6609972,62.1170224 C67.6609972,60.0548599 67.9614124,58.0915203 68.5622429,56.2279406 L64.4762772,64.1704089 L63.5774221,68.5733794 C62.4436535,66.3590349 60.9183092,64.0093329 59.0013892,61.5231669 C56.1260091,57.7872047 55.7095715,61.3079524 54.3933225,61.5740851 C53.5158232,61.7520163 52.0676147,62.6223054 50.048697,64.1880084 L55.7095715,65.2205966 C53.8525752,66.224915 51.965617,67.1473031 50.048697,67.9876167 C47.1733169,69.2533277 38.4090018,62.0347719 38.4090018,62.0347719 C38.4090018,62.0347719 40.5493606,63.9231811 44.8300783,67.6923613 C48.0136827,70.2307964 50.007101,71.6268991 50.8103332,71.8842789 C52.0151815,72.2703485 44.8300783,70.4101669 40.6934324,67.9314474 C37.9356686,66.2763303 36.444111,65.2730934 36.2187597,64.9232726 L36.2187597,70.5433739 L32.4048412,65.2726033 C31.7765988,63.721738 31.7765988,61.9947791 32.4048412,60.0933378 C33.0330835,58.1932054 31.5561881,56.901642 27.974155,56.2189418 C27.3162696,56.5479631 26.6950396,57.8991712 26.110465,60.2734113 C25.5258905,62.6491307 26.3549409,66.1033622 28.5976162,70.6286638 C25.5191969,64.8727131 23.592874,61.0640374 22.8186474,59.2126079 C22.0444208,57.3599555 22.8385688,56.0608794 25.2010914,55.3189315 C24.387022,55.5980475 23.592874,54.670838 22.8186474,52.5358979 C22.0444208,50.3995204 19.6901855,49.2101437 15.7559414,48.9718803 L21.6816913,56.6260274 C19.4479408,57.2064111 16.9851735,55.86598 14.2933894,52.5978335 C11.6016054,49.3233494 9.22601426,46.3892772 7.16661616,43.7974699 L8.78646776,47.9677923 C4.55611152,45.2672779 1.83070005,43.7157199 0.61023335,43.3172199 C-0.61023335,42.9187198 1.23771275e-16,40.7568795 2.4409334,36.840125 C6.79177447,39.3825912 8.59394702,39.5578239 7.84745107,37.3682906 C7.10095511,35.1773377 5.88973196,32.2204041 4.21378161,28.494665 C9.20688969,30.1639982 13.4968509,32.133961 17.0836651,34.4017257 C20.6704794,36.6657199 20.6704794,39.6344466 17.0836651,43.323632 C18.9967602,44.4431871 20.5294356,44.947305 21.6816913,44.8370936 C23.4100749,44.6728177 20.7259406,43.298918 20.7259406,40.3849609 C20.7259406,38.4423228 21.8106228,36.6804557 23.9799873,35.1030505 C29.4467473,37.7440604 33.5263382,38.5782706 36.2187597,37.6127158 C38.9111813,36.6521441 40.8199734,36.8323138 41.9451359,38.1487002 C37.2086159,34.858142 36.0299046,33.6108219 38.4090018,34.4127348 C40.7880991,35.2146478 42.9284579,35.1403919 44.8300783,34.1922268 C48.4812786,32.6165056 51.6690267,31.8678011 54.3933225,31.9401796 C58.4797663,32.0531223 62.6752202,34.7643146 61.8767692,34.4920421 C61.0783181,34.2197695 58.6896586,33.1656329 57.4695106,30.81787 C56.6560786,29.2513817 56.0694323,28.1313618 55.7095715,27.4584494 C57.2535623,27.4119334 59.3092948,28.4775411 61.8767692,30.6521018 C65.7279807,33.9076901 65.7647955,32.8637253 67.6609972,30.7026823 C68.9251317,29.264971 70.9807049,28.7932699 73.8277168,29.286846 C73.1223387,27.6825349 71.7004264,27.190013 69.5619801,27.8122131 C67.4235337,28.4373536 66.1578055,28.9364039 65.7647955,29.307309 L65.7647955,26.4995551 C65.7424835,25.1151377 67.0082117,24.1896167 69.5619801,23.7256246 C72.1157485,23.2651115 74.1812027,23.5980584 75.7583428,24.7211697 L68.5622429,22.214477 C69.6513875,20.9539175 71.0538564,20.6242181 72.7696496,21.2240275 C74.4854428,21.8238368 77.018493,23.526273 80.3687999,26.3271785 C82.0084136,25.318595 82.8282204,24.228181 82.8282204,23.0539642 C82.8282204,21.8797474 80.1911008,20.9540286 74.9168614,20.2815252 L74.9168614,18.2738599 L80.3687999,17.6017779 C82.3515166,17.5289445 84.1520414,17.4590869 85.7703744,17.3918287 C84.4562118,15.5520053 83.5398978,14.0800616 84.9091931,13.5040769 C85.9919644,13.0496636 87.4382215,12.530875 89.2479644,11.9487152 C92.2663847,13.4569673 95.0791025,13.5816701 97.6861179,12.3281899 C100.293133,11.0805403 102.682832,6.96827515 104.855215,0 L104.855215,14.898959 L110.811016,6.93071957 C110.362983,18.4329681 111.472446,26.7411294 114.139406,31.8425818 C116.806366,36.9325889 118.097642,40.20001 118.013234,41.6535261 L115.9539,43.5101099 C117.32679,46.27881 118.013234,47.6619392 118.013234,47.6619392 C118.013234,47.6619392 116.721958,47.5179078 114.139406,47.2310471 C117.355019,50.7088811 118.962825,53.6802284 118.962825,56.1510053 C118.962825,58.6217822 118.339407,59.9950895 117.092571,60.2716015 L115.9539,63.3117099 C118.215668,63.3188771 118.595225,64.1570563 117.092571,65.8274615 C115.589917,67.5012446 113.929845,67.4005233 112.112354,65.5209738 L110.107942,70.3647653 C114.950926,74.4356781 116.899578,76.5948524 115.9539,76.8519599 C115.008222,77.1096225 114.535383,77.8397521 114.535383,79.0419324 C117.36571,80.0051353 118.218105,80.9690386 117.092571,81.9348873 C115.40427,83.3865698 112.926948,85.3096515 112.926948,85.3096515 C112.926948,85.3096515 117.372417,85.946226 115.9539,88.2061392 C115.008222,89.7149622 113.293928,90.5910165 110.811016,90.8349715 C115.449269,94.3969029 117.163563,96.9286188 115.9539,98.4393512 C114.744238,99.9524528 113.463722,99.760875 112.112354,97.8613025 C112.655417,101.080912 112.926948,103.730796 112.926948,105.812236 C112.926948,107.893676 111.987279,112.391526 110.107942,119.316683 C106.807362,114.148703 105.584563,110.531896 106.439544,108.478376 C107.722016,105.401917 108.429702,97.336138 108.429702,96.6932945 C108.429702,96.2647322 108.204847,95.203109 107.755136,93.5078865 C107.99746,97.1849725 107.558929,98.8463633 106.439544,98.4927321 C105.320158,98.1391008 105.082586,96.6922676 105.726827,94.1535943 C105.104107,98.5982584 104.107701,99.8650892 102.737606,97.950295 C100.682465,95.0741936 104.3081,90.448387 103.522853,90.1973436 C102.737606,89.9463001 99.5253477,95.5616059 99.5253477,93.2233572 C99.5253477,92.2060226 98.6132358,90.362176 99.5253477,88.9193409 C99.8490082,88.407744 100.919761,87.7860545 102.737606,87.0559558 C99.9186,88.5885561 98.5090967,87.9048418 98.5090967,84.9995316 C98.5090967,80.6415664 101.47987,82.0439001 102.108738,82.9922735 C102.737606,83.9401664 97.9808474,80.5926185 96.9947821,78.1377375 C96.0087168,75.6807022 93.0698061,69.6170841 96.2975769,69.076356 C98.4494241,68.7188066 99.5253477,67.6242995 99.5253477,65.7910728 C96.2890522,68.0567004 94.4503814,68.9034193 94.0093351,68.3227951 C93.3477658,67.4514911 92.3327725,64.0274682 94.0093351,60.5738493 C95.1270436,58.2752508 95.8897908,57.7084254 96.2975769,58.8707637 C93.9911678,57.8890698 93.033192,56.5784435 93.4236492,54.9397852 C93.8141065,53.3018323 94.7720824,51.7576905 96.2975769,50.3091285 C93.8419165,48.0514062 93.0791692,46.4055666 94.0093351,45.3752509 C94.9395011,44.346215 95.9346501,43.4971287 96.9947821,42.8278717 C91.5004305,43.6818308 89.5316539,42.7117663 91.088452,39.9101389 C91.6656413,38.8727692 91.9535591,37.6778552 92.1050226,36.4196724 C88.6525828,35.7357647 87.423846,35.3459947 88.4188122,35.2493566 Z M94.0093351,25.8427339 C96.9947821,22.7703537 99.2394223,21.2197384 98.5090967,20.9609678 C97.7787711,20.7021972 92.4602232,26.3770014 91.088452,24.8174611 C90.735081,24.4154759 90.3679388,24.0175548 90.0365541,23.6290023 C89.5298022,24.0686543 88.9905549,24.5300067 88.4188122,25.0131187 C90.186864,25.6327108 91.8271193,26.2075182 93.3395781,26.7375409 C93.5257486,26.4133262 93.7467044,26.1136144 94.0093351,25.8427339 Z M94.0093351,16.740664 C93.8827918,16.8279674 93.7577246,16.9130413 93.6341337,16.995885 C93.6482696,16.9949056 93.6623542,16.9939265 93.6763874,16.9929477 C93.7855512,16.9100147 93.8965338,16.8259199 94.0093351,16.740664 Z" id="Combined-Shape"></path>
            </g>
            <g id="leaf-top" transform="translate(29.000000, 46.000000)" fill="#F5C623">
                <path d="M207.059848,45.9601007 C202.442278,50.5544191 201.649066,49.2625659 200.549385,45.9601007 C199.816264,43.7584571 199.595322,42.9609955 199.886558,43.5677157 C200.749924,46.2137462 200.001431,47.5367615 197.641079,47.5367615 C195.280727,47.5367615 194.11788,47.0112079 194.152537,45.9601007 C197.117721,48.9850052 197.461502,50.6983448 195.183881,51.1001194 C192.90626,51.501894 190.727442,51.1659223 188.647425,50.0922044 C191.040478,52.9240484 191.040478,54.3399704 188.647425,54.3399704 C185.057846,54.3399704 184.808814,53.845579 184.808814,53.2511787 C184.808814,52.6567785 185.330355,57.5767778 182.820752,56.9401999 C181.147683,56.5158146 179.751875,56.5158146 178.633328,56.9401999 L178.633328,59.8078442 C174.379664,60.6951688 172.252831,61.1388312 172.252831,61.1388312 C172.252831,61.1388312 172.252831,60.6951688 172.252831,59.8078442 C167.541351,61.0195703 164.349496,60.0636889 162.677265,56.9401999 C161.005035,53.8167108 160.78535,53.2269487 162.018211,55.1709133 L163.315357,62.2658871 L157.853008,63.2433647 C158.631407,59.4676692 157.838054,56.4998711 155.472951,54.3399704 C153.107848,52.1800697 150.598384,50.4673099 147.94456,49.201691 C151.068218,48.45119 151.849133,50.4409308 150.287304,55.1709133 C147.94456,62.2658871 144.980495,63.2433647 144.980495,63.2433647 C144.980495,63.2433647 146.545119,59.2417073 145.762807,55.1709133 C145.241266,52.4570507 144.354561,50.4673099 143.102694,49.201691 L139.812037,45.9601007 L138.018505,51.9554122 L134.002552,53.2511787 C135.188738,56.0772252 135.188738,57.9860892 134.002552,58.9777709 C132.816367,59.9694526 131.186201,60.4560173 129.112054,60.4374649 C126.96384,60.5279327 125.889733,59.3621777 125.889733,56.9401999 C125.889733,54.518222 126.711315,52.8566261 128.354478,51.9554122 L130.007562,54.3399704 L132.165838,51.1001194 C131.268094,48.2317504 129.99764,46.7975659 128.354478,46.7975659 C126.711315,46.7975659 125.667114,46.158524 125.221875,44.8804402 C124.955515,44.0052905 125.178134,43.5677157 125.889733,43.5677157 C126.957132,43.5677157 126.593227,42.2549912 130.007562,43.5677157 C132.283786,44.4428654 133.83695,45.5194821 134.667056,46.7975659 C134.305946,43.8164333 132.752782,41.7935012 130.007562,40.7287696 C127.262343,39.6640379 125.667114,39.399087 125.221875,39.9339168 C125.011694,37.9334505 125.234313,35.8726889 125.889733,33.7516322 C126.872864,30.5700472 132.520939,21.8823242 133.261746,21.8823242 C134.002552,21.8823242 137.636153,20.3291437 141.308324,21.1057339 C143.756438,21.6234607 146.239768,22.3751213 148.758316,23.3607155 C147.181673,24.3297865 145.296466,24.814322 143.102694,24.814322 C140.908923,24.814322 139.812037,25.3614717 139.812037,26.4557712 C141.362127,25.7971623 143.345717,25.7971623 145.762807,26.4557712 C148.179897,27.11438 150.510482,27.4307847 152.754563,27.4049853 C151.523938,28.6958239 149.920604,29.3412431 147.94456,29.3412431 C145.968517,29.3412431 144.085126,29.7659183 142.294389,30.6152686 C143.589299,30.6152686 145.980256,30.6152686 149.46726,30.6152686 C152.954264,30.6152686 154.582334,29.9950689 154.351469,28.7546696 C154.285508,30.9641399 153.2012,32.6297941 151.098544,33.7516322 C148.995888,34.8734703 146.956538,35.4127933 144.980495,35.3696011 L154.351469,33.7516322 C154.351469,35.5268613 154.351469,36.4144759 154.351469,36.4144759 C154.351469,36.4144759 159.912761,36.4144759 159.912761,36.4144759 C159.912761,36.4144759 159.001321,34.5651823 161.158339,34.5651823 C162.596351,34.5651823 163.72468,35.1816135 164.543327,36.4144759 C165.648458,33.8594678 167.594036,32.7769086 170.380062,33.166798 C173.166088,33.5566875 174.707514,35.0633422 175.004339,37.686762 L179.551476,38.536837 C177.796794,36.9616256 178.234346,35.9058803 180.864133,35.3696011 C184.808814,34.5651823 181.697174,31.8062432 184.808814,31.8062432 C187.920454,31.8062432 183.520053,29.3412431 187.888172,29.3412431 C192.25629,29.3412431 193.121194,27.439771 194.152537,29.3412431 C194.8401,30.6088912 195.183881,31.6660859 195.183881,32.5128273 C195.793744,29.982749 197.021993,29.3502294 198.86863,30.6152686 C200.715266,31.8803077 201.054576,33.1969456 199.886558,34.5651823 L202.909737,35.3696011 C204.328463,32.4922458 205.711834,30.2872686 207.059848,28.7546696 C209.081868,26.4557712 210.237309,26.876243 210.237309,29.3412431 C210.237309,31.8062432 209.214769,34.3247263 210.237309,35.3696011 C211.259849,36.4144759 215.479554,37.686762 216.064402,37.686762 C216.4543,37.686762 218.712076,34.9049224 222.837731,29.3412431 L222.837731,35.3696011 C224.829147,35.2179935 226.784648,35.5662851 228.704233,36.4144759 C230.623818,37.2626666 232.036676,39.6470799 232.942805,43.5677157 L228.704233,40.7287696 C228.932023,41.3360695 229.269516,43.3590016 229.716711,46.7975659 C230.163906,50.2361301 229.826413,52.3873344 228.704233,53.2511787 L223.678318,44.8804402 C225.618866,44.3621336 225.618866,46.7204576 223.678318,51.9554122 C221.737771,57.1903668 219.573067,60.6271918 217.184206,62.2658871 C216.371429,57.1976139 216.371429,53.4756913 217.184206,51.1001194 C217.996983,48.7245475 217.623715,46.2137462 216.064402,43.5677157 L212.117206,42.0658267 C213.977537,44.6883885 214.693329,46.8497444 214.264581,48.5498944 C213.835832,50.2500444 211.434255,49.9123334 207.059848,47.5367615 C210.138227,43.4227754 210.138227,42.8972217 207.059848,45.9601007 Z" id="Path-23"></path>
                <path d="M115.58056,4.46126317 C115.132526,15.4161427 116.241989,22.8498421 118.90895,26.7623612 C121.57591,30.6748803 122.867186,33.330187 122.782778,34.7282814 L120.723444,37.1502342 C122.096333,39.3121641 122.782778,40.393129 122.782778,40.393129 C122.782778,40.393129 121.491502,40.6760525 118.90895,41.2418995 C122.124562,43.4783287 123.732369,45.7618635 123.732369,48.092504 C123.732369,50.4231444 123.108951,51.9171892 121.862115,52.5746385 L120.723444,55.7997057 C122.985212,55.0906576 123.364769,55.7608617 121.862115,57.8103179 C120.35946,59.859774 118.699388,60.2857537 116.881898,59.0882567 L114.877485,64.2648004 C119.720469,66.5879039 121.669122,68.0170155 120.723444,68.5521352 C119.777766,69.0872548 119.304927,69.9205167 119.304927,71.0519209 C122.135253,71.0867066 122.987649,71.7325607 121.862115,72.9894832 C120.173813,74.8748669 117.696492,77.4407455 117.696492,77.4407455 C117.696492,77.4407455 122.141961,76.684157 120.723444,79.2456873 C119.777766,80.9533742 118.063471,82.2962463 115.58056,83.2743036 C120.218812,85.2280992 121.933107,87.0978294 120.723444,88.8834942 C119.513781,90.6691589 118.233266,90.8701912 116.881898,89.4865908 C117.42496,92.3517712 117.696492,94.7629984 117.696492,96.7202725 C117.696492,98.6775467 116.756823,103.180698 114.877485,110.229725 C111.576905,106.33141 110.354106,103.295925 111.209087,101.12327 C112.491559,97.8642865 113.199246,90.0896875 113.199246,89.4865908 C113.199246,89.0845264 112.97439,88.1556038 112.52468,86.6998232 C112.767003,90.076353 112.328473,91.7646179 111.209087,91.7646179 C110.089702,91.7646179 109.85213,90.4798669 110.49637,87.9103648 C109.873651,92.2585745 108.877244,93.7388501 107.50715,92.3511914 C105.452009,90.2697034 109.077643,84.8640091 108.292397,84.8640091 C107.50715,84.8640091 104.294891,91.0671651 104.294891,88.8834942 C104.294891,87.9334138 103.382779,86.4830293 104.294891,84.8640091 C104.618552,84.2895041 105.689305,83.3882652 107.50715,82.1602923 C104.688143,84.4375947 103.27864,84.2203291 103.27864,81.5084957 C103.27864,77.4407455 106.249413,77.8525209 106.878282,78.5491041 C107.50715,79.2456873 102.750391,77.5546686 101.764326,75.5627537 C100.77826,73.5708388 97.8393495,68.8182456 101.06712,67.3255052 C103.218968,66.3303449 104.294891,64.9767472 104.294891,63.2647121 C101.058596,66.3774505 99.2199248,67.7310482 98.7788786,67.3255052 C98.1173092,66.7171906 97.102316,63.8425892 98.7788786,60.1092163 C99.896587,57.6203011 100.659334,56.8540016 101.06712,57.8103179 C98.7607113,57.6146484 97.8027354,56.6931178 98.1931927,55.0457261 C98.58365,53.3983344 99.5416258,51.6590505 101.06712,49.8278745 C98.6114599,48.500511 97.8487127,47.2096724 98.7788786,45.9553589 C99.7090445,44.7010453 100.704194,43.5925417 101.764326,42.6298481 C96.269974,45.1761597 94.3011973,44.8994686 95.8579954,41.7997749 C98.1931927,37.1502342 95.7934316,31.6084409 98.7788786,27.7654932 C101.764326,23.9225454 104.008966,21.7345263 103.27864,21.7345263 C102.548315,21.7345263 97.2297666,28.7686251 95.8579954,27.7654932 C94.4862243,26.7623612 92.9069266,25.8853273 94.0175079,24.4765073 C94.7578954,23.537294 96.3450189,21.808156 98.7788786,19.2890931 C94.8994606,23.066238 92.4074655,24.4180964 91.3028935,23.3446683 C89.6460354,21.7345263 88.0545796,20.4570223 89.6787366,19.2890931 C90.7615078,18.5104737 92.2077649,17.5509688 94.0175079,16.4105783 C97.0359282,16.8106136 99.848646,15.991121 102.455661,13.9521005 C105.062677,11.91308 107.452376,7.26237987 109.624759,0 L109.624759,13.9521005 L115.58056,4.46126317 Z" id="Path-22"></path>
                <path d="M95.7215945,17.3013085 C93.4633008,18.2524005 88.5490816,20.0927653 80.9789369,22.8224027 L75.5269983,25.2160008 L75.5269983,27.0676054 C80.8012377,25.9803125 83.4383574,25.9803125 83.4383574,27.0676054 C83.4383574,28.1548983 82.6185505,29.4296327 80.9789369,30.8918086 C77.6286299,29.3833509 75.0955798,28.629122 73.3797866,28.629122 C71.6639933,28.629122 70.2615244,29.3833509 69.1723798,30.8918086 L76.3684797,30.8918086 C74.7913396,30.3628732 72.7258854,30.7194087 70.172117,31.9614152 C67.6183486,33.2034217 66.3526204,34.4563375 66.3749324,35.7201626 L66.3749324,38.2977311 C66.7679425,37.8329291 68.0336707,36.9737396 70.172117,35.7201626 C72.3105634,34.4665857 73.7324756,34.4665857 74.4378537,35.7201626 C71.5908418,36.1717413 69.5352686,37.258373 68.2711342,38.9800578 C66.3749324,41.5625851 66.3381176,42.5325204 62.4869061,40.7562891 C59.9194318,39.5721349 57.8636992,39.2436991 56.3197084,39.7709816 C56.6795692,40.2728091 57.2662156,41.1123288 58.0796475,42.2895407 C59.2997955,44.0553586 61.6884551,44.2745362 62.4869061,44.2745362 C63.2853572,44.2745362 59.0899033,43.1032748 55.0034595,44.2745362 C52.2791636,45.0553772 49.0914155,46.7248296 45.4402152,49.2828936 C43.5385948,50.7272179 41.398236,51.4493801 39.0191388,51.4493801 C36.6400415,51.4493801 37.8187529,52.2186506 42.5552729,53.7571915 C41.4301103,52.9062666 39.5213183,53.3244562 36.8288967,55.0117602 C34.1364751,56.6990643 30.0568843,57.1760979 24.5901242,56.4428612 C22.4207598,58.5109987 21.3360776,60.4169845 21.3360776,62.1608185 C21.3360776,64.7765695 24.0202118,65.2159165 22.2918283,65.874937 C21.1395725,66.314284 19.6068971,66.314284 17.693802,65.874937 C21.2806163,61.5036162 21.2806163,58.8387734 17.693802,57.8804085 C14.1069878,56.9220436 9.81702662,56.4428612 4.82391854,56.4428612 C6.49986889,59.26374 7.71109205,61.5409723 8.457588,63.2745582 C9.20408396,65.0081441 7.4019114,65.3815394 3.05107033,64.3947442 C0.610136933,68.5908551 -9.64170928e-05,70.6889106 1.22037028,70.6889106 C2.44083698,70.6889106 5.16624845,71.2781777 9.39660469,72.456712 L7.77675309,69.208222 C9.8361512,70.9199893 12.2117423,72.849116 14.9035264,74.9956021 C17.5953105,77.1420882 20.0580778,77.6310229 22.2918283,76.4624061 L16.3660783,71.324129 C20.3003224,70.3865909 22.6545577,70.7641186 23.4287843,72.456712 C24.2030109,74.1493054 24.9971589,74.7513 25.8112284,74.2626959 C23.4487057,75.6184235 22.6545577,77.0163007 23.4287843,78.4563274 C24.2030109,79.8963542 26.1293338,82.7661595 29.2077531,87.0657434 C26.9650778,83.633283 26.1360274,80.7634777 26.720602,78.4563274 C27.3051765,76.1491772 27.9264065,74.7513 28.5842919,74.2626959 C32.166325,73.82963 33.6432204,74.5628668 33.0149781,76.4624061 C32.3867358,78.3619455 32.3867358,79.9206521 33.0149781,81.138526 L36.8288967,84.7995856 L36.8288967,79.7158549 C37.0542479,79.9667687 38.5458055,80.4409924 41.3035694,81.138526 C45.4402152,82.1848264 52.6253184,81.783166 51.4204701,81.783166 C50.6172379,81.783166 48.6238196,81.0940623 45.4402152,79.7158549 C41.1594976,77.5468891 39.0191388,76.4624061 39.0191388,76.4624061 C39.0191388,76.4624061 47.7834539,80.4502487 50.6588339,78.4563274 C52.5757539,77.1270466 54.4627121,75.7291694 56.3197084,74.2626959 L50.6588339,74.9956021 C52.6777516,72.9714323 54.1259602,71.7476079 55.0034595,71.324129 C56.3197084,70.6889106 56.7361461,67.3481875 59.6115261,69.9024497 C61.5284461,71.6052912 63.0537904,73.3030087 64.187559,74.9956021 L65.0864141,70.6889106 L69.1723798,62.1608185 C68.5715494,64.0563909 68.2711342,65.9516326 68.2711342,67.8465438 C68.2711342,69.741455 68.5715494,72.6134091 69.1723798,76.4624061 C73.4087922,73.0196976 75.5269983,70.1477435 75.5269983,67.8465438 C75.5269983,64.3947442 73.3487091,63.2745582 74.4378537,63.2745582 C75.5269983,63.2745582 78.2555972,65.5149303 79.2084792,64.3947442 C79.8437339,63.6479535 79.5304096,61.2376609 78.2685063,57.1638663 C79.3225892,59.890859 80.2260661,61.0325331 80.9789369,60.5888885 C81.7318077,60.1452439 82.7827032,57.0987411 84.1316233,51.4493801 C85.91499,56.4296378 87.1781682,56.9860117 87.921158,53.118502 C89.0356427,47.3172373 91.1063562,46.04085 91.1063562,45.1576931 C91.1063562,44.5689219 89.7850073,43.893868 87.1423096,43.1325316 L82.8305502,41.7111898 L79.9337788,40.7562891 C79.5688181,36.1201701 80.3068674,33.8021105 82.1479266,33.8021105 C83.9889858,33.8021105 86.7040381,33.8021105 90.2930836,33.8021105 C88.7803296,34.0226105 87.0446149,34.6619612 85.0859396,35.7201626 C83.1272643,36.7783641 82.3754678,37.6375536 82.8305502,38.2977311 C84.2885629,39.9367698 85.3716926,40.7562891 86.0799394,40.7562891 C87.1423096,40.7562891 91.1063562,35.7201626 89.0289491,36.573071 C87.644011,37.1416766 90.5675212,36.8573738 97.7994797,35.7201626 L95.0947865,30.8918086 C96.9144899,28.3423398 96.9144899,27.0676054 95.0947865,27.0676054 C93.2750831,27.0676054 91.2531373,27.0676054 89.0289491,27.0676054 C95.7490064,19.6056488 97.9798882,16.3502165 95.7215945,17.3013085 Z" id="Path-24"></path>
                <path d="M114.596017,8.53439545 C117.36682,9.72500868 141.407419,15.4068503 133.020433,27.0046799 C132.500067,27.7242605 130.943625,25.4107037 130.535676,26.204462 C129.112968,28.9726675 130.672506,33.0455933 128.695582,35.4196694 C126.276255,38.325025 123.958994,28.681678 123.9591,27.9788428 C123.959561,24.9135445 128.267234,18.5993579 125.325308,18.8927712 C122.311262,19.1933773 125.731234,29.7862344 123.205576,28.0539956 L119.878846,30.9263826 C119.525649,30.6841396 110.93989,7.57152489 114.15547,7.08391236 L114.596017,8.53439545 Z" id="Path-21"></path>
            </g>
            <rect id="Rectangle-2" fill="#F5A623" x="12" y="346" width="32" height="150"></rect>
            <path d="M49.3128329,132.067084 L49.3128329,321.027442 C48.2454847,338.616872 46.8532576,347.411587 45.1361515,347.411587 C43.4190454,347.411587 31.8718185,353.617399 10.4944709,366.029022 L10.4944709,321.027442 L10.4944709,317.283154 L7.61964267,314.5322 C11.452747,312.637462 12.4110231,310.882181 10.4944709,309.266356 C8.57791876,307.650531 5.96135759,306.44918 2.64478742,305.662303 L0.977153307,279.098189 L7.61964267,279.098189 L10.4944709,275.49063 L10.4944709,233.650192 L7.61964267,228.098034 L10.4944709,228.098034 L4.52511209,221.821326 L2.64478742,204.460168 L13.656782,201.674155 L7.61964267,190.941463 L13.656782,186.917872 C13.412928,181.802392 15.5978754,179.244652 20.2116242,179.244652 C24.825373,179.244652 23.5110544,175.836539 16.2686687,169.020313 L20.2116242,163.458806 C14.1004716,160.42894 11.9155243,157.925346 13.656782,155.948025 C15.3980398,153.970704 15.3980398,149.782726 13.656782,143.384091 L16.2686687,136.428409 L23.5281943,124.07249 L49.3128329,132.067084 Z" id="Path-30" fill="#F5A623"></path>
            <polygon id="Path-29" fill="#9E6200" points="257.177983 829.691371 205.327515 808.310306 205.327515 811.85039 145.14383 783.229907 144.140494 781.434819 141.824299 781.434819 125.705138 774.070545 130.122207 748.706043 147.825622 754.741009 149.312681 758.959205 153.121917 757.64485 215.236014 786.798402 213.8297 789.198707 257.177983 809.66279"></polygon>
            <ellipse id="Oval" fill="#9E6200" cx="136.5" cy="39" rx="14.5" ry="24"></ellipse>
            <ellipse id="Oval-Copy" fill="#F5A623" cx="136.5" cy="39.5" rx="11.5" ry="19.5"></ellipse>
            <path d="M289.396254,799.672225 L289.396254,802.677568 C288.502251,806.533159 284.414293,808.460954 277.13238,808.460954 C269.850468,808.460954 264.252008,806.533159 260.337001,802.677568 L260.337001,797.082793 C264.427032,796.860329 266.472047,795.824234 266.472047,793.974508 C266.472047,792.124783 265.112849,789.658098 262.394453,786.574455 L260.337001,782.441589 L266.472047,777.790561 C262.382017,771.413246 260.337001,765.307217 260.337001,759.472475 C260.337001,750.720363 264.451904,717.008009 262.394453,696.065948 C261.022818,682.104573 259.223067,669.896891 256.995198,659.442902 L260.337001,661.046443 L260.337001,565.070283 L261.372636,362.632425 L255.966472,356.922272 L256.995198,350.906058 C261.966335,346.479798 263.766087,343.257517 262.394453,341.239216 C261.022818,339.220915 258.880158,336.07348 255.966472,331.79691 L251.699575,331.79691 L251.699575,304.051027 L256.995198,302.855108 L261.372636,296.923873 L261.372636,233.586434 L253.446129,226.277577 L253.446129,199.577 L260.337001,197.889863 L261.372636,193.663728 L264.342053,191.9759 L264.342053,187.500356 C263.899888,187.37047 262.56487,186.131716 260.337001,183.784094 C258.109132,181.436471 256.995198,179.019991 256.995198,176.534653 L256.995198,174.320371 L260.337001,172.690577 L266.472047,164.212745 C265.052051,162.870588 264.342053,161.388873 264.342053,159.7676 C264.342053,157.33569 264.642588,154.573538 268.65593,154.573538 C272.669273,154.573538 275.727814,157.559536 275.727814,159.7676 C275.727814,161.239642 274.767256,162.721357 272.846139,164.212745 L278.936277,171.10569 L284.384585,174.320371 L284.384585,176.534653 C284.810169,180.474992 284.008514,182.891472 281.979619,183.784094 C279.950724,184.676715 277.866789,185.915469 275.727814,187.500356 L275.727814,191.9759 L280.255865,193.663728 L281.979619,197.889863 L290.295784,200.907642 L290.295784,226.277577 L284.384585,226.277577 C284.384585,228.574995 284.384585,229.723704 284.384585,229.723704 C284.384585,229.723704 282.568482,231.01128 278.936277,233.586434 L277.13238,296.923873 L284.384585,304.051027 L290.295784,305.602752 L289.396254,333.134461 C286.055141,332.242761 284.384585,331.79691 284.384585,331.79691 C284.384585,331.79691 282.568482,333.969509 278.936277,338.314706 C276.531081,342.390919 275.929782,345.211336 277.13238,346.775956 C278.334978,348.340577 280.268301,349.717278 282.932348,350.906058 L282.932348,358.145827 L278.936277,362.632425 L282.932348,659.442902 L288.1499,661.046443 C287.139368,683.543914 286.634102,696.526997 286.634102,699.995693 C286.634102,705.198737 293.037901,750.201509 293.037901,762.162085 C293.037901,770.135802 290.903301,776.050456 286.634102,779.906047 L292.128007,784.915643 C286.965726,786.355905 284.384585,788.436386 284.384585,791.157085 C284.384585,793.877785 285.63969,795.853021 288.1499,797.082793 L289.396254,799.672225 Z" id="Path-25" fill="#F5C623"></path>
            <polygon id="Path-26" fill="#F5C623" points="255.647284 809.471717 272.196017 816.672796 270.696109 847.003965 253.537326 840.613983"></polygon>
            <path d="M290.311374,305.477859 L273,303 L273.920481,330.263322 L289.088159,333.042197 L290.311374,306.465123 L287.95456,308.207628 L286.377295,328.596439 L277.03892,326.987009 L277.03892,306.465123 C284.818853,308.134871 288.835266,308.969744 289.088159,308.969744 C289.341052,308.969744 289.74879,307.805782 290.311374,305.477859 Z" id="Path-27" fill="#9E6200"></path>
            <path d="M291.311374,199.477859 L274,197 L274.920481,224.263322 L290.088159,227.042197 L291.311374,200.465123 L288.95456,202.207628 L287.377295,222.596439 L278.03892,220.987009 L278.03892,200.465123 C285.818853,202.134871 289.835266,202.969744 290.088159,202.969744 C290.341052,202.969744 290.74879,201.805782 291.311374,199.477859 Z" id="Path-27-Copy" fill="#9E6200"></path>
            <path d="M272.952786,303 C272.591697,303 265.607435,303.287185 252,303.861554 C252,323.086485 252,332.69895 252,332.69895 C252,332.69895 259.528514,331.868496 274.585541,330.207587 L273.517498,304.378143 C271.15962,305.572387 269.980681,306.169508 269.980681,306.169508 C269.980681,306.169508 269.980681,312.979201 269.980681,326.598585 L254.739345,328.031235 L254.739345,306.169508 L269.21611,305.385786 L271.737918,308.201245 C272.908918,304.733748 273.313874,303 272.952786,303 Z" id="Path-28" fill="#F5A623"></path>
            <path d="M272.952786,197 C272.591697,197 265.607435,197.287185 252,197.861554 C252,217.086485 252,226.69895 252,226.69895 C252,226.69895 259.528514,225.868496 274.585541,224.207587 L273.517498,198.378143 C271.15962,199.572387 269.980681,200.169508 269.980681,200.169508 C269.980681,200.169508 269.980681,206.979201 269.980681,220.598585 L254.739345,222.031235 L254.739345,200.169508 L269.21611,199.385786 L271.737918,202.201245 C272.908918,198.733748 273.313874,197 272.952786,197 Z" id="Path-28-Copy" fill="#F5A623"></path>
            <path d="M15.7837171,279.007126 L2,279.007126 C2.59465548,296.186451 2.89198321,304.776114 2.89198321,304.776114 C2.89198321,304.776114 15.7837171,306.688436 15.7837171,305.732275 C15.7837171,304.776114 16.2703536,278.504311 15.7837171,279.007126 C15.4592928,279.342335 14.0746108,280.868565 11.6296711,283.585814 C12.154151,295.954655 12.4163909,302.139076 12.4163909,302.139076 C12.4163909,302.139076 9.97732984,301.938845 5.09920766,301.538383 L6.10692549,283.585814 L14.1931928,283.585814 L15.7837171,279.007126 Z" id="Path-31" fill="#9E6200"></path>
            <path d="M16.7682683,205.005278 L2,205.005278 C2.63713087,217.730705 2.9556963,224.093418 2.9556963,224.093418 C2.9556963,224.093418 16.7682683,225.509952 16.7682683,224.801685 C16.7682683,224.093418 17.2896646,204.632823 16.7682683,205.005278 C16.4206708,205.253582 14.937083,206.384122 12.3175048,208.396899 C12.8794475,217.559004 13.1604188,222.140056 13.1604188,222.140056 C13.1604188,222.140056 10.5471391,221.991737 5.32057964,221.695099 L6.40027731,208.396899 L15.0641352,208.396899 L16.7682683,205.005278 Z" id="Path-31" fill="#9E6200"></path>
            <rect id="Rectangle" fill="#9E6200" x="25" y="127" width="4" height="369"></rect>
            <path d="M35.7137071,132.942759 C33.2569003,128.217834 30.4345888,124.763993 27.2467728,122.581234 C24.0589568,120.398475 22.6434689,120.398475 23.0003092,122.581234 C15.9867289,132.609345 12.4799387,138.974066 12.4799387,141.675398 C12.4799387,145.727397 18.5410892,149.796724 17.1394,151.644142 C15.7377108,153.491561 10.7268645,156.300716 15.0156869,158.821061 C17.8749018,160.501291 19.9578607,162.100012 21.2645636,163.617225 C25.0877607,165.434158 28.4517506,165.434158 31.3565332,163.617225 C35.7137071,160.891825 39.4653436,157.000598 33.3560582,151.644142 C27.2467728,146.287687 42.1387577,147.387089 38.9262324,140.164924 C36.7845489,135.350147 35.7137071,132.942759 35.7137071,132.942759 Z" id="Path-32" fill="#F5C623"></path>
        </g>
        <g id="Real-girl" transform="translate(6.000000, 205.000000)" fill-rule="nonzero">
            <path d="M400.252843,315.327035 C401.381167,336.394412 401.945329,352.726145 401.945329,364.322236 C401.945329,375.918326 399.899184,380.435733 395.806893,377.874457 C399.020307,383.176875 400.846732,388.530454 401.286171,393.935194 C401.72561,399.339935 400.891905,404.199885 398.785058,408.515044 C404.792712,410.77015 408.346917,415.036146 409.447673,421.313031 C410.548428,427.589917 411.876377,433.837225 413.431518,440.054955 L403.509272,453.319392 C404.333578,459.934424 405.678442,464.389877 407.543863,466.685753 C409.409284,468.981629 410.594266,477.645122 411.098806,492.676232 L400.252843,503.674372 C402.295252,520.058066 404.338327,532.928 406.382065,542.284173 C408.425804,551.640346 406.946892,560.709134 401.945329,569.490539 C404.626098,585.031666 405.709748,598.430802 405.196278,609.687947 C404.682809,620.945093 403.37944,631.897666 401.286171,642.545669 L409.447673,681.870133 C406.022362,687.637002 395.969971,692.590881 379.290498,696.731771 C362.611026,700.872661 347.623882,702.580978 334.329068,701.856722 L325.749077,741.332579 C300.977967,747.929449 281.373016,750.930058 266.934224,750.334406 C252.495433,749.738753 232.762899,745.115331 207.736622,736.464138 L195.955047,727.09996 L174.837764,750.334406 C165.130216,744.333188 157.094657,741.332579 150.731088,741.332579 C141.185735,741.332579 158.689863,741.617283 126.735705,754.157206 C105.432933,762.517155 92.9646175,762.517155 89.3307574,754.157206 L61.0932829,761.512926 L39.2150637,754.157206 L17.5050787,754.157206 L0.857651025,741.332579 L13.3302807,719.81671 L17.5050787,671.779357 L39.2150637,642.545669 C40.6782704,633.241683 47.9710101,622.28911 61.0932829,609.687947 C74.2155556,597.086785 83.6280471,583.687649 89.3307574,569.490539 L116.747766,529.644696 L112.924966,520.653221 C124.363171,500.315859 132.216691,484.009214 136.485528,471.733285 C140.754365,459.457356 146.670172,447.050295 154.232949,434.512101 C161.253926,414.884642 168.122197,401.359007 174.837764,393.935194 C181.553331,386.511382 187.188768,377.335124 191.744075,366.406422 C205.634828,350.802495 214.924886,337.875452 219.614249,327.625295 C226.648293,312.250058 240.159098,300.202873 255.085379,285.748418 C265.036232,276.112114 287.350025,262.09826 322.026755,243.706854 L391.631365,299.614178 L400.252843,315.327035 Z" id="Dress-Blue-Bottom" fill="#A8C2DF"></path>
            <path d="M398.785058,109.748316 L405.196278,114.400786 C408.122216,117.186555 409.837455,121.383808 410.341995,126.992547 C410.846536,132.601285 410.548428,143.435623 409.447673,159.495561 C409.986425,158.064646 411.692032,160.380417 414.564492,166.442877 C418.873183,175.536567 423.123083,187.949463 420.998133,197.372482 C418.873183,206.795502 411.578454,227.724639 407.543863,231.862438 C404.854136,234.62097 404.46687,236.372413 406.382065,237.116769 L403.509272,239.748917 L400.252843,241.882336 L401.286171,243.706854 L390.382168,262.518698 L393.524748,266.000883 C386.439926,272.073921 385.392399,279.586679 390.382168,288.539155 C395.371936,297.491631 398.662161,306.420924 400.252843,315.327035 C391.941435,304.839515 382.834735,296.913307 372.932744,291.548412 C370.538463,290.251192 365.205311,298.345835 362.99674,297 C357.753774,293.805098 351.104192,293.213288 343.047995,295.22457 C329.033835,261.869704 322.026755,244.697132 322.026755,243.706854 C322.026755,239.748917 312.560164,208.428853 306.572079,197.372482 C300.583994,186.316112 308.789175,131.868469 311.327642,131.868469 C313.019953,131.868469 313.930302,126.623428 314.05869,116.133345 C321.339881,115.386289 326.224634,112.455839 328.712949,107.341994 C331.201264,102.228149 354.558634,103.030256 398.785058,109.748316 Z" id="Dress-Top" fill="#7EA1CB"></path>
            <path d="M392.101751,19.0536093 L396.401761,22.469368 C397.714549,24.6144951 398.645487,26.378816 399.194572,27.7623307 C399.743658,29.1458454 400.164531,31.2878369 400.45719,34.1883052 L400.45719,36.7015218 C402.443445,37.4777672 404.080947,38.3374556 405.369695,39.2805868 C406.658444,40.2237181 408.340367,41.0680767 410.415465,41.8136625 C411.06942,44.2835027 411.06942,46.1528676 410.415465,47.4217572 C409.76151,48.6906467 410.360243,50.0328755 412.211665,51.4484434 L412.211665,56.0923283 L414.388323,57.8906186 C414.388323,60.434669 414.388323,61.963991 414.388323,62.4785846 C414.388323,63.250475 418.268679,66.1446721 418.268679,68.8632732 C418.268679,71.5818743 419.101192,74.8037458 418.268679,74.8037458 C417.436166,74.8037458 414.581687,79.5788051 411.200943,79.5788051 C408.947114,79.5788051 406.40707,81.3817989 403.580812,84.9877865 C402.340143,90.6622523 401.298936,96.0370901 400.45719,101.1123 C399.194572,108.725115 397.439658,110.376552 395.502877,116.711593 C393.566096,123.046634 393.317335,125.398365 394.410106,126.538171 C395.502877,127.677977 397.185671,127.371729 398.190122,134.433193 C398.859755,139.140836 399.978657,142.653626 401.546826,144.971562 L402.747254,152.57706 L405.369695,155.547035 L404.678286,159.033346 C404.53785,160.758587 404.172026,161.458506 403.580812,161.133102 C402.989598,160.807698 402.311603,159.53326 401.546826,157.309788 C399.934873,158.492688 399.150788,158.89776 399.194572,158.525004 C399.234359,158.186276 397.817054,157.309788 397.515138,157.309788 C396.819739,157.309788 390.54044,148.358559 378.677243,130.456103 C377.484371,128.655969 375.568033,125.752135 372.92823,121.7446 L370.274527,119.745431 L367.904529,115.468312 L345.93309,101.1123 L357.769613,53.2132869 C370.901331,29.5099282 377.837718,17.8908089 378.578775,18.3559291 C379.319832,18.8210492 383.82749,19.0536093 392.101751,19.0536093 Z" id="face" fill="#F3DFDC"></path>
            <path d="M395.520939,12.2044885 C393.824767,8.11990798 390.458599,1.87911877 385.935311,1.87911877 C381.412024,1.87911877 377.252306,1.1776723 368.998797,1.87911877 C360.745287,2.58056525 359.965795,-1.369737 353.711917,1.1728247 C347.458039,3.71538641 344.757446,7.51492857 338.789092,13.8294012 C332.820737,20.1438737 331.081421,22.991349 329.509832,28.7478638 C328.462106,32.5855403 328.052161,35.6120532 328.279998,37.8274025 C326.042996,40.118051 324.924495,43.7716807 324.924495,48.7882915 C324.924495,56.3132077 329.500622,63.4861887 331.890969,68.7865451 C334.281316,74.0869016 339.669899,75.0011574 342.252211,82.8780087 C343.973752,88.1292429 343.973752,93.0196547 342.252211,97.5492441 L344.575719,95.9631081 C344.947454,97.0205321 345.296395,97.5492441 345.622542,97.5492441 C345.948688,97.5492441 346.741174,96.7558273 348,95.1689938 L349.160451,97.5492441 L351.929439,95.9631081 L353.277043,97.920758 C354.377851,97.0053885 354.928255,96.5477038 354.928255,96.5477038 C354.928255,96.5477038 355.803349,97.4718996 357.553537,99.3202913 C355.422017,98.1646395 356.462926,97.0455784 360.676265,95.9631081 C364.889604,94.8806378 367.094992,93.63518 367.292428,92.2267347 C367.497576,91.2688616 368.949468,91.9783972 371.648102,94.3553415 C374.346737,96.7322858 375.869068,97.79692 376.215095,97.5492441 L368.998797,89.9009489 C370.193601,88.5724225 371.076703,87.0698009 371.648102,85.393084 C372.219501,83.7163671 373.062289,82.8780087 374.176466,82.8780087 C375.42398,83.6090208 375.795629,84.7099417 375.291414,86.1807714 C374.787198,87.651601 374.001567,88.8916602 372.934521,89.9009489 C376.485113,87.7500619 378.020726,85.8871881 377.541361,84.3123276 C377.061996,82.737467 376.312014,81.753629 375.291414,81.3608136 C377.012809,80.6955601 378.314995,81.2012918 379.197973,82.8780087 C380.08095,84.5547255 381.263938,85.8399715 382.746936,86.7337464 C379.895597,82.6001016 378.469927,80.0883626 378.469927,79.1985295 C378.469927,78.3086965 377.410423,77.2610174 375.291414,76.0554924 L379.197973,73.9451381 C378.532312,72.2163734 378.532312,70.3266778 379.197973,68.2760513 C379.863634,66.2254248 380.578996,65.2731217 381.344061,65.4191421 L378.469927,63.200815 L384.204312,57.2517701 C382.297478,55.5836759 381.344061,53.6467636 381.344061,51.4410333 C381.344061,48.1324379 380.574112,47.1038683 382.746936,45.3441686 C384.919761,43.5844688 386.428295,41.5980261 387.874616,43.4710974 C388.838831,44.7198115 390.398352,44.2259644 392.553181,41.9895561 L391.416896,37.8274025 L390.049497,37.1680559 C390.604101,35.2944706 390.881402,34.0883457 390.881402,33.5496813 C390.881402,33.011017 390.604101,29.9088553 390.049497,24.2431962 L388.696752,20.7453913 L393.838058,20.7453913 C395.060036,19.7708938 395.957153,18.8846598 396.529409,18.0866893 C397.387792,16.8897336 396.162558,12.6032129 399.009184,14.2976149 C400.906935,15.4272161 401.399668,14.7295073 400.487383,12.2044885 C400.310342,13.5628843 399.673217,13.9024833 398.576007,13.2232854 C396.930193,12.2044885 397.217111,16.289069 395.520939,12.2044885 Z" id="hair" fill="#D6610A"></path>
            <path d="M370.394374,116.871133 L376.127943,116.871133 L374.598786,121.125435 L380.326546,120.232545 L379.6462,125.18838 L384.018051,125.18838 C382.93141,126.655231 382.659749,127.388657 383.20307,127.388657 C383.74639,127.388657 384.901374,127.388657 386.66802,127.388657 C386.66802,129.18264 386.66802,130.079631 386.66802,130.079631 C386.66802,130.079631 387.666272,129.908206 389.662775,129.565356 L386.66802,135.44757 L390.710803,136.378391 L388.322926,139.409026 L390.710803,139.409026 C388.563946,141.620124 388.027232,142.725673 389.100661,142.725673 C390.174089,142.725673 391.704612,142.725673 393.692232,142.725673 L391.149218,145.19146 L393.145152,145.19146 L393.145152,150.088862 L396.063706,150.088862 L396.063706,153.249689 C397.752214,153.249689 398.596468,153.249689 398.596468,153.249689 C398.596468,153.249689 398.596468,154.185977 398.596468,156.058554 L401.583023,155.266126 L401.583023,158.877328 L407.506241,159.959527 L405.933687,162.150578 L410.127848,162.984353 L408.568963,166.176959 L411.555859,165.662 L410.127848,168.04851 L413.448938,168.04851 L411.555859,170.152425 L415.833397,170.827304 L411.555859,173.696652 L415.833397,174.91861 L414.386935,178.785754 L418.878384,178.785754 L415.833397,183.842735 L421.776094,185.907353 L418.878384,189.735542 L422.421928,190.940415 L418.878384,193.209718 L423.557434,195.915044 L419.646209,197.02253 L422.421928,200.436565 L418.070238,202.065843 L421.776094,204.977221 L417.392283,206.131862 L418.878384,209.6303 L415.833397,210.258023 L418.070238,212.859469 L414.386935,214.497632 L417.392283,217.895948 L413.448938,218.445419 L414.386935,220.197713 L409.667222,223.006578 L410.127848,226.539186 C409.797072,229.446919 409.277444,230.900786 408.568963,230.900786 C407.860482,230.900786 407.506241,232.434157 407.506241,235.5009 C404.992843,236.891891 403.736144,237.587387 403.736144,237.587387 C403.736144,237.587387 402.172702,239.755316 399.045818,244.091173 L398.596468,249.912904 L389.100661,263.562209 L391.713383,247.486756 C392.63213,241.981336 394.386304,237.700266 396.975904,234.643547 C400.860304,230.058468 402.616015,224.814229 404.6222,221.355088 C406.628386,217.895948 408.699838,212.62198 410.127848,204.268512 C411.555859,195.915044 413.729824,198.504872 412.228004,189.735542 C410.726184,180.966212 408.945528,173.47659 402.504617,166.176959 C396.063706,158.877328 386.372781,151.172769 385.626826,146.172512 C384.880871,141.172254 380.705846,137.073772 379.6462,133.576702 C378.939769,131.245321 375.080713,127.094899 368.06903,121.125435 L370.394374,116.871133 Z" id="Path-11" fill="#FFFFFF"></path>
            <path d="M356.343927,99.3019731 L354.876223,96.1735473 L353.22634,97.7377602 L351.583494,96.1735473 L348,98.2180252 L347.250935,94.7511034 L346.040717,97.0265383 L344.050436,95.7430108 L342.171593,98.2180252 L340.272402,97.0265383 L339.631161,100.014146 L337.713905,98.7341366 L336.317514,101.201544 L334.287679,100.736588 L332.882159,103.072591 L330.301983,103.072591 C330.301983,104.47475 330.301983,105.17583 330.301983,105.17583 C330.301983,105.17583 329.702832,105.17583 328.504531,105.17583 L328.504531,107.74897 L326.336826,107.997708 C327.184207,109.328491 327.51611,109.993883 327.332536,109.993883 C327.148962,109.993883 326.24992,110.115399 324.635408,110.358432 L325.076593,111.444282 L322.663003,111.771177 L322.663003,113.944208 L319.639359,114.27814 L321.112197,115.692026 L316.86198,115.407728 L313.87789,116.124464 L315.562573,118.664516 L311.44186,119.523117 L313.87789,121.595549 L311.44186,122.78599 L314.161809,124.045271 L310.668263,125.396783 L313.87789,128.14963 L310.668263,130.15075 L313.312336,131.17898 L308.984341,134.171436 L310.668263,139.510354 C321.349542,161.025885 326.904299,171.78365 327.332536,171.78365 C327.760773,171.78365 331.221229,172.196506 337.713905,173.022218 L338.546004,169.563849 C342.735667,170.106841 345.233904,170.612556 346.040717,171.080994 C346.847529,171.549431 349.242737,170.579688 353.22634,168.171764 L360.323945,166.448191 L363.193092,162.566144 L368.145357,160.930754 L369.872137,157.500043 C373.333178,154.241823 375.063698,152.612713 375.063698,152.612713 C375.063698,152.612713 374.190688,151.881998 372.444669,150.420569 L372.444669,146.627106 L375.063698,144.483863 L372.444669,142.190309 C375.09523,141.02496 375.96824,140.442286 375.063698,140.442286 C374.159156,140.442286 373.286147,139.76595 372.444669,138.41328 C374.751852,136.017915 375.624861,134.820232 375.063698,134.820232 C374.502535,134.820232 373.629525,134.603967 372.444669,134.171436 C376.365329,131.490979 377.885814,130.15075 377.006124,130.15075 C376.126434,130.15075 374.382954,129.48371 371.775682,128.14963 C374.370929,127.215407 375.668552,126.297791 375.668552,125.396783 C375.668552,124.495775 374.593924,123.802978 372.444669,123.318391 L375.668552,120.444835 L371.775682,118.664516 L374.019133,115.407728 L371.060199,116.124464 L371.060199,112.76692 L369.872137,111.771177 L369.872137,106.80897 L366.130381,108.648383 L364.984405,103.599518 L362.325294,104.235636 L361.663923,99.3019731 L359.310244,102.505249 L358.706192,97.7377602 L356.343927,99.3019731 Z" id="frill" fill="#FFFFFF"></path>
            <path d="M343.947216,160.389919 C357.173573,155.790203 364.283314,149.552196 365.276439,141.6759 C366.766126,129.861456 370.756381,122.386386 363.940178,116.201838 C359.396042,112.078806 354.709866,109.025323 349.88165,107.041388 C344.77244,106.633022 339.345956,108.515444 333.602196,112.688653 C324.986556,118.948467 315.575992,132.742986 311.109245,136.004898 C306.642499,139.26681 286.493794,157.743452 280.024393,161.592438 C275.711459,164.158429 270.084072,170.751151 263.142232,181.370602 L262.115141,190.414679 C264.236098,193.010777 265.296577,194.663541 265.296577,195.372971 C265.296577,196.437116 268.186211,216.26044 269.887223,220.811137 C271.588234,225.361834 293.338367,272.601662 297.366255,275.731569 C301.394143,278.861476 306.509336,281.899906 313.861665,282.944946 C318.763217,283.641638 325.343394,283.641638 333.602196,282.944946 C340.254717,284.862146 344.058869,286.208476 345.014653,286.983936 C346.448329,288.147125 346.537975,289.90835 349.88165,289.90835 C352.110766,289.90835 353.526653,289.071959 354.12931,287.399176 L348,282.944946 L335.856795,274.566375 L341.435783,273.92933 C345.871033,275.287673 348.824463,276.437322 350.296073,277.378276 C352.503489,278.789706 354.968818,279.727866 357.232975,279.727866 C359.497132,279.727866 361.62943,279.024982 359.922366,277.378276 C358.784324,276.280471 357.539355,275.343171 356.187459,274.566375 L351.755541,271.462388 L343.947216,267.804533 L337.752136,266.843483 L346.919988,266.843483 C346.835965,266.62834 347.823186,266.94869 349.88165,267.804533 C351.940113,268.660375 353.356,268.939781 354.12931,268.642751 C355.110456,270.203556 356.145011,271.143436 357.232975,271.462388 C358.864922,271.940818 362.153639,270.485542 362.153639,269.564146 C362.153639,268.949883 360.876968,267.876748 358.323626,266.344743 L354.12931,262.311946 L350.296073,260.626804 L346.337426,258.837853 C350.520995,259.686603 353.11829,260.28292 354.12931,260.626804 C355.645841,261.142631 359.081247,260.100339 359.081247,260.100339 C359.081247,260.100339 360.929518,257.903884 359.081247,256.557577 C357.232975,255.211269 356.239364,256.771645 352.774943,255.586211 C350.465329,254.795921 348.31949,253.753092 346.337426,252.457722 L339.893139,251.652065 L320.915876,253.472288 C322.033285,251.019962 322.59199,249.193829 322.59199,247.993887 C322.59199,246.193974 320.565113,245.560474 319.604386,247.234332 C318.643659,248.908189 316.556777,250.846408 314.955961,251.652065 C313.888751,252.18917 312.141879,252.935399 309.715344,253.890753 C305.371224,243.250753 303.037216,236.376073 302.713319,233.266713 C302.227475,228.602672 301.201947,216.800433 301.201947,207.624002 C301.201947,201.506381 300.247023,194.782043 298.337175,187.450987 C305.279557,184.92795 311.213283,182.16817 316.138353,179.171647 C323.525959,174.676862 333.142902,166.66333 336.518021,164.127884 C338.7681,162.437587 341.244498,161.191599 343.947216,160.389919 Z" id="arm" fill="#F3DFDC"></path>
        </g>
    </g>
</svg>