<?xml version="1.0" encoding="UTF-8"?>
<svg width="283px" height="197px" viewBox="0 0 283 197" version="1.1" xmlns="http://www.w3.org/2000/svg" xmlns:xlink="http://www.w3.org/1999/xlink">
    <!-- Generator: Sketch 51.3 (57544) - http://www.bohemiancoding.com/sketch -->
    <title>logo</title>
    <desc>Created with Sketch.</desc>
    <defs></defs>
    <g id="logo" stroke="none" stroke-width="1" fill="none" fill-rule="evenodd">
        <rect id="Rectangle-2" fill="#2A3A4C" fill-rule="nonzero" x="0" y="2" width="283" height="195"></rect>
        <polygon id="Path" fill="#D0021B" style="mix-blend-mode: screen;" points="143 197 0 197 0 2 58.7491537 2 58.7491537 150.290043 143 150.290043"></polygon>
        <path d="M194.737421,180.94097 C190.576969,182.509963 187.017524,183.802056 184.058981,184.817287 C181.100437,185.832519 178.257504,186.755442 175.530096,187.586086 C172.802689,188.416729 168.850318,189.478091 163.672867,190.770204 C154.88969,192.800666 146.129758,194.346563 137.392809,195.407941 C128.655859,196.469319 119.433662,197 109.72594,197 C90.218042,197 72.1896863,193.446744 55.6403321,186.340126 C39.0909779,179.233509 27.8470704,168.204572 17.9082124,153.252987 C7.96935445,138.301401 5,119.935223 5,98.1539002 C5,84.1252519 5.56557369,70.3506181 10.696798,56.8295854 C15.8280224,43.3085527 21.6634231,32.4872742 32.2032353,24.3654252 C40.8939577,17.6279822 49.700116,12.4826835 58.6219746,8.92937456 C67.5438331,5.37606563 76.2575384,2.99953751 84.7633517,1.7997189 C93.2691651,0.599900302 102.653155,0 112.915604,0 C129.834776,0 143.795195,1.26901987 154.79728,3.80709768 C165.799365,6.34517549 181.871462,9.69077333 195,13.8439916 L195,59.2522839 C186.309278,54.1761283 173.103227,49.93068 163.395505,46.5158117 C153.687783,43.1009433 141.576426,41.3935348 127.061071,41.3935348 C110.326808,41.3935348 96.9442204,44.5545479 86.912908,50.876669 C76.8815955,57.1987901 69.901386,64.7436901 65.97207,73.5115952 C62.0427541,82.2795004 60.0781256,90.770397 60.0781256,98.9845397 C60.0781256,108.675382 62.3432267,117.604668 66.8734968,125.772663 C71.403767,133.940659 78.2452968,140.493416 87.3982916,145.431131 C96.5512864,150.368846 107.599433,152.837667 120.543062,152.837667 C127.939421,152.837667 135.797935,151.868597 144.118839,149.930429 L144.118839,115.364722 L103.020676,115.364722 L103.020676,76.7399859 L194.737421,76.7399859 L194.737421,180.94097 Z" id="Combined-Shape" fill="#9B9B9B" style="mix-blend-mode: screen;"></path>
        <polygon id="Path" fill="#7ED321" style="mix-blend-mode: screen;" points="283 197 143 197 143 2 282.609244 2 282.609244 41.1125541 194.798593 41.1125541 194.798593 76.8484848 237.656693 76.8484848 237.656693 116.101732 194.798593 116.101732 194.798593 157.746753 283 157.746753"></polygon>
    </g>
</svg>