<?xml version="1.0" encoding="UTF-8"?>
<svg width="499px" height="372px" viewBox="0 0 499 372" version="1.1" xmlns="http://www.w3.org/2000/svg" xmlns:xlink="http://www.w3.org/1999/xlink">
    <!-- Generator: Sketch 51.3 (57544) - http://www.bohemiancoding.com/sketch -->
    <title>status</title>
    <desc>Created with Sketch.</desc>
    <defs></defs>
    <g id="status" stroke="none" stroke-width="1" fill="none" fill-rule="evenodd">
        <g id="car" transform="translate(244.000000, 36.000000)" fill-rule="nonzero">
            <rect id="Rectangle-2" fill="#6E6E6E" x="4.546875" y="38.0996441" width="8.3359375" height="8.67615658"></rect>
            <rect id="Rectangle-2" fill="#6E6E6E" x="21.5976562" y="88.2704626" width="8.3359375" height="8.67615658"></rect>
            <polygon id="Path" fill="#A8C2DF" points="0.37890625 21.8790036 28.0476063 104.123265 95.5851362 104.123265 55.8238642 21.8790036"></polygon>
            <polygon id="Path-Copy" fill="#A8C2DF" points="0.37890625 0.377224199 28.0476063 82.6214851 95.5851362 82.6214851 55.8238642 0.377224199"></polygon>
            <rect id="Rectangle" fill="#7EA1CB" x="28.0390625" y="82.6120996" width="67.4453125" height="21.5017794"></rect>
            <polygon id="Path-2" fill="#4079BB" points="0.366236818 0.366529663 0.366236818 21.9338573 28.054642 104.145983 28.054642 82.5855273"></polygon>
            <path d="M85.0193526,63.5268244 C72.5214733,62.1219032 61.760585,61.4194427 52.7366876,61.4194427 C43.7127902,61.4194427 33.5857173,62.1219032 22.3554688,63.5268244 L28.7577566,43.8580471 C36.9247542,43.539871 44.565293,43.3807829 51.6793732,43.3807829 C58.7934533,43.3807829 66.6956868,43.7651687 75.3860736,44.5339404 L85.0193526,63.5268244 Z" id="Path-3" fill="#6E6E6E"></path>
            <polygon id="Path-4" fill="#4A4A4A" points="20.74638 61.6918111 27.441391 42.8306011 23.9860402 34.7046263 17.4296875 52.075901"></polygon>
            <path d="M17.844665,47.6536358 L2.32317453,1.70393917 L54.4873636,1.70393917 L70.2904702,33.9806235 C57.9184702,33.3642465 49.7175654,33.0560579 45.6877559,33.0560579 C41.6579464,33.0560579 34.1801908,33.3642465 23.2544889,33.9806235 L17.844665,47.6536358 Z" id="Path-5" fill="#4079BB"></path>
            <ellipse id="Oval" fill="#000000" cx="21.5976562" cy="84.6868327" rx="1.515625" ry="12.2597865"></ellipse>
            <ellipse id="Oval" fill="#000000" cx="4.546875" cy="34.5160142" rx="1.515625" ry="12.2597865"></ellipse>
            <rect id="Rectangle-3" fill="#FFFFFF" x="29.9335938" y="91.2882562" width="16.2929688" height="6.79003559" rx="2"></rect>
            <rect id="Rectangle-3-Copy" fill="#FFFFFF" x="76.9179688" y="91.2882562" width="16.2929688" height="6.79003559" rx="2"></rect>
            <rect id="Rectangle-4" fill="#9B9B9B" x="27.28125" y="99.9644128" width="69.3398438" height="4.90391459"></rect>
            <rect id="Rectangle-5" stroke="#C5C5C5" stroke-width="1" fill="#F8E71C" x="55.4414062" y="101.218861" width="13.0195312" height="4.28113879"></rect>
        </g>
        <g id="car" transform="translate(50.000000, 36.000000)" fill-rule="nonzero">
            <rect id="Rectangle-2" fill="#6E6E6E" x="4.546875" y="38.0996441" width="8.3359375" height="8.67615658"></rect>
            <rect id="Rectangle-2" fill="#6E6E6E" x="21.5976562" y="88.2704626" width="8.3359375" height="8.67615658"></rect>
            <polygon id="Path" fill="#A8C2DF" points="0.37890625 21.8790036 28.0476063 104.123265 95.5851362 104.123265 55.8238642 21.8790036"></polygon>
            <polygon id="Path-Copy" fill="#A8C2DF" points="0.37890625 0.377224199 28.0476063 82.6214851 95.5851362 82.6214851 55.8238642 0.377224199"></polygon>
            <rect id="Rectangle" fill="#7EA1CB" x="28.0390625" y="82.6120996" width="67.4453125" height="21.5017794"></rect>
            <polygon id="Path-2" fill="#4079BB" points="0.366236818 0.366529663 0.366236818 21.9338573 28.054642 104.145983 28.054642 82.5855273"></polygon>
            <path d="M85.0193526,63.5268244 C72.5214733,62.1219032 61.760585,61.4194427 52.7366876,61.4194427 C43.7127902,61.4194427 33.5857173,62.1219032 22.3554688,63.5268244 L28.7577566,43.8580471 C36.9247542,43.539871 44.565293,43.3807829 51.6793732,43.3807829 C58.7934533,43.3807829 66.6956868,43.7651687 75.3860736,44.5339404 L85.0193526,63.5268244 Z" id="Path-3" fill="#6E6E6E"></path>
            <polygon id="Path-4" fill="#4A4A4A" points="20.74638 61.6918111 27.441391 42.8306011 23.9860402 34.7046263 17.4296875 52.075901"></polygon>
            <path d="M17.844665,47.6536358 L2.32317453,1.70393917 L54.4873636,1.70393917 L70.2904702,33.9806235 C57.9184702,33.3642465 49.7175654,33.0560579 45.6877559,33.0560579 C41.6579464,33.0560579 34.1801908,33.3642465 23.2544889,33.9806235 L17.844665,47.6536358 Z" id="Path-5" fill="#4079BB"></path>
            <ellipse id="Oval" fill="#000000" cx="21.5976562" cy="84.6868327" rx="1.515625" ry="12.2597865"></ellipse>
            <ellipse id="Oval" fill="#000000" cx="4.546875" cy="34.5160142" rx="1.515625" ry="12.2597865"></ellipse>
            <rect id="Rectangle-3" fill="#FFFFFF" x="29.9335938" y="91.2882562" width="16.2929688" height="6.79003559" rx="2"></rect>
            <rect id="Rectangle-3-Copy" fill="#FFFFFF" x="76.9179688" y="91.2882562" width="16.2929688" height="6.79003559" rx="2"></rect>
            <rect id="Rectangle-4" fill="#9B9B9B" x="27.28125" y="99.9644128" width="69.3398438" height="4.90391459"></rect>
            <rect id="Rectangle-5" stroke="#C5C5C5" stroke-width="1" fill="#F8E71C" x="55.4414062" y="101.218861" width="13.0195312" height="4.28113879"></rect>
        </g>
        <g id="car" transform="translate(139.000000, 36.000000)" fill-rule="nonzero">
            <rect id="Rectangle-2" fill="#6E6E6E" x="4.546875" y="38.0996441" width="8.3359375" height="8.67615658"></rect>
            <rect id="Rectangle-2" fill="#6E6E6E" x="21.5976562" y="88.2704626" width="8.3359375" height="8.67615658"></rect>
            <polygon id="Path" fill="#A8C2DF" points="0.37890625 21.8790036 28.0476063 104.123265 95.5851362 104.123265 55.8238642 21.8790036"></polygon>
            <polygon id="Path-Copy" fill="#A8C2DF" points="0.37890625 0.377224199 28.0476063 82.6214851 95.5851362 82.6214851 55.8238642 0.377224199"></polygon>
            <rect id="Rectangle" fill="#7EA1CB" x="28.0390625" y="82.6120996" width="67.4453125" height="21.5017794"></rect>
            <polygon id="Path-2" fill="#4079BB" points="0.366236818 0.366529663 0.366236818 21.9338573 28.054642 104.145983 28.054642 82.5855273"></polygon>
            <path d="M85.0193526,63.5268244 C72.5214733,62.1219032 61.760585,61.4194427 52.7366876,61.4194427 C43.7127902,61.4194427 33.5857173,62.1219032 22.3554688,63.5268244 L28.7577566,43.8580471 C36.9247542,43.539871 44.565293,43.3807829 51.6793732,43.3807829 C58.7934533,43.3807829 66.6956868,43.7651687 75.3860736,44.5339404 L85.0193526,63.5268244 Z" id="Path-3" fill="#6E6E6E"></path>
            <polygon id="Path-4" fill="#4A4A4A" points="20.74638 61.6918111 27.441391 42.8306011 23.9860402 34.7046263 17.4296875 52.075901"></polygon>
            <path d="M17.844665,47.6536358 L2.32317453,1.70393917 L54.4873636,1.70393917 L70.2904702,33.9806235 C57.9184702,33.3642465 49.7175654,33.0560579 45.6877559,33.0560579 C41.6579464,33.0560579 34.1801908,33.3642465 23.2544889,33.9806235 L17.844665,47.6536358 Z" id="Path-5" fill="#4079BB"></path>
            <ellipse id="Oval" fill="#000000" cx="21.5976562" cy="84.6868327" rx="1.515625" ry="12.2597865"></ellipse>
            <ellipse id="Oval" fill="#000000" cx="4.546875" cy="34.5160142" rx="1.515625" ry="12.2597865"></ellipse>
            <rect id="Rectangle-3" fill="#FFFFFF" x="29.9335938" y="91.2882562" width="16.2929688" height="6.79003559" rx="2"></rect>
            <rect id="Rectangle-3-Copy" fill="#FFFFFF" x="76.9179688" y="91.2882562" width="16.2929688" height="6.79003559" rx="2"></rect>
            <rect id="Rectangle-4" fill="#9B9B9B" x="27.28125" y="99.9644128" width="69.3398438" height="4.90391459"></rect>
            <rect id="Rectangle-5" stroke="#C5C5C5" stroke-width="1" fill="#F8E71C" x="55.4414062" y="101.218861" width="13.0195312" height="4.28113879"></rect>
        </g>
        <g id="car" transform="translate(350.000000, 36.000000)" fill-rule="nonzero">
            <rect id="Rectangle-2" fill="#6E6E6E" x="4.546875" y="38.0996441" width="8.3359375" height="8.67615658"></rect>
            <rect id="Rectangle-2" fill="#6E6E6E" x="21.5976562" y="88.2704626" width="8.3359375" height="8.67615658"></rect>
            <polygon id="Path" fill="#A8C2DF" points="0.37890625 21.8790036 28.0476063 104.123265 95.5851362 104.123265 55.8238642 21.8790036"></polygon>
            <polygon id="Path-Copy" fill="#A8C2DF" points="0.37890625 0.377224199 28.0476063 82.6214851 95.5851362 82.6214851 55.8238642 0.377224199"></polygon>
            <rect id="Rectangle" fill="#7EA1CB" x="28.0390625" y="82.6120996" width="67.4453125" height="21.5017794"></rect>
            <polygon id="Path-2" fill="#4079BB" points="0.366236818 0.366529663 0.366236818 21.9338573 28.054642 104.145983 28.054642 82.5855273"></polygon>
            <path d="M85.0193526,63.5268244 C72.5214733,62.1219032 61.760585,61.4194427 52.7366876,61.4194427 C43.7127902,61.4194427 33.5857173,62.1219032 22.3554688,63.5268244 L28.7577566,43.8580471 C36.9247542,43.539871 44.565293,43.3807829 51.6793732,43.3807829 C58.7934533,43.3807829 66.6956868,43.7651687 75.3860736,44.5339404 L85.0193526,63.5268244 Z" id="Path-3" fill="#6E6E6E"></path>
            <polygon id="Path-4" fill="#4A4A4A" points="20.74638 61.6918111 27.441391 42.8306011 23.9860402 34.7046263 17.4296875 52.075901"></polygon>
            <path d="M17.844665,47.6536358 L2.32317453,1.70393917 L54.4873636,1.70393917 L70.2904702,33.9806235 C57.9184702,33.3642465 49.7175654,33.0560579 45.6877559,33.0560579 C41.6579464,33.0560579 34.1801908,33.3642465 23.2544889,33.9806235 L17.844665,47.6536358 Z" id="Path-5" fill="#4079BB"></path>
            <ellipse id="Oval" fill="#000000" cx="21.5976562" cy="84.6868327" rx="1.515625" ry="12.2597865"></ellipse>
            <ellipse id="Oval" fill="#000000" cx="4.546875" cy="34.5160142" rx="1.515625" ry="12.2597865"></ellipse>
            <rect id="Rectangle-3" fill="#FFFFFF" x="29.9335938" y="91.2882562" width="16.2929688" height="6.79003559" rx="2"></rect>
            <rect id="Rectangle-3-Copy" fill="#FFFFFF" x="76.9179688" y="91.2882562" width="16.2929688" height="6.79003559" rx="2"></rect>
            <rect id="Rectangle-4" fill="#9B9B9B" x="27.28125" y="99.9644128" width="69.3398438" height="4.90391459"></rect>
            <rect id="Rectangle-5" stroke="#C5C5C5" stroke-width="1" fill="#F8E71C" x="55.4414062" y="101.218861" width="13.0195312" height="4.28113879"></rect>
        </g>
        <g id="state" transform="translate(244.000000, 19.000000)">
            <polygon id="Rectangle-2" fill="#C5E8E0" fill-rule="nonzero" points="0 0 70.5219559 0 77.9494073 7.77312301 0 12"></polygon>
            <polygon id="Rectangle-Copy" fill="#186655" fill-rule="nonzero" points="0 0 3.95639305 6.98954991 3.95639305 35.9603283 0 29"></polygon>
            <rect id="Rectangle" fill="#7DD0BE" fill-rule="nonzero" x="4" y="7" width="74" height="28"></rect>
            <path d="M20.1621094,20.0644531 C20.1621094,20.9108115 19.9456402,21.6432261 19.5126953,22.2617188 C19.0797504,22.8802114 18.4759153,23.3538395 17.7011719,23.6826172 C16.9264284,24.0113949 16.0377654,24.1757812 15.0351562,24.1757812 C14.7552069,24.1757812 14.4117859,24.1578778 14.0048828,24.1220703 C13.5979797,24.0862628 13.0576206,23.98698 12.3837891,23.8242188 C11.7099576,23.6614575 11.0084672,23.4205745 10.2792969,23.1015625 L10.2792969,19.78125 C10.962894,20.2044292 11.6350878,20.5559882 12.2958984,20.8359375 C12.956709,21.1158868 13.6647098,21.2558594 14.4199219,21.2558594 C15.1165399,21.2558594 15.5673818,21.1403006 15.7724609,20.9091797 C15.9775401,20.6780587 16.0800781,20.4615896 16.0800781,20.2597656 C16.0800781,19.8951805 15.9042986,19.5875664 15.5527344,19.3369141 C15.2011701,19.0862618 14.6901075,18.8274753 14.0195312,18.5605469 C13.27734,18.2480453 12.6263049,17.9078794 12.0664062,17.5400391 C11.5065076,17.1721987 11.0491554,16.7115913 10.6943359,16.1582031 C10.3395165,15.6048149 10.1621094,14.9505246 10.1621094,14.1953125 C10.1621094,13.4661422 10.341144,12.8069691 10.6992188,12.2177734 C11.0572935,11.6285778 11.604163,11.1582049 12.3398438,10.8066406 C13.0755245,10.4550764 13.973953,10.2792969 15.0351562,10.2792969 C15.7903684,10.2792969 16.4886036,10.3525383 17.1298828,10.4990234 C17.7711621,10.6455085 18.3001281,10.8098949 18.7167969,10.9921875 C19.1334656,11.1744801 19.4199211,11.3177078 19.5761719,11.421875 L19.5761719,14.5957031 C19.0227837,14.1985657 18.4059279,13.8437516 17.7255859,13.53125 C17.045244,13.2187484 16.3177122,13.0625 15.5429688,13.0625 C15.0351537,13.0625 14.6673188,13.1601553 14.4394531,13.3554688 C14.2115874,13.5507822 14.0976562,13.7916652 14.0976562,14.078125 C14.0976562,14.3450534 14.2115874,14.5761709 14.4394531,14.7714844 C14.6673188,14.9667979 15.0742158,15.2044257 15.6601562,15.484375 C16.7018281,15.9726587 17.5351531,16.4121074 18.1601562,16.8027344 C18.7851594,17.1933613 19.2750633,17.6442032 19.6298828,18.1552734 C19.9847023,18.6663437 20.1621094,19.3027306 20.1621094,20.0644531 Z M30.2011719,23.4238281 C29.8365867,23.5996103 29.3336621,23.7688794 28.6923828,23.9316406 C28.0511036,24.0944019 27.4375029,24.1757812 26.8515625,24.1757812 C24.3189978,24.1757812 23.0527344,22.9388145 23.0527344,20.4648438 L23.0527344,16.5 L21.4609375,16.5 L21.4609375,15.8847656 L26.1777344,11.0800781 L26.578125,11.0800781 L26.578125,14.0585938 L29.9375,14.0585938 L29.9375,16.5 L26.578125,16.5 L26.578125,19.6835938 C26.578125,20.0546894 26.6009112,20.3541655 26.6464844,20.5820312 C26.6920575,20.809897 26.820637,21.0003248 27.0322266,21.1533203 C27.2438162,21.3063159 27.564451,21.3828125 27.9941406,21.3828125 C28.5540393,21.3828125 29.289709,21.1484398 30.2011719,20.6796875 L30.2011719,23.4238281 Z M42.0566406,23.5019531 C41.5423151,23.7037771 41.0670595,23.8665358 40.6308594,23.9902344 C40.1946593,24.1139329 39.670576,24.1757812 39.0585938,24.1757812 C38.4791638,24.1757812 38.075522,24.0732432 37.8476562,23.8681641 C37.6197905,23.6630849 37.4570317,23.414064 37.359375,23.1210938 C36.9817689,23.4270849 36.5618513,23.679361 36.0996094,23.8779297 C35.6373675,24.0764984 35.0319048,24.1757812 34.2832031,24.1757812 C33.5605433,24.1757812 32.9762392,24.050457 32.5302734,23.7998047 C32.0843077,23.5491524 31.7718108,23.2334003 31.5927734,22.8525391 C31.4137361,22.4716778 31.3242188,22.0794291 31.3242188,21.6757812 C31.3242188,21.063799 31.4788396,20.5576192 31.7880859,20.1572266 C32.0973323,19.7568339 32.5123672,19.4296888 33.0332031,19.1757812 C33.5540391,18.9218737 34.2441363,18.6582045 35.1035156,18.3847656 C35.5917993,18.2285148 35.9612618,18.1097009 36.2119141,18.0283203 C36.4625664,17.9469397 36.649739,17.8834638 36.7734375,17.8378906 C36.897136,17.7923175 37.0273431,17.7337243 37.1640625,17.6621094 C37.1640625,17.1803361 37.0664072,16.8027357 36.8710938,16.5292969 C36.6757803,16.255858 36.2526074,16.1191406 35.6015625,16.1191406 C34.8333295,16.1191406 34.120446,16.2884098 33.4628906,16.6269531 C32.8053353,16.9654965 32.2031277,17.40169 31.65625,17.9355469 L31.65625,15.2402344 C32.0924501,14.9277328 32.5644506,14.6722015 33.0722656,14.4736328 C33.5800807,14.2750641 34.1106743,14.1269536 34.6640625,14.0292969 C35.2174507,13.9316401 35.7773409,13.8828125 36.34375,13.8828125 C37.7825593,13.8828125 38.8649052,14.16113 39.5908203,14.7177734 C40.3167354,15.2744168 40.6796875,16.0410107 40.6796875,17.0175781 L40.6796875,20.8554688 C40.6796875,21.2200539 40.7138668,21.4918611 40.7822266,21.6708984 C40.8505863,21.8499358 40.9759105,21.9394531 41.1582031,21.9394531 C41.3795584,21.9394531 41.6790346,21.845053 42.0566406,21.65625 L42.0566406,23.5019531 Z M37.1640625,21.5976562 L37.1640625,19.2441406 C36.330725,19.582684 35.7220071,19.8870429 35.3378906,20.1572266 C34.9537741,20.4274102 34.7617188,20.7936175 34.7617188,21.2558594 C34.7617188,21.5878923 34.8577464,21.841796 35.0498047,22.0175781 C35.2418629,22.1933603 35.4648425,22.28125 35.71875,22.28125 C35.9596366,22.28125 36.198892,22.2145189 36.4365234,22.0810547 C36.6741548,21.9475905 36.9166654,21.7864593 37.1640625,21.5976562 Z M51.0019531,23.4238281 C50.637368,23.5996103 50.1344433,23.7688794 49.4931641,23.9316406 C48.8518848,24.0944019 48.2382842,24.1757812 47.6523438,24.1757812 C45.119779,24.1757812 43.8535156,22.9388145 43.8535156,20.4648438 L43.8535156,16.5 L42.2617188,16.5 L42.2617188,15.8847656 L46.9785156,11.0800781 L47.3789062,11.0800781 L47.3789062,14.0585938 L50.7382812,14.0585938 L50.7382812,16.5 L47.3789062,16.5 L47.3789062,19.6835938 C47.3789062,20.0546894 47.4016925,20.3541655 47.4472656,20.5820312 C47.4928388,20.809897 47.6214182,21.0003248 47.8330078,21.1533203 C48.0445974,21.3063159 48.3652322,21.3828125 48.7949219,21.3828125 C49.3548205,21.3828125 50.0904902,21.1484398 51.0019531,20.6796875 L51.0019531,23.4238281 Z M62.7402344,19.8789062 L55.7382812,19.8789062 C55.8750007,20.484378 56.2102838,20.9791647 56.7441406,21.3632812 C57.2779975,21.7473978 57.8834602,21.9394531 58.5605469,21.9394531 C59.7454486,21.9394531 61.0540293,21.6074252 62.4863281,20.9433594 L62.4863281,23.1210938 C61.9720026,23.3880222 61.3486365,23.6305328 60.6162109,23.8486328 C59.8837854,24.0667329 58.9511775,24.1757812 57.8183594,24.1757812 C56.5943949,24.1757812 55.5527387,23.9479189 54.6933594,23.4921875 C53.8339801,23.0364561 53.1910829,22.4179727 52.7646484,21.6367188 C52.338214,20.8554648 52.125,19.970057 52.125,18.9804688 C52.125,18.0039014 52.338214,17.1298867 52.7646484,16.3583984 C53.1910829,15.5869102 53.8339801,14.9814475 54.6933594,14.5419922 C55.5527387,14.1025369 56.5943949,13.8828125 57.8183594,13.8828125 C58.6256551,13.8828125 59.4052697,14.0569644 60.1572266,14.4052734 C60.9091834,14.7535825 61.5276668,15.3232382 62.0126953,16.1142578 C62.4977238,16.9052774 62.7402344,17.925775 62.7402344,19.1757812 L62.7402344,19.8789062 Z M59.4394531,18.140625 C59.4394531,17.502601 59.2815771,16.993166 58.9658203,16.6123047 C58.6500635,16.2314434 58.1959665,16.0410156 57.6035156,16.0410156 C57.0175752,16.0410156 56.5439471,16.2346986 56.1826172,16.6220703 C55.8212873,17.009442 55.640625,17.5156219 55.640625,18.140625 L59.4394531,18.140625 Z" id="State-Copy" fill="#FFFFFF" fill-rule="evenodd"></path>
            <path d="M21,20.7851562 C21,21.6315146 20.7835308,22.3639292 20.3505859,22.9824219 C19.9176411,23.6009146 19.313806,24.0745426 18.5390625,24.4033203 C17.764319,24.732098 16.8756561,24.8964844 15.8730469,24.8964844 C15.5930976,24.8964844 15.2496765,24.8785809 14.8427734,24.8427734 C14.4358704,24.806966 13.8955112,24.7076831 13.2216797,24.5449219 C12.5478482,24.3821606 11.8463578,24.1412776 11.1171875,23.8222656 L11.1171875,20.5019531 C11.8007847,20.9251323 12.4729785,21.2766913 13.1337891,21.5566406 C13.7945997,21.8365899 14.5026004,21.9765625 15.2578125,21.9765625 C15.9544306,21.9765625 16.4052724,21.8610038 16.6103516,21.6298828 C16.8154307,21.3987619 16.9179688,21.1822927 16.9179688,20.9804688 C16.9179688,20.6158836 16.7421893,20.3082695 16.390625,20.0576172 C16.0390607,19.8069649 15.5279981,19.5481784 14.8574219,19.28125 C14.1152307,18.9687484 13.4641955,18.6285826 12.9042969,18.2607422 C12.3443982,17.8929018 11.887046,17.4322944 11.5322266,16.8789062 C11.1774071,16.3255181 11,15.6712277 11,14.9160156 C11,14.1868453 11.1790347,13.5276722 11.5371094,12.9384766 C11.8951841,12.3492809 12.4420536,11.878908 13.1777344,11.5273438 C13.9134151,11.1757795 14.8118437,11 15.8730469,11 C16.628259,11 17.3264942,11.0732415 17.9677734,11.2197266 C18.6090527,11.3662117 19.1380188,11.530598 19.5546875,11.7128906 C19.9713562,11.8951832 20.2578117,12.0384109 20.4140625,12.1425781 L20.4140625,15.3164062 C19.8606743,14.9192688 19.2438185,14.5644547 18.5634766,14.2519531 C17.8831346,13.9394516 17.1556028,13.7832031 16.3808594,13.7832031 C15.8730443,13.7832031 15.5052095,13.8808584 15.2773438,14.0761719 C15.049478,14.2714854 14.9355469,14.5123684 14.9355469,14.7988281 C14.9355469,15.0657565 15.049478,15.296874 15.2773438,15.4921875 C15.5052095,15.687501 15.9121064,15.9251288 16.4980469,16.2050781 C17.5397187,16.6933618 18.3730438,17.1328105 18.9980469,17.5234375 C19.62305,17.9140645 20.112954,18.3649063 20.4677734,18.8759766 C20.8225929,19.3870468 21,20.0234337 21,20.7851562 Z M31.0390625,24.1445312 C30.6744773,24.3203134 30.1715527,24.4895825 29.5302734,24.6523438 C28.8889942,24.815105 28.2753936,24.8964844 27.6894531,24.8964844 C25.1568884,24.8964844 23.890625,23.6595176 23.890625,21.1855469 L23.890625,17.2207031 L22.2988281,17.2207031 L22.2988281,16.6054688 L27.015625,11.8007812 L27.4160156,11.8007812 L27.4160156,14.7792969 L30.7753906,14.7792969 L30.7753906,17.2207031 L27.4160156,17.2207031 L27.4160156,20.4042969 C27.4160156,20.7753925 27.4388019,21.0748687 27.484375,21.3027344 C27.5299481,21.5306001 27.6585276,21.7210279 27.8701172,21.8740234 C28.0817068,22.027019 28.4023416,22.1035156 28.8320312,22.1035156 C29.3919299,22.1035156 30.1275996,21.869143 31.0390625,21.4003906 L31.0390625,24.1445312 Z M42.8945312,24.2226562 C42.3802058,24.4244802 41.9049501,24.587239 41.46875,24.7109375 C41.0325499,24.834636 40.5084666,24.8964844 39.8964844,24.8964844 C39.3170544,24.8964844 38.9134126,24.7939463 38.6855469,24.5888672 C38.4576812,24.383788 38.2949224,24.1347671 38.1972656,23.8417969 C37.8196596,24.147788 37.3997419,24.4000641 36.9375,24.5986328 C36.4752581,24.7972015 35.8697954,24.8964844 35.1210938,24.8964844 C34.3984339,24.8964844 33.8141298,24.7711601 33.3681641,24.5205078 C32.9221983,24.2698555 32.6097014,23.9541035 32.4306641,23.5732422 C32.2516267,23.1923809 32.1621094,22.8001322 32.1621094,22.3964844 C32.1621094,21.7845021 32.3167302,21.2783223 32.6259766,20.8779297 C32.9352229,20.4775371 33.3502578,20.1503919 33.8710938,19.8964844 C34.3919297,19.6425769 35.082027,19.3789076 35.9414062,19.1054688 C36.4296899,18.949218 36.7991524,18.8304041 37.0498047,18.7490234 C37.300457,18.6676428 37.4876296,18.6041669 37.6113281,18.5585938 C37.7350267,18.5130206 37.8652337,18.4544274 38.0019531,18.3828125 C38.0019531,17.9010393 37.9042979,17.5234389 37.7089844,17.25 C37.5136709,16.9765611 37.090498,16.8398438 36.4394531,16.8398438 C35.6712201,16.8398438 34.9583366,17.0091129 34.3007812,17.3476562 C33.6432259,17.6861996 33.0410184,18.1223932 32.4941406,18.65625 L32.4941406,15.9609375 C32.9303407,15.6484359 33.4023412,15.3929046 33.9101562,15.1943359 C34.4179713,14.9957672 34.9485649,14.8476567 35.5019531,14.75 C36.0553413,14.6523433 36.6152315,14.6035156 37.1816406,14.6035156 C38.6204499,14.6035156 39.7027958,14.8818332 40.4287109,15.4384766 C41.154626,15.99512 41.5175781,16.7617139 41.5175781,17.7382812 L41.5175781,21.5761719 C41.5175781,21.940757 41.5517575,22.2125642 41.6201172,22.3916016 C41.6884769,22.5706389 41.8138012,22.6601562 41.9960938,22.6601562 C42.217449,22.6601562 42.5169252,22.5657562 42.8945312,22.3769531 L42.8945312,24.2226562 Z M38.0019531,22.3183594 L38.0019531,19.9648438 C37.1686156,20.3033871 36.5598978,20.607746 36.1757812,20.8779297 C35.7916647,21.1481133 35.5996094,21.5143206 35.5996094,21.9765625 C35.5996094,22.3085954 35.6956371,22.5624991 35.8876953,22.7382812 C36.0797536,22.9140634 36.3027331,23.0019531 36.5566406,23.0019531 C36.7975272,23.0019531 37.0367827,22.935222 37.2744141,22.8017578 C37.5120455,22.6682936 37.7545561,22.5071624 38.0019531,22.3183594 Z M51.8398438,24.1445312 C51.4752586,24.3203134 50.9723339,24.4895825 50.3310547,24.6523438 C49.6897754,24.815105 49.0761748,24.8964844 48.4902344,24.8964844 C45.9576696,24.8964844 44.6914062,23.6595176 44.6914062,21.1855469 L44.6914062,17.2207031 L43.0996094,17.2207031 L43.0996094,16.6054688 L47.8164062,11.8007812 L48.2167969,11.8007812 L48.2167969,14.7792969 L51.5761719,14.7792969 L51.5761719,17.2207031 L48.2167969,17.2207031 L48.2167969,20.4042969 C48.2167969,20.7753925 48.2395831,21.0748687 48.2851562,21.3027344 C48.3307294,21.5306001 48.4593088,21.7210279 48.6708984,21.8740234 C48.882488,22.027019 49.2031229,22.1035156 49.6328125,22.1035156 C50.1927111,22.1035156 50.9283809,21.869143 51.8398438,21.4003906 L51.8398438,24.1445312 Z M63.578125,20.5996094 L56.5761719,20.5996094 C56.7128913,21.2050812 57.0481744,21.6998679 57.5820312,22.0839844 C58.1158881,22.4681009 58.7213508,22.6601562 59.3984375,22.6601562 C60.5833393,22.6601562 61.8919199,22.3281283 63.3242188,21.6640625 L63.3242188,23.8417969 C62.8098933,24.1087253 62.1865271,24.3512359 61.4541016,24.5693359 C60.721676,24.787436 59.7890682,24.8964844 58.65625,24.8964844 C57.4322855,24.8964844 56.3906293,24.6686221 55.53125,24.2128906 C54.6718707,23.7571592 54.0289735,23.1386758 53.6025391,22.3574219 C53.1761046,21.576168 52.9628906,20.6907602 52.9628906,19.7011719 C52.9628906,18.7246045 53.1761046,17.8505898 53.6025391,17.0791016 C54.0289735,16.3076133 54.6718707,15.7021506 55.53125,15.2626953 C56.3906293,14.82324 57.4322855,14.6035156 58.65625,14.6035156 C59.4635457,14.6035156 60.2431603,14.7776675 60.9951172,15.1259766 C61.7470741,15.4742856 62.3655575,16.0439414 62.8505859,16.8349609 C63.3356144,17.6259805 63.578125,18.6464781 63.578125,19.8964844 L63.578125,20.5996094 Z M60.2773438,18.8613281 C60.2773438,18.2233041 60.1194677,17.7138691 59.8037109,17.3330078 C59.4879542,16.9521465 59.0338571,16.7617188 58.4414062,16.7617188 C57.8554658,16.7617188 57.3818377,16.9554017 57.0205078,17.3427734 C56.6591779,17.7301452 56.4785156,18.236325 56.4785156,18.8613281 L60.2773438,18.8613281 Z" id="State" fill="#4A4A4A" fill-rule="evenodd"></path>
        </g>
        <g transform="translate(46.000000, 3.000000)">
            <polygon id="Rectangle-2" fill="#D1B3F3" fill-rule="nonzero" points="0 0 70.5219559 0 77.9494073 7.77312301 0 12"></polygon>
            <polygon id="Rectangle-Copy" fill="#530DA5" fill-rule="nonzero" points="0 0 3.95639305 6.98954991 3.95639305 50.9603283 0 44"></polygon>
            <rect id="Rectangle" fill="#C08AFF" fill-rule="nonzero" x="4" y="7" width="74" height="44"></rect>
            <path d="M16.9130859,8.56347656 C18.1084044,8.56347656 19.2597601,8.8623017 20.3671875,9.45996094 L20.3671875,11.5693359 C19.0956968,10.801754 17.9677784,10.4179688 16.9833984,10.4179688 C16.3857392,10.4179688 15.9184587,10.5336902 15.581543,10.7651367 C15.2446272,10.9965832 15.0761719,11.3056621 15.0761719,11.6923828 C15.0761719,12.1552758 15.3896453,12.5830058 16.0166016,12.9755859 C16.1923837,13.092774 16.8691347,13.4208957 18.046875,13.9599609 C19.0546925,14.4345727 19.7812478,14.9619112 20.2265625,15.5419922 C20.6718772,16.1220732 20.8945312,16.8193319 20.8945312,17.6337891 C20.8945312,18.6884818 20.5151405,19.5395475 19.7563477,20.1870117 C18.9975548,20.8344759 18.0146545,21.1582031 16.8076172,21.1582031 C16.022457,21.1582031 15.3471708,21.0717782 14.7817383,20.8989258 C14.2163058,20.7260734 13.5820348,20.428713 12.8789062,20.0068359 L12.8789062,17.6689453 C14.1914128,18.7587945 15.4277286,19.3037109 16.5878906,19.3037109 C17.1679717,19.3037109 17.636717,19.1777356 17.9941406,18.9257812 C18.3515643,18.6738269 18.5302734,18.3398458 18.5302734,17.9238281 C18.5302734,17.3554659 18.2197297,16.8925799 17.5986328,16.5351562 C17.0830052,16.2539048 16.4179728,15.9169942 15.6035156,15.5244141 C14.6367139,15.0849587 13.9145532,14.5722686 13.4370117,13.9863281 C12.9594703,13.4003877 12.7207031,12.720707 12.7207031,11.9472656 C12.7207031,10.9160105 13.1044883,10.0942413 13.8720703,9.48193359 C14.6396523,8.86962584 15.653314,8.56347656 16.9130859,8.56347656 Z M24.9462891,10.6113281 L25.1220703,10.6113281 L25.1220703,12.7910156 L27.9345703,12.7910156 L27.9345703,14.4257812 L25.1220703,14.4257812 L25.1220703,18.2138672 C25.1220703,18.5830097 25.2333973,18.8818348 25.4560547,19.1103516 C25.6787121,19.3388683 25.9833965,19.453125 26.3701172,19.453125 C26.874026,19.453125 27.4540983,19.2714862 28.1103516,18.9082031 L28.1103516,20.6396484 C27.3310508,20.9853533 26.5986362,21.1582031 25.9130859,21.1582031 C24.9873001,21.1582031 24.2651393,20.9062525 23.746582,20.4023438 C23.2280248,19.898435 22.96875,19.2158246 22.96875,18.3544922 L22.96875,14.4257812 L21.6855469,14.4257812 L21.6855469,14.0742188 L24.9462891,10.6113281 Z M32.2939453,12.6328125 C33.3486381,12.6328125 34.1542941,12.8569314 34.7109375,13.3051758 C35.2675809,13.7534202 35.5458984,14.3789022 35.5458984,15.1816406 L35.5458984,19.1982422 C35.5458984,19.5087906 35.6718737,19.6640625 35.9238281,19.6640625 C36.0292974,19.6640625 36.1772451,19.6186528 36.3676758,19.527832 C36.5581064,19.4370113 36.7177728,19.3330084 36.8466797,19.2158203 L36.8466797,20.4638672 C36.0908165,20.9267601 35.3994172,21.1582031 34.7724609,21.1582031 C34.3857403,21.1582031 34.0883799,21.0937506 33.8803711,20.9648438 C33.6723622,20.8359369 33.5273442,20.6074235 33.4453125,20.2792969 C32.6191365,20.8652373 31.7900432,21.1582031 30.9580078,21.1582031 C30.366208,21.1582031 29.8579123,20.9589864 29.4331055,20.5605469 C29.0082987,20.1621074 28.7958984,19.6845731 28.7958984,19.1279297 C28.7958984,18.4189418 29.0068338,17.8593771 29.4287109,17.4492188 C29.850588,17.0390604 30.5888619,16.6816421 31.6435547,16.3769531 L33.3925781,15.8671875 L33.3925781,15.4892578 C33.3925781,14.6865194 32.9062549,14.2851562 31.9335938,14.2851562 C31.4355444,14.2851562 30.9404321,14.3994129 30.4482422,14.6279297 C29.9560522,14.8564465 29.5078145,15.1933571 29.1035156,15.6386719 L29.1035156,13.6962891 C30.0000045,12.9873011 31.0634704,12.6328125 32.2939453,12.6328125 Z M30.9755859,18.8027344 C30.9755859,19.101564 31.0707998,19.341796 31.2612305,19.5234375 C31.4516611,19.705079 31.6874986,19.7958984 31.96875,19.7958984 C32.4433617,19.7958984 32.9179664,19.5791037 33.3925781,19.1455078 L33.3925781,16.9833984 C32.7890595,17.1884776 32.3159197,17.381835 31.9731445,17.5634766 C31.6303694,17.7451181 31.3784188,17.9296866 31.2172852,18.1171875 C31.0561515,18.3046884 30.9755859,18.5332018 30.9755859,18.8027344 Z M42.7265625,12.6328125 C43.0136733,12.6328125 43.2963853,12.697265 43.574707,12.8261719 C43.8530287,12.9550788 44.176756,13.1718735 44.5458984,13.4765625 L43.7724609,15.3662109 C43.1455047,14.8974586 42.6416035,14.6630859 42.2607422,14.6630859 C41.9267561,14.6630859 41.5971696,14.7875964 41.2719727,15.0366211 C40.9467757,15.2856458 40.6860361,15.6152323 40.4897461,16.0253906 C40.293456,16.4355489 40.1953125,16.8457011 40.1953125,17.2558594 L40.1953125,21 L38.0332031,21 L38.0332031,12.7910156 L40.1953125,12.7910156 L40.1953125,14.8828125 L40.2304688,14.8828125 C40.6230488,14.0917929 41.0185527,13.5190447 41.4169922,13.1645508 C41.8154317,12.8100568 42.2519508,12.6328125 42.7265625,12.6328125 Z M47.8066406,10.6113281 L47.9824219,10.6113281 L47.9824219,12.7910156 L50.7949219,12.7910156 L50.7949219,14.4257812 L47.9824219,14.4257812 L47.9824219,18.2138672 C47.9824219,18.5830097 48.0937489,18.8818348 48.3164062,19.1103516 C48.5390636,19.3388683 48.8437481,19.453125 49.2304688,19.453125 C49.7343775,19.453125 50.3144498,19.2714862 50.9707031,18.9082031 L50.9707031,20.6396484 C50.1914024,20.9853533 49.4589878,21.1582031 48.7734375,21.1582031 C47.8476516,21.1582031 47.1254909,20.9062525 46.6069336,20.4023438 C46.0883763,19.898435 45.8291016,19.2158246 45.8291016,18.3544922 L45.8291016,14.4257812 L44.5458984,14.4257812 L44.5458984,14.0742188 L47.8066406,10.6113281 Z M55.875,12.6328125 C57.0820373,12.6328125 58.0371059,13.0195274 58.7402344,13.7929688 C59.4433629,14.5664101 59.7949219,15.6357354 59.7949219,17.0009766 L59.7949219,17.3261719 L53.9853516,17.3261719 C54.0732426,18.0585974 54.3471657,18.6225566 54.8071289,19.0180664 C55.2670921,19.4135762 55.8984335,19.6113281 56.7011719,19.6113281 C57.2167995,19.6113281 57.7133765,19.5219735 58.190918,19.3432617 C58.6684594,19.1645499 59.1621068,18.8935565 59.671875,18.5302734 L59.671875,20.1386719 C58.7109327,20.8183628 57.5449287,21.1582031 56.1738281,21.1582031 C54.8788998,21.1582031 53.8212932,20.7685586 53.0009766,19.9892578 C52.18066,19.209957 51.7705078,18.172858 51.7705078,16.8779297 C51.7705078,15.6298766 52.1498985,14.6103555 52.9086914,13.8193359 C53.6674843,13.0283164 54.6562439,12.6328125 55.875,12.6328125 Z M57.7646484,16.0166016 C57.7060544,15.4189423 57.5244156,14.9516618 57.2197266,14.6147461 C56.9150375,14.2778303 56.4960964,14.109375 55.9628906,14.109375 C55.417966,14.109375 54.9799821,14.2705062 54.6489258,14.5927734 C54.3178694,14.9150407 54.1083989,15.3896453 54.0205078,16.0166016 L57.7646484,16.0166016 Z M66.1845703,12.6328125 C66.4716811,12.6328125 66.7543931,12.697265 67.0327148,12.8261719 C67.3110365,12.9550788 67.6347638,13.1718735 68.0039062,13.4765625 L67.2304688,15.3662109 C66.6035125,14.8974586 66.0996113,14.6630859 65.71875,14.6630859 C65.384764,14.6630859 65.0551774,14.7875964 64.7299805,15.0366211 C64.4047835,15.2856458 64.144044,15.6152323 63.9477539,16.0253906 C63.7514639,16.4355489 63.6533203,16.8457011 63.6533203,17.2558594 L63.6533203,21 L61.4912109,21 L61.4912109,12.7910156 L63.6533203,12.7910156 L63.6533203,14.8828125 L63.6884766,14.8828125 C64.0810567,14.0917929 64.4765605,13.5190447 64.875,13.1645508 C65.2734395,12.8100568 65.7099586,12.6328125 66.1845703,12.6328125 Z" id="Starter" fill="#FFFFFF" fill-rule="evenodd"></path>
            <path d="M17.9130859,9.56347656 C19.1084044,9.56347656 20.2597601,9.8623017 21.3671875,10.4599609 L21.3671875,12.5693359 C20.0956968,11.801754 18.9677784,11.4179688 17.9833984,11.4179688 C17.3857392,11.4179688 16.9184587,11.5336902 16.581543,11.7651367 C16.2446272,11.9965832 16.0761719,12.3056621 16.0761719,12.6923828 C16.0761719,13.1552758 16.3896453,13.5830058 17.0166016,13.9755859 C17.1923837,14.092774 17.8691347,14.4208957 19.046875,14.9599609 C20.0546925,15.4345727 20.7812478,15.9619112 21.2265625,16.5419922 C21.6718772,17.1220732 21.8945312,17.8193319 21.8945312,18.6337891 C21.8945312,19.6884818 21.5151405,20.5395475 20.7563477,21.1870117 C19.9975548,21.8344759 19.0146545,22.1582031 17.8076172,22.1582031 C17.022457,22.1582031 16.3471708,22.0717782 15.7817383,21.8989258 C15.2163058,21.7260734 14.5820348,21.428713 13.8789062,21.0068359 L13.8789062,18.6689453 C15.1914128,19.7587945 16.4277286,20.3037109 17.5878906,20.3037109 C18.1679717,20.3037109 18.636717,20.1777356 18.9941406,19.9257812 C19.3515643,19.6738269 19.5302734,19.3398458 19.5302734,18.9238281 C19.5302734,18.3554659 19.2197297,17.8925799 18.5986328,17.5351562 C18.0830052,17.2539048 17.4179728,16.9169942 16.6035156,16.5244141 C15.6367139,16.0849587 14.9145532,15.5722686 14.4370117,14.9863281 C13.9594703,14.4003877 13.7207031,13.720707 13.7207031,12.9472656 C13.7207031,11.9160105 14.1044883,11.0942413 14.8720703,10.4819336 C15.6396523,9.86962584 16.653314,9.56347656 17.9130859,9.56347656 Z M25.9462891,11.6113281 L26.1220703,11.6113281 L26.1220703,13.7910156 L28.9345703,13.7910156 L28.9345703,15.4257812 L26.1220703,15.4257812 L26.1220703,19.2138672 C26.1220703,19.5830097 26.2333973,19.8818348 26.4560547,20.1103516 C26.6787121,20.3388683 26.9833965,20.453125 27.3701172,20.453125 C27.874026,20.453125 28.4540983,20.2714862 29.1103516,19.9082031 L29.1103516,21.6396484 C28.3310508,21.9853533 27.5986362,22.1582031 26.9130859,22.1582031 C25.9873001,22.1582031 25.2651393,21.9062525 24.746582,21.4023438 C24.2280248,20.898435 23.96875,20.2158246 23.96875,19.3544922 L23.96875,15.4257812 L22.6855469,15.4257812 L22.6855469,15.0742188 L25.9462891,11.6113281 Z M33.2939453,13.6328125 C34.3486381,13.6328125 35.1542941,13.8569314 35.7109375,14.3051758 C36.2675809,14.7534202 36.5458984,15.3789022 36.5458984,16.1816406 L36.5458984,20.1982422 C36.5458984,20.5087906 36.6718737,20.6640625 36.9238281,20.6640625 C37.0292974,20.6640625 37.1772451,20.6186528 37.3676758,20.527832 C37.5581064,20.4370113 37.7177728,20.3330084 37.8466797,20.2158203 L37.8466797,21.4638672 C37.0908165,21.9267601 36.3994172,22.1582031 35.7724609,22.1582031 C35.3857403,22.1582031 35.0883799,22.0937506 34.8803711,21.9648438 C34.6723622,21.8359369 34.5273442,21.6074235 34.4453125,21.2792969 C33.6191365,21.8652373 32.7900432,22.1582031 31.9580078,22.1582031 C31.366208,22.1582031 30.8579123,21.9589864 30.4331055,21.5605469 C30.0082987,21.1621074 29.7958984,20.6845731 29.7958984,20.1279297 C29.7958984,19.4189418 30.0068338,18.8593771 30.4287109,18.4492188 C30.850588,18.0390604 31.5888619,17.6816421 32.6435547,17.3769531 L34.3925781,16.8671875 L34.3925781,16.4892578 C34.3925781,15.6865194 33.9062549,15.2851562 32.9335938,15.2851562 C32.4355444,15.2851562 31.9404321,15.3994129 31.4482422,15.6279297 C30.9560522,15.8564465 30.5078145,16.1933571 30.1035156,16.6386719 L30.1035156,14.6962891 C31.0000045,13.9873011 32.0634704,13.6328125 33.2939453,13.6328125 Z M31.9755859,19.8027344 C31.9755859,20.101564 32.0707998,20.341796 32.2612305,20.5234375 C32.4516611,20.705079 32.6874986,20.7958984 32.96875,20.7958984 C33.4433617,20.7958984 33.9179664,20.5791037 34.3925781,20.1455078 L34.3925781,17.9833984 C33.7890595,18.1884776 33.3159197,18.381835 32.9731445,18.5634766 C32.6303694,18.7451181 32.3784188,18.9296866 32.2172852,19.1171875 C32.0561515,19.3046884 31.9755859,19.5332018 31.9755859,19.8027344 Z M43.7265625,13.6328125 C44.0136733,13.6328125 44.2963853,13.697265 44.574707,13.8261719 C44.8530287,13.9550788 45.176756,14.1718735 45.5458984,14.4765625 L44.7724609,16.3662109 C44.1455047,15.8974586 43.6416035,15.6630859 43.2607422,15.6630859 C42.9267561,15.6630859 42.5971696,15.7875964 42.2719727,16.0366211 C41.9467757,16.2856458 41.6860361,16.6152323 41.4897461,17.0253906 C41.293456,17.4355489 41.1953125,17.8457011 41.1953125,18.2558594 L41.1953125,22 L39.0332031,22 L39.0332031,13.7910156 L41.1953125,13.7910156 L41.1953125,15.8828125 L41.2304688,15.8828125 C41.6230488,15.0917929 42.0185527,14.5190447 42.4169922,14.1645508 C42.8154317,13.8100568 43.2519508,13.6328125 43.7265625,13.6328125 Z M48.8066406,11.6113281 L48.9824219,11.6113281 L48.9824219,13.7910156 L51.7949219,13.7910156 L51.7949219,15.4257812 L48.9824219,15.4257812 L48.9824219,19.2138672 C48.9824219,19.5830097 49.0937489,19.8818348 49.3164062,20.1103516 C49.5390636,20.3388683 49.8437481,20.453125 50.2304688,20.453125 C50.7343775,20.453125 51.3144498,20.2714862 51.9707031,19.9082031 L51.9707031,21.6396484 C51.1914024,21.9853533 50.4589878,22.1582031 49.7734375,22.1582031 C48.8476516,22.1582031 48.1254909,21.9062525 47.6069336,21.4023438 C47.0883763,20.898435 46.8291016,20.2158246 46.8291016,19.3544922 L46.8291016,15.4257812 L45.5458984,15.4257812 L45.5458984,15.0742188 L48.8066406,11.6113281 Z M56.875,13.6328125 C58.0820373,13.6328125 59.0371059,14.0195274 59.7402344,14.7929688 C60.4433629,15.5664101 60.7949219,16.6357354 60.7949219,18.0009766 L60.7949219,18.3261719 L54.9853516,18.3261719 C55.0732426,19.0585974 55.3471657,19.6225566 55.8071289,20.0180664 C56.2670921,20.4135762 56.8984335,20.6113281 57.7011719,20.6113281 C58.2167995,20.6113281 58.7133765,20.5219735 59.190918,20.3432617 C59.6684594,20.1645499 60.1621068,19.8935565 60.671875,19.5302734 L60.671875,21.1386719 C59.7109327,21.8183628 58.5449287,22.1582031 57.1738281,22.1582031 C55.8788998,22.1582031 54.8212932,21.7685586 54.0009766,20.9892578 C53.18066,20.209957 52.7705078,19.172858 52.7705078,17.8779297 C52.7705078,16.6298766 53.1498985,15.6103555 53.9086914,14.8193359 C54.6674843,14.0283164 55.6562439,13.6328125 56.875,13.6328125 Z M58.7646484,17.0166016 C58.7060544,16.4189423 58.5244156,15.9516618 58.2197266,15.6147461 C57.9150375,15.2778303 57.4960964,15.109375 56.9628906,15.109375 C56.417966,15.109375 55.9799821,15.2705062 55.6489258,15.5927734 C55.3178694,15.9150407 55.1083989,16.3896453 55.0205078,17.0166016 L58.7646484,17.0166016 Z M67.1845703,13.6328125 C67.4716811,13.6328125 67.7543931,13.697265 68.0327148,13.8261719 C68.3110365,13.9550788 68.6347638,14.1718735 69.0039062,14.4765625 L68.2304688,16.3662109 C67.6035125,15.8974586 67.0996113,15.6630859 66.71875,15.6630859 C66.384764,15.6630859 66.0551774,15.7875964 65.7299805,16.0366211 C65.4047835,16.2856458 65.144044,16.6152323 64.9477539,17.0253906 C64.7514639,17.4355489 64.6533203,17.8457011 64.6533203,18.2558594 L64.6533203,22 L62.4912109,22 L62.4912109,13.7910156 L64.6533203,13.7910156 L64.6533203,15.8828125 L64.6884766,15.8828125 C65.0810567,15.0917929 65.4765605,14.5190447 65.875,14.1645508 C66.2734395,13.8100568 66.7099586,13.6328125 67.1845703,13.6328125 Z" id="Starter" fill="#4A4A4A" fill-rule="evenodd"></path>
        </g>
        <g transform="translate(143.000000, 17.000000)">
            <polygon id="Rectangle-2" fill="#D1B3F3" fill-rule="nonzero" points="0 0 70.5219559 0 77.9494073 7.77312301 0 12"></polygon>
            <polygon id="Rectangle-Copy" fill="#530DA5" fill-rule="nonzero" points="0 0 3.95639305 6.98954991 3.95639305 50.9603283 0 44"></polygon>
            <rect id="Rectangle" fill="#C08AFF" fill-rule="nonzero" x="4" y="7" width="74" height="44"></rect>
            <path d="M16.9130859,8.56347656 C18.1084044,8.56347656 19.2597601,8.8623017 20.3671875,9.45996094 L20.3671875,11.5693359 C19.0956968,10.801754 17.9677784,10.4179688 16.9833984,10.4179688 C16.3857392,10.4179688 15.9184587,10.5336902 15.581543,10.7651367 C15.2446272,10.9965832 15.0761719,11.3056621 15.0761719,11.6923828 C15.0761719,12.1552758 15.3896453,12.5830058 16.0166016,12.9755859 C16.1923837,13.092774 16.8691347,13.4208957 18.046875,13.9599609 C19.0546925,14.4345727 19.7812478,14.9619112 20.2265625,15.5419922 C20.6718772,16.1220732 20.8945312,16.8193319 20.8945312,17.6337891 C20.8945312,18.6884818 20.5151405,19.5395475 19.7563477,20.1870117 C18.9975548,20.8344759 18.0146545,21.1582031 16.8076172,21.1582031 C16.022457,21.1582031 15.3471708,21.0717782 14.7817383,20.8989258 C14.2163058,20.7260734 13.5820348,20.428713 12.8789062,20.0068359 L12.8789062,17.6689453 C14.1914128,18.7587945 15.4277286,19.3037109 16.5878906,19.3037109 C17.1679717,19.3037109 17.636717,19.1777356 17.9941406,18.9257812 C18.3515643,18.6738269 18.5302734,18.3398458 18.5302734,17.9238281 C18.5302734,17.3554659 18.2197297,16.8925799 17.5986328,16.5351562 C17.0830052,16.2539048 16.4179728,15.9169942 15.6035156,15.5244141 C14.6367139,15.0849587 13.9145532,14.5722686 13.4370117,13.9863281 C12.9594703,13.4003877 12.7207031,12.720707 12.7207031,11.9472656 C12.7207031,10.9160105 13.1044883,10.0942413 13.8720703,9.48193359 C14.6396523,8.86962584 15.653314,8.56347656 16.9130859,8.56347656 Z M24.9462891,10.6113281 L25.1220703,10.6113281 L25.1220703,12.7910156 L27.9345703,12.7910156 L27.9345703,14.4257812 L25.1220703,14.4257812 L25.1220703,18.2138672 C25.1220703,18.5830097 25.2333973,18.8818348 25.4560547,19.1103516 C25.6787121,19.3388683 25.9833965,19.453125 26.3701172,19.453125 C26.874026,19.453125 27.4540983,19.2714862 28.1103516,18.9082031 L28.1103516,20.6396484 C27.3310508,20.9853533 26.5986362,21.1582031 25.9130859,21.1582031 C24.9873001,21.1582031 24.2651393,20.9062525 23.746582,20.4023438 C23.2280248,19.898435 22.96875,19.2158246 22.96875,18.3544922 L22.96875,14.4257812 L21.6855469,14.4257812 L21.6855469,14.0742188 L24.9462891,10.6113281 Z M32.2939453,12.6328125 C33.3486381,12.6328125 34.1542941,12.8569314 34.7109375,13.3051758 C35.2675809,13.7534202 35.5458984,14.3789022 35.5458984,15.1816406 L35.5458984,19.1982422 C35.5458984,19.5087906 35.6718737,19.6640625 35.9238281,19.6640625 C36.0292974,19.6640625 36.1772451,19.6186528 36.3676758,19.527832 C36.5581064,19.4370113 36.7177728,19.3330084 36.8466797,19.2158203 L36.8466797,20.4638672 C36.0908165,20.9267601 35.3994172,21.1582031 34.7724609,21.1582031 C34.3857403,21.1582031 34.0883799,21.0937506 33.8803711,20.9648438 C33.6723622,20.8359369 33.5273442,20.6074235 33.4453125,20.2792969 C32.6191365,20.8652373 31.7900432,21.1582031 30.9580078,21.1582031 C30.366208,21.1582031 29.8579123,20.9589864 29.4331055,20.5605469 C29.0082987,20.1621074 28.7958984,19.6845731 28.7958984,19.1279297 C28.7958984,18.4189418 29.0068338,17.8593771 29.4287109,17.4492188 C29.850588,17.0390604 30.5888619,16.6816421 31.6435547,16.3769531 L33.3925781,15.8671875 L33.3925781,15.4892578 C33.3925781,14.6865194 32.9062549,14.2851562 31.9335938,14.2851562 C31.4355444,14.2851562 30.9404321,14.3994129 30.4482422,14.6279297 C29.9560522,14.8564465 29.5078145,15.1933571 29.1035156,15.6386719 L29.1035156,13.6962891 C30.0000045,12.9873011 31.0634704,12.6328125 32.2939453,12.6328125 Z M30.9755859,18.8027344 C30.9755859,19.101564 31.0707998,19.341796 31.2612305,19.5234375 C31.4516611,19.705079 31.6874986,19.7958984 31.96875,19.7958984 C32.4433617,19.7958984 32.9179664,19.5791037 33.3925781,19.1455078 L33.3925781,16.9833984 C32.7890595,17.1884776 32.3159197,17.381835 31.9731445,17.5634766 C31.6303694,17.7451181 31.3784188,17.9296866 31.2172852,18.1171875 C31.0561515,18.3046884 30.9755859,18.5332018 30.9755859,18.8027344 Z M42.7265625,12.6328125 C43.0136733,12.6328125 43.2963853,12.697265 43.574707,12.8261719 C43.8530287,12.9550788 44.176756,13.1718735 44.5458984,13.4765625 L43.7724609,15.3662109 C43.1455047,14.8974586 42.6416035,14.6630859 42.2607422,14.6630859 C41.9267561,14.6630859 41.5971696,14.7875964 41.2719727,15.0366211 C40.9467757,15.2856458 40.6860361,15.6152323 40.4897461,16.0253906 C40.293456,16.4355489 40.1953125,16.8457011 40.1953125,17.2558594 L40.1953125,21 L38.0332031,21 L38.0332031,12.7910156 L40.1953125,12.7910156 L40.1953125,14.8828125 L40.2304688,14.8828125 C40.6230488,14.0917929 41.0185527,13.5190447 41.4169922,13.1645508 C41.8154317,12.8100568 42.2519508,12.6328125 42.7265625,12.6328125 Z M47.8066406,10.6113281 L47.9824219,10.6113281 L47.9824219,12.7910156 L50.7949219,12.7910156 L50.7949219,14.4257812 L47.9824219,14.4257812 L47.9824219,18.2138672 C47.9824219,18.5830097 48.0937489,18.8818348 48.3164062,19.1103516 C48.5390636,19.3388683 48.8437481,19.453125 49.2304688,19.453125 C49.7343775,19.453125 50.3144498,19.2714862 50.9707031,18.9082031 L50.9707031,20.6396484 C50.1914024,20.9853533 49.4589878,21.1582031 48.7734375,21.1582031 C47.8476516,21.1582031 47.1254909,20.9062525 46.6069336,20.4023438 C46.0883763,19.898435 45.8291016,19.2158246 45.8291016,18.3544922 L45.8291016,14.4257812 L44.5458984,14.4257812 L44.5458984,14.0742188 L47.8066406,10.6113281 Z M55.875,12.6328125 C57.0820373,12.6328125 58.0371059,13.0195274 58.7402344,13.7929688 C59.4433629,14.5664101 59.7949219,15.6357354 59.7949219,17.0009766 L59.7949219,17.3261719 L53.9853516,17.3261719 C54.0732426,18.0585974 54.3471657,18.6225566 54.8071289,19.0180664 C55.2670921,19.4135762 55.8984335,19.6113281 56.7011719,19.6113281 C57.2167995,19.6113281 57.7133765,19.5219735 58.190918,19.3432617 C58.6684594,19.1645499 59.1621068,18.8935565 59.671875,18.5302734 L59.671875,20.1386719 C58.7109327,20.8183628 57.5449287,21.1582031 56.1738281,21.1582031 C54.8788998,21.1582031 53.8212932,20.7685586 53.0009766,19.9892578 C52.18066,19.209957 51.7705078,18.172858 51.7705078,16.8779297 C51.7705078,15.6298766 52.1498985,14.6103555 52.9086914,13.8193359 C53.6674843,13.0283164 54.6562439,12.6328125 55.875,12.6328125 Z M57.7646484,16.0166016 C57.7060544,15.4189423 57.5244156,14.9516618 57.2197266,14.6147461 C56.9150375,14.2778303 56.4960964,14.109375 55.9628906,14.109375 C55.417966,14.109375 54.9799821,14.2705062 54.6489258,14.5927734 C54.3178694,14.9150407 54.1083989,15.3896453 54.0205078,16.0166016 L57.7646484,16.0166016 Z M66.1845703,12.6328125 C66.4716811,12.6328125 66.7543931,12.697265 67.0327148,12.8261719 C67.3110365,12.9550788 67.6347638,13.1718735 68.0039062,13.4765625 L67.2304688,15.3662109 C66.6035125,14.8974586 66.0996113,14.6630859 65.71875,14.6630859 C65.384764,14.6630859 65.0551774,14.7875964 64.7299805,15.0366211 C64.4047835,15.2856458 64.144044,15.6152323 63.9477539,16.0253906 C63.7514639,16.4355489 63.6533203,16.8457011 63.6533203,17.2558594 L63.6533203,21 L61.4912109,21 L61.4912109,12.7910156 L63.6533203,12.7910156 L63.6533203,14.8828125 L63.6884766,14.8828125 C64.0810567,14.0917929 64.4765605,13.5190447 64.875,13.1645508 C65.2734395,12.8100568 65.7099586,12.6328125 66.1845703,12.6328125 Z" id="Starter" fill="#FFFFFF" fill-rule="evenodd"></path>
            <path d="M17.9130859,9.56347656 C19.1084044,9.56347656 20.2597601,9.8623017 21.3671875,10.4599609 L21.3671875,12.5693359 C20.0956968,11.801754 18.9677784,11.4179688 17.9833984,11.4179688 C17.3857392,11.4179688 16.9184587,11.5336902 16.581543,11.7651367 C16.2446272,11.9965832 16.0761719,12.3056621 16.0761719,12.6923828 C16.0761719,13.1552758 16.3896453,13.5830058 17.0166016,13.9755859 C17.1923837,14.092774 17.8691347,14.4208957 19.046875,14.9599609 C20.0546925,15.4345727 20.7812478,15.9619112 21.2265625,16.5419922 C21.6718772,17.1220732 21.8945312,17.8193319 21.8945312,18.6337891 C21.8945312,19.6884818 21.5151405,20.5395475 20.7563477,21.1870117 C19.9975548,21.8344759 19.0146545,22.1582031 17.8076172,22.1582031 C17.022457,22.1582031 16.3471708,22.0717782 15.7817383,21.8989258 C15.2163058,21.7260734 14.5820348,21.428713 13.8789062,21.0068359 L13.8789062,18.6689453 C15.1914128,19.7587945 16.4277286,20.3037109 17.5878906,20.3037109 C18.1679717,20.3037109 18.636717,20.1777356 18.9941406,19.9257812 C19.3515643,19.6738269 19.5302734,19.3398458 19.5302734,18.9238281 C19.5302734,18.3554659 19.2197297,17.8925799 18.5986328,17.5351562 C18.0830052,17.2539048 17.4179728,16.9169942 16.6035156,16.5244141 C15.6367139,16.0849587 14.9145532,15.5722686 14.4370117,14.9863281 C13.9594703,14.4003877 13.7207031,13.720707 13.7207031,12.9472656 C13.7207031,11.9160105 14.1044883,11.0942413 14.8720703,10.4819336 C15.6396523,9.86962584 16.653314,9.56347656 17.9130859,9.56347656 Z M25.9462891,11.6113281 L26.1220703,11.6113281 L26.1220703,13.7910156 L28.9345703,13.7910156 L28.9345703,15.4257812 L26.1220703,15.4257812 L26.1220703,19.2138672 C26.1220703,19.5830097 26.2333973,19.8818348 26.4560547,20.1103516 C26.6787121,20.3388683 26.9833965,20.453125 27.3701172,20.453125 C27.874026,20.453125 28.4540983,20.2714862 29.1103516,19.9082031 L29.1103516,21.6396484 C28.3310508,21.9853533 27.5986362,22.1582031 26.9130859,22.1582031 C25.9873001,22.1582031 25.2651393,21.9062525 24.746582,21.4023438 C24.2280248,20.898435 23.96875,20.2158246 23.96875,19.3544922 L23.96875,15.4257812 L22.6855469,15.4257812 L22.6855469,15.0742188 L25.9462891,11.6113281 Z M33.2939453,13.6328125 C34.3486381,13.6328125 35.1542941,13.8569314 35.7109375,14.3051758 C36.2675809,14.7534202 36.5458984,15.3789022 36.5458984,16.1816406 L36.5458984,20.1982422 C36.5458984,20.5087906 36.6718737,20.6640625 36.9238281,20.6640625 C37.0292974,20.6640625 37.1772451,20.6186528 37.3676758,20.527832 C37.5581064,20.4370113 37.7177728,20.3330084 37.8466797,20.2158203 L37.8466797,21.4638672 C37.0908165,21.9267601 36.3994172,22.1582031 35.7724609,22.1582031 C35.3857403,22.1582031 35.0883799,22.0937506 34.8803711,21.9648438 C34.6723622,21.8359369 34.5273442,21.6074235 34.4453125,21.2792969 C33.6191365,21.8652373 32.7900432,22.1582031 31.9580078,22.1582031 C31.366208,22.1582031 30.8579123,21.9589864 30.4331055,21.5605469 C30.0082987,21.1621074 29.7958984,20.6845731 29.7958984,20.1279297 C29.7958984,19.4189418 30.0068338,18.8593771 30.4287109,18.4492188 C30.850588,18.0390604 31.5888619,17.6816421 32.6435547,17.3769531 L34.3925781,16.8671875 L34.3925781,16.4892578 C34.3925781,15.6865194 33.9062549,15.2851562 32.9335938,15.2851562 C32.4355444,15.2851562 31.9404321,15.3994129 31.4482422,15.6279297 C30.9560522,15.8564465 30.5078145,16.1933571 30.1035156,16.6386719 L30.1035156,14.6962891 C31.0000045,13.9873011 32.0634704,13.6328125 33.2939453,13.6328125 Z M31.9755859,19.8027344 C31.9755859,20.101564 32.0707998,20.341796 32.2612305,20.5234375 C32.4516611,20.705079 32.6874986,20.7958984 32.96875,20.7958984 C33.4433617,20.7958984 33.9179664,20.5791037 34.3925781,20.1455078 L34.3925781,17.9833984 C33.7890595,18.1884776 33.3159197,18.381835 32.9731445,18.5634766 C32.6303694,18.7451181 32.3784188,18.9296866 32.2172852,19.1171875 C32.0561515,19.3046884 31.9755859,19.5332018 31.9755859,19.8027344 Z M43.7265625,13.6328125 C44.0136733,13.6328125 44.2963853,13.697265 44.574707,13.8261719 C44.8530287,13.9550788 45.176756,14.1718735 45.5458984,14.4765625 L44.7724609,16.3662109 C44.1455047,15.8974586 43.6416035,15.6630859 43.2607422,15.6630859 C42.9267561,15.6630859 42.5971696,15.7875964 42.2719727,16.0366211 C41.9467757,16.2856458 41.6860361,16.6152323 41.4897461,17.0253906 C41.293456,17.4355489 41.1953125,17.8457011 41.1953125,18.2558594 L41.1953125,22 L39.0332031,22 L39.0332031,13.7910156 L41.1953125,13.7910156 L41.1953125,15.8828125 L41.2304688,15.8828125 C41.6230488,15.0917929 42.0185527,14.5190447 42.4169922,14.1645508 C42.8154317,13.8100568 43.2519508,13.6328125 43.7265625,13.6328125 Z M48.8066406,11.6113281 L48.9824219,11.6113281 L48.9824219,13.7910156 L51.7949219,13.7910156 L51.7949219,15.4257812 L48.9824219,15.4257812 L48.9824219,19.2138672 C48.9824219,19.5830097 49.0937489,19.8818348 49.3164062,20.1103516 C49.5390636,20.3388683 49.8437481,20.453125 50.2304688,20.453125 C50.7343775,20.453125 51.3144498,20.2714862 51.9707031,19.9082031 L51.9707031,21.6396484 C51.1914024,21.9853533 50.4589878,22.1582031 49.7734375,22.1582031 C48.8476516,22.1582031 48.1254909,21.9062525 47.6069336,21.4023438 C47.0883763,20.898435 46.8291016,20.2158246 46.8291016,19.3544922 L46.8291016,15.4257812 L45.5458984,15.4257812 L45.5458984,15.0742188 L48.8066406,11.6113281 Z M56.875,13.6328125 C58.0820373,13.6328125 59.0371059,14.0195274 59.7402344,14.7929688 C60.4433629,15.5664101 60.7949219,16.6357354 60.7949219,18.0009766 L60.7949219,18.3261719 L54.9853516,18.3261719 C55.0732426,19.0585974 55.3471657,19.6225566 55.8071289,20.0180664 C56.2670921,20.4135762 56.8984335,20.6113281 57.7011719,20.6113281 C58.2167995,20.6113281 58.7133765,20.5219735 59.190918,20.3432617 C59.6684594,20.1645499 60.1621068,19.8935565 60.671875,19.5302734 L60.671875,21.1386719 C59.7109327,21.8183628 58.5449287,22.1582031 57.1738281,22.1582031 C55.8788998,22.1582031 54.8212932,21.7685586 54.0009766,20.9892578 C53.18066,20.209957 52.7705078,19.172858 52.7705078,17.8779297 C52.7705078,16.6298766 53.1498985,15.6103555 53.9086914,14.8193359 C54.6674843,14.0283164 55.6562439,13.6328125 56.875,13.6328125 Z M58.7646484,17.0166016 C58.7060544,16.4189423 58.5244156,15.9516618 58.2197266,15.6147461 C57.9150375,15.2778303 57.4960964,15.109375 56.9628906,15.109375 C56.417966,15.109375 55.9799821,15.2705062 55.6489258,15.5927734 C55.3178694,15.9150407 55.1083989,16.3896453 55.0205078,17.0166016 L58.7646484,17.0166016 Z M67.1845703,13.6328125 C67.4716811,13.6328125 67.7543931,13.697265 68.0327148,13.8261719 C68.3110365,13.9550788 68.6347638,14.1718735 69.0039062,14.4765625 L68.2304688,16.3662109 C67.6035125,15.8974586 67.0996113,15.6630859 66.71875,15.6630859 C66.384764,15.6630859 66.0551774,15.7875964 65.7299805,16.0366211 C65.4047835,16.2856458 65.144044,16.6152323 64.9477539,17.0253906 C64.7514639,17.4355489 64.6533203,17.8457011 64.6533203,18.2558594 L64.6533203,22 L62.4912109,22 L62.4912109,13.7910156 L64.6533203,13.7910156 L64.6533203,15.8828125 L64.6884766,15.8828125 C65.0810567,15.0917929 65.4765605,14.5190447 65.875,14.1645508 C66.2734395,13.8100568 66.7099586,13.6328125 67.1845703,13.6328125 Z" id="Starter" fill="#4A4A4A" fill-rule="evenodd"></path>
        </g>
        <g id="state" transform="translate(57.000000, 32.000000)">
            <polygon id="Rectangle-2" fill="#C5E8E0" fill-rule="nonzero" points="0 0 70.5219559 0 77.9494073 7.77312301 0 12"></polygon>
            <polygon id="Rectangle-Copy" fill="#186655" fill-rule="nonzero" points="0 0 3.95639305 6.98954991 3.95639305 35.9603283 0 29"></polygon>
            <rect id="Rectangle" fill="#7DD0BE" fill-rule="nonzero" x="4" y="7" width="74" height="28"></rect>
            <path d="M20.1621094,20.0644531 C20.1621094,20.9108115 19.9456402,21.6432261 19.5126953,22.2617188 C19.0797504,22.8802114 18.4759153,23.3538395 17.7011719,23.6826172 C16.9264284,24.0113949 16.0377654,24.1757812 15.0351562,24.1757812 C14.7552069,24.1757812 14.4117859,24.1578778 14.0048828,24.1220703 C13.5979797,24.0862628 13.0576206,23.98698 12.3837891,23.8242188 C11.7099576,23.6614575 11.0084672,23.4205745 10.2792969,23.1015625 L10.2792969,19.78125 C10.962894,20.2044292 11.6350878,20.5559882 12.2958984,20.8359375 C12.956709,21.1158868 13.6647098,21.2558594 14.4199219,21.2558594 C15.1165399,21.2558594 15.5673818,21.1403006 15.7724609,20.9091797 C15.9775401,20.6780587 16.0800781,20.4615896 16.0800781,20.2597656 C16.0800781,19.8951805 15.9042986,19.5875664 15.5527344,19.3369141 C15.2011701,19.0862618 14.6901075,18.8274753 14.0195312,18.5605469 C13.27734,18.2480453 12.6263049,17.9078794 12.0664062,17.5400391 C11.5065076,17.1721987 11.0491554,16.7115913 10.6943359,16.1582031 C10.3395165,15.6048149 10.1621094,14.9505246 10.1621094,14.1953125 C10.1621094,13.4661422 10.341144,12.8069691 10.6992188,12.2177734 C11.0572935,11.6285778 11.604163,11.1582049 12.3398438,10.8066406 C13.0755245,10.4550764 13.973953,10.2792969 15.0351562,10.2792969 C15.7903684,10.2792969 16.4886036,10.3525383 17.1298828,10.4990234 C17.7711621,10.6455085 18.3001281,10.8098949 18.7167969,10.9921875 C19.1334656,11.1744801 19.4199211,11.3177078 19.5761719,11.421875 L19.5761719,14.5957031 C19.0227837,14.1985657 18.4059279,13.8437516 17.7255859,13.53125 C17.045244,13.2187484 16.3177122,13.0625 15.5429688,13.0625 C15.0351537,13.0625 14.6673188,13.1601553 14.4394531,13.3554688 C14.2115874,13.5507822 14.0976562,13.7916652 14.0976562,14.078125 C14.0976562,14.3450534 14.2115874,14.5761709 14.4394531,14.7714844 C14.6673188,14.9667979 15.0742158,15.2044257 15.6601562,15.484375 C16.7018281,15.9726587 17.5351531,16.4121074 18.1601562,16.8027344 C18.7851594,17.1933613 19.2750633,17.6442032 19.6298828,18.1552734 C19.9847023,18.6663437 20.1621094,19.3027306 20.1621094,20.0644531 Z M30.2011719,23.4238281 C29.8365867,23.5996103 29.3336621,23.7688794 28.6923828,23.9316406 C28.0511036,24.0944019 27.4375029,24.1757812 26.8515625,24.1757812 C24.3189978,24.1757812 23.0527344,22.9388145 23.0527344,20.4648438 L23.0527344,16.5 L21.4609375,16.5 L21.4609375,15.8847656 L26.1777344,11.0800781 L26.578125,11.0800781 L26.578125,14.0585938 L29.9375,14.0585938 L29.9375,16.5 L26.578125,16.5 L26.578125,19.6835938 C26.578125,20.0546894 26.6009112,20.3541655 26.6464844,20.5820312 C26.6920575,20.809897 26.820637,21.0003248 27.0322266,21.1533203 C27.2438162,21.3063159 27.564451,21.3828125 27.9941406,21.3828125 C28.5540393,21.3828125 29.289709,21.1484398 30.2011719,20.6796875 L30.2011719,23.4238281 Z M42.0566406,23.5019531 C41.5423151,23.7037771 41.0670595,23.8665358 40.6308594,23.9902344 C40.1946593,24.1139329 39.670576,24.1757812 39.0585938,24.1757812 C38.4791638,24.1757812 38.075522,24.0732432 37.8476562,23.8681641 C37.6197905,23.6630849 37.4570317,23.414064 37.359375,23.1210938 C36.9817689,23.4270849 36.5618513,23.679361 36.0996094,23.8779297 C35.6373675,24.0764984 35.0319048,24.1757812 34.2832031,24.1757812 C33.5605433,24.1757812 32.9762392,24.050457 32.5302734,23.7998047 C32.0843077,23.5491524 31.7718108,23.2334003 31.5927734,22.8525391 C31.4137361,22.4716778 31.3242188,22.0794291 31.3242188,21.6757812 C31.3242188,21.063799 31.4788396,20.5576192 31.7880859,20.1572266 C32.0973323,19.7568339 32.5123672,19.4296888 33.0332031,19.1757812 C33.5540391,18.9218737 34.2441363,18.6582045 35.1035156,18.3847656 C35.5917993,18.2285148 35.9612618,18.1097009 36.2119141,18.0283203 C36.4625664,17.9469397 36.649739,17.8834638 36.7734375,17.8378906 C36.897136,17.7923175 37.0273431,17.7337243 37.1640625,17.6621094 C37.1640625,17.1803361 37.0664072,16.8027357 36.8710938,16.5292969 C36.6757803,16.255858 36.2526074,16.1191406 35.6015625,16.1191406 C34.8333295,16.1191406 34.120446,16.2884098 33.4628906,16.6269531 C32.8053353,16.9654965 32.2031277,17.40169 31.65625,17.9355469 L31.65625,15.2402344 C32.0924501,14.9277328 32.5644506,14.6722015 33.0722656,14.4736328 C33.5800807,14.2750641 34.1106743,14.1269536 34.6640625,14.0292969 C35.2174507,13.9316401 35.7773409,13.8828125 36.34375,13.8828125 C37.7825593,13.8828125 38.8649052,14.16113 39.5908203,14.7177734 C40.3167354,15.2744168 40.6796875,16.0410107 40.6796875,17.0175781 L40.6796875,20.8554688 C40.6796875,21.2200539 40.7138668,21.4918611 40.7822266,21.6708984 C40.8505863,21.8499358 40.9759105,21.9394531 41.1582031,21.9394531 C41.3795584,21.9394531 41.6790346,21.845053 42.0566406,21.65625 L42.0566406,23.5019531 Z M37.1640625,21.5976562 L37.1640625,19.2441406 C36.330725,19.582684 35.7220071,19.8870429 35.3378906,20.1572266 C34.9537741,20.4274102 34.7617188,20.7936175 34.7617188,21.2558594 C34.7617188,21.5878923 34.8577464,21.841796 35.0498047,22.0175781 C35.2418629,22.1933603 35.4648425,22.28125 35.71875,22.28125 C35.9596366,22.28125 36.198892,22.2145189 36.4365234,22.0810547 C36.6741548,21.9475905 36.9166654,21.7864593 37.1640625,21.5976562 Z M51.0019531,23.4238281 C50.637368,23.5996103 50.1344433,23.7688794 49.4931641,23.9316406 C48.8518848,24.0944019 48.2382842,24.1757812 47.6523438,24.1757812 C45.119779,24.1757812 43.8535156,22.9388145 43.8535156,20.4648438 L43.8535156,16.5 L42.2617188,16.5 L42.2617188,15.8847656 L46.9785156,11.0800781 L47.3789062,11.0800781 L47.3789062,14.0585938 L50.7382812,14.0585938 L50.7382812,16.5 L47.3789062,16.5 L47.3789062,19.6835938 C47.3789062,20.0546894 47.4016925,20.3541655 47.4472656,20.5820312 C47.4928388,20.809897 47.6214182,21.0003248 47.8330078,21.1533203 C48.0445974,21.3063159 48.3652322,21.3828125 48.7949219,21.3828125 C49.3548205,21.3828125 50.0904902,21.1484398 51.0019531,20.6796875 L51.0019531,23.4238281 Z M62.7402344,19.8789062 L55.7382812,19.8789062 C55.8750007,20.484378 56.2102838,20.9791647 56.7441406,21.3632812 C57.2779975,21.7473978 57.8834602,21.9394531 58.5605469,21.9394531 C59.7454486,21.9394531 61.0540293,21.6074252 62.4863281,20.9433594 L62.4863281,23.1210938 C61.9720026,23.3880222 61.3486365,23.6305328 60.6162109,23.8486328 C59.8837854,24.0667329 58.9511775,24.1757812 57.8183594,24.1757812 C56.5943949,24.1757812 55.5527387,23.9479189 54.6933594,23.4921875 C53.8339801,23.0364561 53.1910829,22.4179727 52.7646484,21.6367188 C52.338214,20.8554648 52.125,19.970057 52.125,18.9804688 C52.125,18.0039014 52.338214,17.1298867 52.7646484,16.3583984 C53.1910829,15.5869102 53.8339801,14.9814475 54.6933594,14.5419922 C55.5527387,14.1025369 56.5943949,13.8828125 57.8183594,13.8828125 C58.6256551,13.8828125 59.4052697,14.0569644 60.1572266,14.4052734 C60.9091834,14.7535825 61.5276668,15.3232382 62.0126953,16.1142578 C62.4977238,16.9052774 62.7402344,17.925775 62.7402344,19.1757812 L62.7402344,19.8789062 Z M59.4394531,18.140625 C59.4394531,17.502601 59.2815771,16.993166 58.9658203,16.6123047 C58.6500635,16.2314434 58.1959665,16.0410156 57.6035156,16.0410156 C57.0175752,16.0410156 56.5439471,16.2346986 56.1826172,16.6220703 C55.8212873,17.009442 55.640625,17.5156219 55.640625,18.140625 L59.4394531,18.140625 Z" id="State-Copy" fill="#FFFFFF" fill-rule="evenodd"></path>
            <path d="M21,20.7851562 C21,21.6315146 20.7835308,22.3639292 20.3505859,22.9824219 C19.9176411,23.6009146 19.313806,24.0745426 18.5390625,24.4033203 C17.764319,24.732098 16.8756561,24.8964844 15.8730469,24.8964844 C15.5930976,24.8964844 15.2496765,24.8785809 14.8427734,24.8427734 C14.4358704,24.806966 13.8955112,24.7076831 13.2216797,24.5449219 C12.5478482,24.3821606 11.8463578,24.1412776 11.1171875,23.8222656 L11.1171875,20.5019531 C11.8007847,20.9251323 12.4729785,21.2766913 13.1337891,21.5566406 C13.7945997,21.8365899 14.5026004,21.9765625 15.2578125,21.9765625 C15.9544306,21.9765625 16.4052724,21.8610038 16.6103516,21.6298828 C16.8154307,21.3987619 16.9179688,21.1822927 16.9179688,20.9804688 C16.9179688,20.6158836 16.7421893,20.3082695 16.390625,20.0576172 C16.0390607,19.8069649 15.5279981,19.5481784 14.8574219,19.28125 C14.1152307,18.9687484 13.4641955,18.6285826 12.9042969,18.2607422 C12.3443982,17.8929018 11.887046,17.4322944 11.5322266,16.8789062 C11.1774071,16.3255181 11,15.6712277 11,14.9160156 C11,14.1868453 11.1790347,13.5276722 11.5371094,12.9384766 C11.8951841,12.3492809 12.4420536,11.878908 13.1777344,11.5273438 C13.9134151,11.1757795 14.8118437,11 15.8730469,11 C16.628259,11 17.3264942,11.0732415 17.9677734,11.2197266 C18.6090527,11.3662117 19.1380188,11.530598 19.5546875,11.7128906 C19.9713562,11.8951832 20.2578117,12.0384109 20.4140625,12.1425781 L20.4140625,15.3164062 C19.8606743,14.9192688 19.2438185,14.5644547 18.5634766,14.2519531 C17.8831346,13.9394516 17.1556028,13.7832031 16.3808594,13.7832031 C15.8730443,13.7832031 15.5052095,13.8808584 15.2773438,14.0761719 C15.049478,14.2714854 14.9355469,14.5123684 14.9355469,14.7988281 C14.9355469,15.0657565 15.049478,15.296874 15.2773438,15.4921875 C15.5052095,15.687501 15.9121064,15.9251288 16.4980469,16.2050781 C17.5397187,16.6933618 18.3730438,17.1328105 18.9980469,17.5234375 C19.62305,17.9140645 20.112954,18.3649063 20.4677734,18.8759766 C20.8225929,19.3870468 21,20.0234337 21,20.7851562 Z M31.0390625,24.1445312 C30.6744773,24.3203134 30.1715527,24.4895825 29.5302734,24.6523438 C28.8889942,24.815105 28.2753936,24.8964844 27.6894531,24.8964844 C25.1568884,24.8964844 23.890625,23.6595176 23.890625,21.1855469 L23.890625,17.2207031 L22.2988281,17.2207031 L22.2988281,16.6054688 L27.015625,11.8007812 L27.4160156,11.8007812 L27.4160156,14.7792969 L30.7753906,14.7792969 L30.7753906,17.2207031 L27.4160156,17.2207031 L27.4160156,20.4042969 C27.4160156,20.7753925 27.4388019,21.0748687 27.484375,21.3027344 C27.5299481,21.5306001 27.6585276,21.7210279 27.8701172,21.8740234 C28.0817068,22.027019 28.4023416,22.1035156 28.8320312,22.1035156 C29.3919299,22.1035156 30.1275996,21.869143 31.0390625,21.4003906 L31.0390625,24.1445312 Z M42.8945312,24.2226562 C42.3802058,24.4244802 41.9049501,24.587239 41.46875,24.7109375 C41.0325499,24.834636 40.5084666,24.8964844 39.8964844,24.8964844 C39.3170544,24.8964844 38.9134126,24.7939463 38.6855469,24.5888672 C38.4576812,24.383788 38.2949224,24.1347671 38.1972656,23.8417969 C37.8196596,24.147788 37.3997419,24.4000641 36.9375,24.5986328 C36.4752581,24.7972015 35.8697954,24.8964844 35.1210938,24.8964844 C34.3984339,24.8964844 33.8141298,24.7711601 33.3681641,24.5205078 C32.9221983,24.2698555 32.6097014,23.9541035 32.4306641,23.5732422 C32.2516267,23.1923809 32.1621094,22.8001322 32.1621094,22.3964844 C32.1621094,21.7845021 32.3167302,21.2783223 32.6259766,20.8779297 C32.9352229,20.4775371 33.3502578,20.1503919 33.8710938,19.8964844 C34.3919297,19.6425769 35.082027,19.3789076 35.9414062,19.1054688 C36.4296899,18.949218 36.7991524,18.8304041 37.0498047,18.7490234 C37.300457,18.6676428 37.4876296,18.6041669 37.6113281,18.5585938 C37.7350267,18.5130206 37.8652337,18.4544274 38.0019531,18.3828125 C38.0019531,17.9010393 37.9042979,17.5234389 37.7089844,17.25 C37.5136709,16.9765611 37.090498,16.8398438 36.4394531,16.8398438 C35.6712201,16.8398438 34.9583366,17.0091129 34.3007812,17.3476562 C33.6432259,17.6861996 33.0410184,18.1223932 32.4941406,18.65625 L32.4941406,15.9609375 C32.9303407,15.6484359 33.4023412,15.3929046 33.9101562,15.1943359 C34.4179713,14.9957672 34.9485649,14.8476567 35.5019531,14.75 C36.0553413,14.6523433 36.6152315,14.6035156 37.1816406,14.6035156 C38.6204499,14.6035156 39.7027958,14.8818332 40.4287109,15.4384766 C41.154626,15.99512 41.5175781,16.7617139 41.5175781,17.7382812 L41.5175781,21.5761719 C41.5175781,21.940757 41.5517575,22.2125642 41.6201172,22.3916016 C41.6884769,22.5706389 41.8138012,22.6601562 41.9960938,22.6601562 C42.217449,22.6601562 42.5169252,22.5657562 42.8945312,22.3769531 L42.8945312,24.2226562 Z M38.0019531,22.3183594 L38.0019531,19.9648438 C37.1686156,20.3033871 36.5598978,20.607746 36.1757812,20.8779297 C35.7916647,21.1481133 35.5996094,21.5143206 35.5996094,21.9765625 C35.5996094,22.3085954 35.6956371,22.5624991 35.8876953,22.7382812 C36.0797536,22.9140634 36.3027331,23.0019531 36.5566406,23.0019531 C36.7975272,23.0019531 37.0367827,22.935222 37.2744141,22.8017578 C37.5120455,22.6682936 37.7545561,22.5071624 38.0019531,22.3183594 Z M51.8398438,24.1445312 C51.4752586,24.3203134 50.9723339,24.4895825 50.3310547,24.6523438 C49.6897754,24.815105 49.0761748,24.8964844 48.4902344,24.8964844 C45.9576696,24.8964844 44.6914062,23.6595176 44.6914062,21.1855469 L44.6914062,17.2207031 L43.0996094,17.2207031 L43.0996094,16.6054688 L47.8164062,11.8007812 L48.2167969,11.8007812 L48.2167969,14.7792969 L51.5761719,14.7792969 L51.5761719,17.2207031 L48.2167969,17.2207031 L48.2167969,20.4042969 C48.2167969,20.7753925 48.2395831,21.0748687 48.2851562,21.3027344 C48.3307294,21.5306001 48.4593088,21.7210279 48.6708984,21.8740234 C48.882488,22.027019 49.2031229,22.1035156 49.6328125,22.1035156 C50.1927111,22.1035156 50.9283809,21.869143 51.8398438,21.4003906 L51.8398438,24.1445312 Z M63.578125,20.5996094 L56.5761719,20.5996094 C56.7128913,21.2050812 57.0481744,21.6998679 57.5820312,22.0839844 C58.1158881,22.4681009 58.7213508,22.6601562 59.3984375,22.6601562 C60.5833393,22.6601562 61.8919199,22.3281283 63.3242188,21.6640625 L63.3242188,23.8417969 C62.8098933,24.1087253 62.1865271,24.3512359 61.4541016,24.5693359 C60.721676,24.787436 59.7890682,24.8964844 58.65625,24.8964844 C57.4322855,24.8964844 56.3906293,24.6686221 55.53125,24.2128906 C54.6718707,23.7571592 54.0289735,23.1386758 53.6025391,22.3574219 C53.1761046,21.576168 52.9628906,20.6907602 52.9628906,19.7011719 C52.9628906,18.7246045 53.1761046,17.8505898 53.6025391,17.0791016 C54.0289735,16.3076133 54.6718707,15.7021506 55.53125,15.2626953 C56.3906293,14.82324 57.4322855,14.6035156 58.65625,14.6035156 C59.4635457,14.6035156 60.2431603,14.7776675 60.9951172,15.1259766 C61.7470741,15.4742856 62.3655575,16.0439414 62.8505859,16.8349609 C63.3356144,17.6259805 63.578125,18.6464781 63.578125,19.8964844 L63.578125,20.5996094 Z M60.2773438,18.8613281 C60.2773438,18.2233041 60.1194677,17.7138691 59.8037109,17.3330078 C59.4879542,16.9521465 59.0338571,16.7617188 58.4414062,16.7617188 C57.8554658,16.7617188 57.3818377,16.9554017 57.0205078,17.3427734 C56.6591779,17.7301452 56.4785156,18.236325 56.4785156,18.8613281 L60.2773438,18.8613281 Z" id="State" fill="#4A4A4A" fill-rule="evenodd"></path>
        </g>
        <path d="M376,152 C380.461911,160.689044 385.48386,178.690464 391.065849,206.00426 C396.647837,233.318057 399.438831,285.316637 399.438831,362 L491,362 C491,287.017368 488.901292,235.018788 484.703876,206.00426 C480.50646,176.989733 472.568169,158.988313 460.889002,152 L376,152 Z" id="Path-2-Copy-3" fill="#D5D5D5" fill-rule="nonzero"></path>
        <g id="Group-2" transform="translate(274.000000, 152.000000)">
            <path d="M0,-1.42108547e-14 C4.46191076,8.6890437 9.48386032,26.6904639 15.0658487,54.0042605 C20.647837,81.3180571 23.4388312,133.316637 23.4388312,210 L115,210 C115,135.017368 112.901292,83.0187883 108.703876,54.0042605 C104.50646,24.9897327 96.5681686,6.98831251 84.8890022,-1.42108547e-14 L0,-1.42108547e-14 Z" id="Path-2" fill="#D5D5D5" fill-rule="nonzero"></path>
            <g id="location" transform="translate(81.000000, 173.000000)" fill-rule="nonzero">
                <path d="M11,28.6897029 C18.3333333,21.4640841 22,15.7341831 22,11.5 C22,5.14872538 17.0751322,0 11,0 C4.92486775,0 0,5.14872538 0,11.5 C0,15.7341831 3.66666667,21.4640841 11,28.6897029 Z" id="Oval" stroke="#6E6E6E" stroke-width="1" fill="#B8E986"></path>
                <circle id="Oval-2" fill="#000000" cx="11.5" cy="11.5" r="4.5"></circle>
            </g>
            <text id="before-Start()" font-family="GillSans, Gill Sans" font-size="18" font-weight="normal" fill="#D0021B">
                <tspan x="44" y="46">before </tspan>
                <tspan x="44" y="67">Start()</tspan>
            </text>
            <text id="and-after-start()" font-family="GillSans, Gill Sans" font-size="18" font-weight="normal" fill="#430051">
                <tspan x="38" y="98">and after</tspan>
                <tspan x="38" y="119">start()</tspan>
            </text>
        </g>
        <path d="M429,322.025134 C452.748244,322.025134 472,312.617487 472,301.012567 C472,289.407647 452.748244,280 429,280 C405.251756,280 386,289.407647 386,301.012567 C386,307.112224 391.318594,312.60485 399.813202,316.443444 C400.972601,316.967359 402.191164,317.460463 403.463443,317.920092 C405.217886,318.55391 405.035592,325.913879 402.91656,340 C412.601928,327.539732 418.410482,321.406083 420.342221,321.599055 C423.138871,321.878427 426.034376,322.025134 429,322.025134 Z" id="Oval-Copy" stroke-opacity="0.416610054" stroke="#979797" fill="#FFFFFF" fill-rule="nonzero" transform="translate(429.000000, 310.000000) scale(-1, 1) translate(-429.000000, -310.000000) "></path>
        <rect id="Rectangle-2" fill="#999998" fill-rule="nonzero" x="93" y="296" width="111" height="66"></rect>
        <rect id="Rectangle-2-Copy" fill="#999998" fill-rule="nonzero" x="195" y="296" width="94" height="66"></rect>
        <polygon id="Path-3" fill="#B5B5B5" fill-rule="nonzero" points="89 233 93.5494373 297 187 297 180.405145 233"></polygon>
        <polygon id="Path-3-Copy" fill="#B5B5B5" fill-rule="nonzero" points="174 233 179.338625 297 289 297 281.261139 233"></polygon>
        <path d="M65,152 C71.6340902,160.035498 76.2452251,170.547758 78.8334045,183.536781 C81.4215839,196.525803 84.6233928,213.013543 88.4388312,233 L180,233 C176.899693,211.215838 173.250831,194.728098 169.053415,183.536781 C164.855999,172.345463 158.467861,161.833203 149.889002,152 L65,152 Z" id="Path-2-Copy" fill="#D5D5D5" fill-rule="nonzero"></path>
        <path d="M167,152 C173.63409,160.035498 178.245225,170.547758 180.833405,183.536781 C183.421584,196.525803 186.623393,213.013543 190.438831,233 L282,233 C278.899693,211.215838 275.250831,194.728098 271.053415,183.536781 C266.855999,172.345463 260.467861,161.833203 251.889002,152 L167,152 Z" id="Path-2-Copy-2" fill="#D5D5D5" fill-rule="nonzero"></path>
        <g id="location-new" transform="translate(140.000000, 198.000000)">
            <g>
                <path d="M11,28.6897029 C18.3333333,21.4640841 22,15.7341831 22,11.5 C22,5.14872538 17.0751322,0 11,0 C4.92486775,0 0,5.14872538 0,11.5 C0,15.7341831 3.66666667,21.4640841 11,28.6897029 Z" id="Oval" stroke="#6E6E6E" fill="#FFFFFF" fill-rule="nonzero"></path>
                <circle id="Oval-2" fill="#000000" fill-rule="nonzero" cx="11.5" cy="11.5" r="4.5"></circle>
            </g>
        </g>
        <g id="location-new" transform="translate(242.000000, 198.000000)">
            <g>
                <path d="M11,28.6897029 C18.3333333,21.4640841 22,15.7341831 22,11.5 C22,5.14872538 17.0751322,0 11,0 C4.92486775,0 0,5.14872538 0,11.5 C0,15.7341831 3.66666667,21.4640841 11,28.6897029 Z" id="Oval" stroke="#6E6E6E" fill="#FFFFFF" fill-rule="nonzero"></path>
                <circle id="Oval-2" fill="#000000" fill-rule="nonzero" cx="11.5" cy="11.5" r="4.5"></circle>
            </g>
        </g>
        <g id="location-2" transform="translate(183.000000, 257.000000)">
            <g>
                <path d="M11,28.6897029 C18.3333333,21.4640841 22,15.7341831 22,11.5 C22,5.14872538 17.0751322,0 11,0 C4.92486775,0 0,5.14872538 0,11.5 C0,15.7341831 3.66666667,21.4640841 11,28.6897029 Z" id="Oval" stroke="#6E6E6E" fill="#F5A623" fill-rule="nonzero"></path>
                <circle id="Oval-2" fill="#000000" fill-rule="nonzero" cx="11.5" cy="11.5" r="4.5"></circle>
            </g>
        </g>
        <g id="location" transform="translate(194.000000, 325.000000)" fill-rule="nonzero">
            <path d="M11,28.6897029 C18.3333333,21.4640841 22,15.7341831 22,11.5 C22,5.14872538 17.0751322,0 11,0 C4.92486775,0 0,5.14872538 0,11.5 C0,15.7341831 3.66666667,21.4640841 11,28.6897029 Z" id="Oval" stroke="#6E6E6E" stroke-width="1" fill="#B8E986"></path>
            <circle id="Oval-2" fill="#000000" cx="11.5" cy="11.5" r="4.5"></circle>
        </g>
        <text id="before-Start()" font-family="GillSans, Gill Sans" font-size="18" font-weight="normal" fill="#D0021B">
            <tspan x="101" y="176">before Start()</tspan>
        </text>
        <text id="on-Start()-Copy" font-family="GillSans, Gill Sans" font-size="18" font-weight="normal" fill="#430051">
            <tspan x="115" y="250">on Start()</tspan>
        </text>
        <text id="after-Start()-resolv" font-family="GillSans, Gill Sans" font-size="18" font-weight="normal" fill="#430051">
            <tspan x="119" y="317">after Start() resolve</tspan>
        </text>
        <path d="M274,189.830999 C312.107648,189.830999 343,178.228234 343,163.915499 C343,149.602764 312.107648,143.348339 274,143.348339 C235.892352,143.348339 205,149.602764 205,163.915499 C205,171.438409 213.534488,178.212648 227.165371,182.946914 C229.025801,183.593077 230.981169,184.201238 233.022734,184.768114 C235.838003,185.549822 238.500609,190.513719 241.010551,199.659804 C250.641939,192.518937 257.007517,189.067503 260.107285,189.305501 C264.594933,189.65006 269.241207,189.830999 274,189.830999 Z" id="Oval" stroke-opacity="0.416610054" stroke="#979797" fill="#FFFFFF" fill-rule="nonzero"></path>
        <text id="state-=-STORE_STATE_" font-family="ArialNarrow, Arial Narrow" font-size="9" font-weight="normal" fill="#000000">
            <tspan x="221" y="160">state = </tspan>
            <tspan x="221" y="170">STORE_STATE_UNSET_VALUE</tspan>
        </text>
        <g id="location" transform="translate(457.000000, 325.000000)" fill-rule="nonzero">
            <path d="M11,28.6897029 C18.3333333,21.4640841 22,15.7341831 22,11.5 C22,5.14872538 17.0751322,0 11,0 C4.92486775,0 0,5.14872538 0,11.5 C0,15.7341831 3.66666667,21.4640841 11,28.6897029 Z" id="Oval" stroke="#6E6E6E" stroke-width="1" fill="#B8E986"></path>
            <circle id="Oval-2" fill="#000000" cx="11.5" cy="11.5" r="4.5"></circle>
        </g>
        <text id="before-Start()" font-family="GillSans, Gill Sans" font-size="18" font-weight="normal" fill="#D0021B">
            <tspan x="414" y="202">before </tspan>
            <tspan x="414" y="223">Start()</tspan>
        </text>
        <text id="and-after-start()-copy" font-family="GillSans, Gill Sans" font-size="18" font-weight="normal" fill="#430051">
            <tspan x="414" y="250">and after</tspan>
            <tspan x="414" y="271">start()</tspan>
        </text>
        <text id="state-=-{}" font-family="ArialNarrow, Arial Narrow" font-size="9" font-weight="normal" fill="#000000">
            <tspan x="404" y="305">state = {}</tspan>
        </text>
        <rect id="Rectangle" stroke="#979797" fill="#FFFFFF" fill-rule="nonzero" x="5.5" y="200.5" width="96" height="22"></rect>
        <rect id="Rectangle-Copy" stroke="#6E6E6E" fill="#F5A623" fill-rule="nonzero" x="5" y="263" width="97" height="23"></rect>
        <rect id="Rectangle-Copy-2" stroke="#6E6E6E" fill="#B8E986" fill-rule="nonzero" x="5" y="331" width="97" height="23"></rect>
        <text id="S_NEW" font-family="Roadway" font-size="18" font-weight="normal" fill="#000000">
            <tspan x="20" y="219">S</tspan>
            <tspan x="27.398" y="219" font-family="ArialNarrow, Arial Narrow">_</tspan>
            <tspan x="35.6069844" y="219">NEW</tspan>
        </text>
        <text id="S_STARTING" font-family="Roadway" font-size="18" font-weight="normal" fill="#000000">
            <tspan x="20" y="282">S</tspan>
            <tspan x="27.398" y="282" font-family="ArialNarrow, Arial Narrow">_</tspan>
            <tspan x="35.6069844" y="282">STARTING</tspan>
        </text>
        <text id="S_STARTED" font-family="Roadway" font-size="18" font-weight="normal" fill="#000000">
            <tspan x="20" y="350">S</tspan>
            <tspan x="27.398" y="350" font-family="ArialNarrow, Arial Narrow">_</tspan>
            <tspan x="35.6069844" y="350">STARTED</tspan>
        </text>
    </g>
</svg>